<svg width="45" height="40" viewBox="0 0 45 40" fill="none" xmlns="http://www.w3.org/2000/svg">
<path d="M22.3255 0C18.9978 0 16.2802 2.73268 16.2802 6.061C16.2802 9.38936 18.9978 12.1075 22.3255 12.1075C25.6533 12.1075 28.3709 9.38936 28.3709 6.061C28.3709 2.73268 25.6533 0 22.3255 0ZM22.3255 1.87497C24.648 1.87497 26.5108 3.73812 26.5108 6.061C26.5108 8.38392 24.648 10.2325 22.3255 10.2325C20.0031 10.2325 18.1403 8.38392 18.1403 6.061C18.1403 3.73812 20.0031 1.87497 22.3255 1.87497ZM19.2156 12.5581C18.2847 12.5581 17.5799 13.0368 16.7452 13.6628C15.9104 14.2887 14.9953 15.1316 14.0277 16.0755C12.1531 17.904 10.09 20.131 8.22936 21.933L1.67537 23.2703C1.55585 23.2963 1.44154 23.3458 1.34114 23.4157C0.360477 24.0844 -0.138007 25.2284 0.0332447 26.3517C0.204496 27.475 1.15613 28.529 2.5909 28.8226C2.75948 28.8607 2.88364 28.8179 3.04139 28.8082C2.54832 29.3567 2.15393 30.004 1.98055 30.7122C1.554 32.4549 2.19827 34.5532 4.1313 35.6832C4.23393 35.7428 4.34807 35.7825 4.46554 35.7994L10.104 36.6279C10.1675 37.2139 10.2764 37.8224 10.5836 38.4012C11.0365 39.2545 12.0019 40 13.2284 40C16.2487 39.5572 19.2971 39.0815 22.3255 38.6192C25.3566 39.0474 28.3997 39.5979 31.4226 40C32.6491 40 33.6145 39.2545 34.0675 38.4012C34.3747 37.8224 34.4835 37.2139 34.547 36.6279L40.1855 35.7994C40.303 35.7822 40.4171 35.7428 40.5197 35.6832C42.4528 34.5532 43.097 32.4549 42.6705 30.7122C42.4971 30.004 42.1027 29.3567 41.6096 28.8082C41.7612 28.8472 41.9287 28.8226 42.0601 28.8226C43.4949 28.5291 44.4465 27.4751 44.6178 26.3517C44.789 25.2283 44.2906 24.0843 43.3099 23.4157C43.2095 23.3458 43.0952 23.2961 42.9757 23.2703L36.4217 21.933C34.5674 20.135 32.5489 17.9033 30.7106 16.0755C29.7614 15.1318 28.8585 14.3046 28.0366 13.6773C27.2148 13.05 26.5117 12.5581 25.5807 12.5581H19.2156ZM19.2156 14.4186H25.5807C25.6161 14.4186 26.2154 14.6237 26.9177 15.1598C27.62 15.6959 28.4654 16.4808 29.3881 17.3982C31.2336 19.2332 33.3588 21.5647 35.3318 23.4593C35.4567 23.5762 35.6145 23.6577 35.7823 23.6918L42.3217 25.029C42.6522 25.2988 42.8272 25.7146 42.7722 26.0755C42.7166 26.4406 42.5014 26.7661 41.784 26.9476L34.5325 25.6395L28.8214 21.1336C28.5495 20.916 28.151 20.8706 27.8372 21.0215C27.5233 21.1724 27.3099 21.5121 27.31 21.8604V29.7673C27.3133 30.2964 27.8472 30.7574 28.3709 30.6831C31.8152 30.2245 35.2587 29.757 38.7032 29.3022C39.8334 29.3092 40.5986 30.1048 40.854 31.1482C41.1004 32.1549 40.8337 33.2496 39.7059 33.9825L33.5588 34.8836C33.1169 34.9464 32.7552 35.3675 32.7596 35.8139C32.7596 36.4119 32.6367 37.1032 32.4108 37.529C32.1873 37.9501 32.0143 38.1355 31.4371 38.1394C28.4482 37.6829 25.4594 37.2195 22.4708 36.7586C22.3748 36.7432 22.2763 36.7432 22.1802 36.7586C19.1919 37.2168 16.1999 37.6859 13.2139 38.1394C12.6368 38.1348 12.4637 37.9501 12.2402 37.529C12.0143 37.1032 11.8915 36.4119 11.8915 35.8139C11.8958 35.3675 11.5341 34.9464 11.0922 34.8836L4.9451 33.9825C3.81733 33.2496 3.55065 32.1549 3.79706 31.1482C4.05243 30.1048 4.81763 29.3093 5.94781 29.3022C9.39207 29.7592 12.8362 30.2221 16.2802 30.6831C16.8039 30.7574 17.3379 30.2964 17.341 29.7673V21.8604C17.3411 21.5121 17.1277 21.1724 16.8139 21.0215C16.5001 20.8706 16.1015 20.916 15.8297 21.1336L10.1185 25.6395L2.867 26.9476C2.14969 26.7661 1.93446 26.4406 1.87882 26.0755C1.8238 25.7146 1.99886 25.2988 2.32931 25.029L8.86877 23.6918C9.03649 23.6579 9.19432 23.5762 9.31926 23.4593C11.2881 21.5687 13.4401 19.2474 15.321 17.4127C16.2615 16.4954 17.1331 15.6972 17.8496 15.1598C18.5662 14.6224 19.1803 14.4186 19.2156 14.4186ZM15.4809 23.779V28.6917L8.66532 27.7906L10.6708 27.4272C10.8241 27.4007 10.9705 27.3352 11.0922 27.2383L15.4809 23.779ZM29.1701 23.779L33.5588 27.2383C33.6806 27.3352 33.827 27.4008 33.9803 27.4272L35.9857 27.7906L29.1701 28.6917V23.779Z" fill="black"/>
</svg>
