<svg width="15" height="42" viewBox="0 0 15 42" fill="none" xmlns="http://www.w3.org/2000/svg">
<path fill-rule="evenodd" clip-rule="evenodd" d="M8.06241 32.624C8.05797 33.1087 8.05265 33.5929 8.06774 34.0772C8.07573 34.2663 8.11168 34.4527 8.17782 34.6303C8.26615 34.8682 8.40641 35.0866 8.58617 35.2663C8.76106 35.4412 8.97189 35.5784 9.2027 35.6676C9.35139 35.7248 9.50764 35.7621 9.6661 35.7776C9.76464 35.7874 9.86273 35.7856 9.96126 35.7887C10.0141 35.791 10.0669 35.7945 10.1193 35.799C10.4402 35.8291 10.7545 35.9055 11.0514 36.0311C11.4766 36.2109 11.8597 36.4865 12.1664 36.8318C12.4323 37.1319 12.6396 37.483 12.7732 37.8612C12.8855 38.1803 12.9423 38.5154 12.9485 38.8536C12.9538 39.6806 12.9489 40.5079 12.9489 41.3348C12.9467 41.385 12.9432 41.4338 12.9321 41.4831C12.9063 41.5963 12.8504 41.7024 12.7709 41.7876C12.7261 41.8364 12.6733 41.8781 12.616 41.9114C12.4269 42.0206 12.1908 42.0295 11.9942 41.9345C11.9342 41.9061 11.8788 41.8679 11.8299 41.8231C11.7691 41.7663 11.719 41.6984 11.683 41.6238C11.6542 41.5639 11.6346 41.5 11.6244 41.4343C11.6182 41.3903 11.6187 41.3792 11.6173 41.3348C11.6173 40.5057 11.6324 39.6766 11.6164 38.8474C11.6107 38.6548 11.576 38.4644 11.5095 38.2833C11.3341 37.8039 10.9493 37.4146 10.4726 37.2331C10.3212 37.1758 10.1628 37.1394 10.0017 37.1252C9.90978 37.1172 9.8179 37.119 9.72602 37.1159C9.67497 37.1137 9.62393 37.1106 9.57288 37.1066C9.25641 37.0768 8.94659 37.0032 8.65275 36.8815C8.2293 36.7062 7.84625 36.4363 7.53865 36.0963C7.26612 35.7954 7.05351 35.4412 6.9168 35.0586C6.8005 34.7346 6.74147 34.3937 6.73481 34.0497C6.73215 33.5743 6.73303 33.0994 6.73392 32.624H4.54877C4.52436 32.6227 4.4995 32.6227 4.47509 32.62C4.42626 32.6147 4.37833 32.6036 4.33172 32.5876C4.16794 32.5312 4.03034 32.4105 3.95311 32.2556C3.93136 32.2116 3.91405 32.1655 3.90251 32.1175C3.89629 32.0936 3.89318 32.0692 3.88874 32.0452C3.88874 32.0452 1.07464 11.1138 1.04535 11.0788C1.01206 11.0388 1.00673 11.0268 0.979211 10.9833C0.939707 10.9141 0.90109 10.8448 0.863361 10.7752C0.601925 10.2807 0.393754 9.76004 0.24861 9.21941C-0.099824 7.91756 -0.0820751 6.52471 0.302312 5.23306C0.472313 4.66314 0.712445 4.11408 1.01516 3.6023C1.38845 2.97112 1.85673 2.39676 2.39958 1.90363C2.9877 1.36877 3.66282 0.930231 4.39076 0.611535C4.99886 0.345216 5.6429 0.163232 6.29982 0.0709075C6.60787 0.0278526 6.91768 0.00654701 7.22839 0.000332899C7.32293 -0.000110966 7.32293 -0.000110966 7.41748 0.000332899C7.72818 0.00654701 8.038 0.0278526 8.34604 0.0709075C9.00296 0.163232 9.64701 0.345216 10.2551 0.611535C10.9835 0.930231 11.6582 1.36877 12.2463 1.90363C12.7891 2.39676 13.2574 2.97112 13.6307 3.6023C13.9334 4.11408 14.1735 4.66314 14.3435 5.23306C14.7337 6.54424 14.7461 7.95884 14.3813 9.27667C14.2268 9.83594 14.0044 10.373 13.7248 10.8808L13.6955 10.9332C13.6667 10.9838 13.6378 11.0339 13.6005 11.0788C13.5712 11.1138 10.7571 32.0452 10.7571 32.0452C10.7527 32.0692 10.7496 32.0936 10.7434 32.1175C10.7318 32.1655 10.715 32.2116 10.6928 32.2556C10.6155 32.4105 10.4779 32.5312 10.3141 32.5876C10.268 32.6036 10.2196 32.6147 10.1708 32.62C10.1464 32.6227 10.1219 32.6227 10.0971 32.624H8.06241ZM11.6741 14.8694H2.97172L5.1329 31.2924H9.51296L11.6741 14.8694ZM7.24526 1.33193C6.99092 1.33681 6.73703 1.35457 6.48491 1.38963C5.9718 1.46154 5.4689 1.60047 4.99175 1.80243C4.41473 2.047 3.87676 2.38256 3.40271 2.79313C2.94908 3.1864 2.55449 3.64757 2.23624 4.15669C1.97924 4.56815 1.7724 5.01113 1.62237 5.4723C1.28681 6.50562 1.24065 7.62727 1.48744 8.685C1.5913 9.13064 1.74754 9.56164 1.94817 9.97265L1.95527 9.98686H12.6906C12.7221 9.92338 12.7523 9.85947 12.7816 9.79511C12.9618 9.39297 13.1003 8.97351 13.1899 8.54163C13.3959 7.55048 13.3466 6.50917 13.0457 5.54243C12.9014 5.07904 12.6999 4.6334 12.4474 4.21838C12.1358 3.70483 11.7465 3.23922 11.2973 2.84063C10.8286 2.42473 10.2951 2.0825 9.72113 1.83128C9.24708 1.62399 8.74685 1.47885 8.23552 1.40073C7.98429 1.36211 7.73173 1.34169 7.47784 1.33326C7.40016 1.33193 7.32293 1.33148 7.24526 1.33193ZM3.77201 7.98946C4.01702 7.98946 4.21587 8.18832 4.21587 8.43333C4.21587 8.67834 4.01702 8.87719 3.77201 8.87719C3.52699 8.87719 3.32814 8.67834 3.32814 8.43333C3.32814 8.18832 3.52699 7.98946 3.77201 7.98946ZM5.54747 7.98946C5.79248 7.98946 5.99133 8.18832 5.99133 8.43333C5.99133 8.67834 5.79248 8.87719 5.54747 8.87719C5.30245 8.87719 5.1036 8.67834 5.1036 8.43333C5.1036 8.18832 5.30245 7.98946 5.54747 7.98946ZM7.32293 7.98946C7.56794 7.98946 7.76679 8.18832 7.76679 8.43333C7.76679 8.67834 7.56794 8.87719 7.32293 8.87719C7.07792 8.87719 6.87906 8.67834 6.87906 8.43333C6.87906 8.18832 7.07792 7.98946 7.32293 7.98946ZM9.09839 7.98946C9.3434 7.98946 9.54225 8.18832 9.54225 8.43333C9.54225 8.67834 9.3434 8.87719 9.09839 8.87719C8.85338 8.87719 8.65452 8.67834 8.65452 8.43333C8.65452 8.18832 8.85338 7.98946 9.09839 7.98946ZM10.8739 7.98946C11.1189 7.98946 11.3177 8.18832 11.3177 8.43333C11.3177 8.67834 11.1189 8.87719 10.8739 8.87719C10.6288 8.87719 10.43 8.67834 10.43 8.43333C10.43 8.18832 10.6288 7.98946 10.8739 7.98946ZM3.77201 6.65787C4.01702 6.65787 4.21587 6.85672 4.21587 7.10173C4.21587 7.34675 4.01702 7.5456 3.77201 7.5456C3.52699 7.5456 3.32814 7.34675 3.32814 7.10173C3.32814 6.85672 3.52699 6.65787 3.77201 6.65787ZM5.54747 6.65787C5.79248 6.65787 5.99133 6.85672 5.99133 7.10173C5.99133 7.34675 5.79248 7.5456 5.54747 7.5456C5.30245 7.5456 5.1036 7.34675 5.1036 7.10173C5.1036 6.85672 5.30245 6.65787 5.54747 6.65787ZM7.32293 6.65787C7.56794 6.65787 7.76679 6.85672 7.76679 7.10173C7.76679 7.34675 7.56794 7.5456 7.32293 7.5456C7.07792 7.5456 6.87906 7.34675 6.87906 7.10173C6.87906 6.85672 7.07792 6.65787 7.32293 6.65787ZM9.09839 6.65787C9.3434 6.65787 9.54225 6.85672 9.54225 7.10173C9.54225 7.34675 9.3434 7.5456 9.09839 7.5456C8.85338 7.5456 8.65452 7.34675 8.65452 7.10173C8.65452 6.85672 8.85338 6.65787 9.09839 6.65787ZM10.8739 6.65787C11.1189 6.65787 11.3177 6.85672 11.3177 7.10173C11.3177 7.34675 11.1189 7.5456 10.8739 7.5456C10.6288 7.5456 10.43 7.34675 10.43 7.10173C10.43 6.85672 10.6288 6.65787 10.8739 6.65787ZM3.77201 5.32627C4.01702 5.32627 4.21587 5.52512 4.21587 5.77014C4.21587 6.01515 4.01702 6.214 3.77201 6.214C3.52699 6.214 3.32814 6.01515 3.32814 5.77014C3.32814 5.52512 3.52699 5.32627 3.77201 5.32627ZM5.54747 5.32627C5.79248 5.32627 5.99133 5.52512 5.99133 5.77014C5.99133 6.01515 5.79248 6.214 5.54747 6.214C5.30245 6.214 5.1036 6.01515 5.1036 5.77014C5.1036 5.52512 5.30245 5.32627 5.54747 5.32627ZM7.32293 5.32627C7.56794 5.32627 7.76679 5.52512 7.76679 5.77014C7.76679 6.01515 7.56794 6.214 7.32293 6.214C7.07792 6.214 6.87906 6.01515 6.87906 5.77014C6.87906 5.52512 7.07792 5.32627 7.32293 5.32627ZM9.09839 5.32627C9.3434 5.32627 9.54225 5.52512 9.54225 5.77014C9.54225 6.01515 9.3434 6.214 9.09839 6.214C8.85338 6.214 8.65452 6.01515 8.65452 5.77014C8.65452 5.52512 8.85338 5.32627 9.09839 5.32627ZM10.8739 5.32627C11.1189 5.32627 11.3177 5.52512 11.3177 5.77014C11.3177 6.01515 11.1189 6.214 10.8739 6.214C10.6288 6.214 10.43 6.01515 10.43 5.77014C10.43 5.52512 10.6288 5.32627 10.8739 5.32627ZM3.77201 3.99468C4.01702 3.99468 4.21587 4.19353 4.21587 4.43854C4.21587 4.68356 4.01702 4.88241 3.77201 4.88241C3.52699 4.88241 3.32814 4.68356 3.32814 4.43854C3.32814 4.19353 3.52699 3.99468 3.77201 3.99468ZM5.54747 3.99468C5.79248 3.99468 5.99133 4.19353 5.99133 4.43854C5.99133 4.68356 5.79248 4.88241 5.54747 4.88241C5.30245 4.88241 5.1036 4.68356 5.1036 4.43854C5.1036 4.19353 5.30245 3.99468 5.54747 3.99468ZM7.32293 3.99468C7.56794 3.99468 7.76679 4.19353 7.76679 4.43854C7.76679 4.68356 7.56794 4.88241 7.32293 4.88241C7.07792 4.88241 6.87906 4.68356 6.87906 4.43854C6.87906 4.19353 7.07792 3.99468 7.32293 3.99468ZM9.09839 3.99468C9.3434 3.99468 9.54225 4.19353 9.54225 4.43854C9.54225 4.68356 9.3434 4.88241 9.09839 4.88241C8.85338 4.88241 8.65452 4.68356 8.65452 4.43854C8.65452 4.19353 8.85338 3.99468 9.09839 3.99468ZM10.8739 3.99468C11.1189 3.99468 11.3177 4.19353 11.3177 4.43854C11.3177 4.68356 11.1189 4.88241 10.8739 4.88241C10.6288 4.88241 10.43 4.68356 10.43 4.43854C10.43 4.19353 10.6288 3.99468 10.8739 3.99468ZM5.54747 2.66308C5.79248 2.66308 5.99133 2.86193 5.99133 3.10695C5.99133 3.35196 5.79248 3.55081 5.54747 3.55081C5.30245 3.55081 5.1036 3.35196 5.1036 3.10695C5.1036 2.86193 5.30245 2.66308 5.54747 2.66308ZM7.32293 2.66308C7.56794 2.66308 7.76679 2.86193 7.76679 3.10695C7.76679 3.35196 7.56794 3.55081 7.32293 3.55081C7.07792 3.55081 6.87906 3.35196 6.87906 3.10695C6.87906 2.86193 7.07792 2.66308 7.32293 2.66308ZM9.09839 2.66308C9.3434 2.66308 9.54225 2.86193 9.54225 3.10695C9.54225 3.35196 9.3434 3.55081 9.09839 3.55081C8.85338 3.55081 8.65452 3.35196 8.65452 3.10695C8.65452 2.86193 8.85338 2.66308 9.09839 2.66308Z" fill="black"/>
</svg>
