<svg width="40" height="40" viewBox="0 0 40 40" fill="none" xmlns="http://www.w3.org/2000/svg">
<path d="M39.3181 16.9975H0.681485C0.304851 16.9975 0 17.3064 0 17.688V39.3095C0 39.6911 0.304851 40 0.681485 40H4.07619C4.45282 40 4.75768 39.6911 4.75768 39.3095V31.3358L35.2423 31.3219V39.3095C35.2423 39.6911 35.5472 40 35.9238 40H39.3185C39.6951 40 40 39.6911 40 39.3095V17.688C39.9995 17.3064 39.6947 16.9975 39.3181 16.9975ZM35.9224 24.0585H30.1212V18.3785H35.9224V24.0585ZM4.08437 18.3785H10.0401V24.0585H4.08437V18.3785ZM10.7216 18.3785H16.83V24.0585H10.7216V18.3785ZM17.5114 18.3785H23.1346V24.0585H17.5114V18.3785ZM16.83 24.749V29.9492L10.7216 29.952V24.749H16.83ZM17.5114 24.749H23.1346V29.9465L17.5114 29.9488V24.749ZM23.8161 24.749H29.4393V29.9437L23.8161 29.946V24.749ZM23.8161 24.0585V18.3785H29.4393V24.0585H23.8161ZM4.08437 29.9548V24.749H10.0401V29.952L4.08437 29.9548ZM30.1212 29.9433V24.749H35.9224V29.9405L30.1212 29.9433ZM20.1865 15.1871C24.319 15.1871 27.681 11.7807 27.681 7.59353C27.681 3.40641 24.319 0 20.1865 0C16.054 0 12.692 3.40641 12.692 7.59353C12.692 11.7807 16.054 15.1871 20.1865 15.1871ZM20.0766 8.29737C21.1415 8.45296 22.042 8.91651 22.7375 9.54163C22.1183 11.5569 19.9107 13.2491 16.8704 12.8109C15.8941 12.1715 15.1103 11.2596 14.6201 10.1815C14.9027 10.228 15.1767 10.2547 15.4425 10.2538C17.3874 10.2473 18.8876 9.09604 20.0766 8.29737ZM18.4505 13.5488C20.8375 13.3287 22.5781 11.8529 23.2677 10.0963C23.7988 10.7422 24.1446 11.4851 24.2722 12.2129C23.1864 13.1998 21.7566 13.8061 20.1865 13.8061C19.5832 13.8061 19.0016 13.714 18.4505 13.5488ZM24.8406 11.6269C24.3349 9.79297 22.7153 8.04005 20.3037 7.6368C20.1243 6.39162 20.1411 5.32275 20.356 4.42327C23.8801 4.17561 25.6861 6.09794 26.289 8.1671C26.1699 9.48179 25.6438 10.6768 24.8406 11.6269ZM26.1786 6.28759C25.1754 4.74596 23.3827 3.59745 20.5768 3.72035C20.9125 2.88348 21.4632 2.22752 22.2296 1.74325C24.2123 2.45722 25.7297 4.17101 26.1786 6.28759ZM21.3873 1.50296C19.8035 2.78175 19.2142 4.88175 19.6345 7.76708C18.5796 8.47367 17.7431 8.98464 16.9613 9.27694C16.088 8.06122 15.7896 6.54307 16.133 4.96691C16.4006 3.73922 17.0362 2.61511 17.849 1.85327C18.57 1.55084 19.3587 1.38144 20.1865 1.38144C20.5972 1.38144 20.9984 1.42425 21.3873 1.50296ZM16.2066 2.8775C15.8736 3.47316 15.6174 4.13142 15.4674 4.81777C15.0994 6.50486 15.3879 8.13856 16.2684 9.47949C15.6505 9.60838 15.0313 9.59043 14.3257 9.41734C14.1504 8.84056 14.055 8.22832 14.055 7.59399C14.055 5.70758 14.8923 4.01772 16.2066 2.8775Z" fill="black"/>
</svg>
