<svg width="38" height="40" viewBox="0 0 38 40" fill="none" xmlns="http://www.w3.org/2000/svg">
<path d="M21.1699 0C18.4336 0 16.207 2.22626 16.207 4.96252C16.207 7.69878 18.4336 9.92504 21.1699 9.92504C23.9061 9.92504 26.1327 7.69878 26.1327 4.96252C26.1327 2.22626 23.9061 0 21.1699 0ZM21.1699 8.63472C19.1449 8.63472 17.4974 6.98749 17.4974 4.96252C17.4974 2.93755 19.1449 1.29032 21.1699 1.29032C23.1948 1.29032 24.8424 2.93755 24.8424 4.96252C24.8424 6.98749 23.1948 8.63472 21.1699 8.63472Z" fill="black"/>
<path d="M32.7213 16.2988C32.3186 14.9338 31.4246 13.7808 30.203 13.0519C28.4749 12.1726 26.9268 10.572 23.97 10.572C13.517 10.3911 13.1471 10.9834 12.1933 10.0296L6.56702 4.40332C5.63205 3.46836 4.00211 3.46016 3.05831 4.38849C2.06818 5.36229 2.06469 6.95113 3.04321 7.929L9.50367 14.3891C11.3111 16.1973 13.3777 15.5268 15.8273 15.808V22.0029C14.7952 22.8577 10.8041 24.197 9.32096 29.2666L7.25754 36.3171C6.71915 38.1592 8.09728 40 10.0171 40C11.3125 40 12.4541 39.1268 12.7924 37.8761L14.6177 31.135C15.2314 28.8713 16.8945 28.5191 21.3478 24.759C22.0084 26.76 23.0881 29.0804 23.7167 32.7797L24.5364 37.6033C24.7721 38.9903 25.9647 39.9968 27.4163 39.9968C29.1946 39.9968 30.5469 38.398 30.2521 36.6453L29.6145 32.8493C28.8735 28.4384 27.6655 25.8295 26.5147 22.2492V16.931C27.2872 17.1789 27.8883 17.7873 28.1257 18.5648L30.0095 24.724C30.3321 25.779 31.2904 26.4878 32.3937 26.4878C34.0595 26.4878 35.2572 24.8879 34.7846 23.2891L32.7213 16.2988ZM32.3937 25.1975C31.8613 25.1975 31.3988 24.8557 31.2432 24.3466L29.3594 18.1873C28.9927 16.9865 28.0558 16.0512 26.8543 15.6855L26.1146 15.4602C26.039 15.429 25.9565 15.412 25.8695 15.412C25.513 15.412 25.2244 15.7009 25.2244 16.0572V22.3566C25.2244 22.4275 25.2364 22.4981 25.2591 22.5655C26.4464 26.2522 27.6227 28.7781 28.3419 33.0629L28.9795 36.8592C29.1346 37.781 28.4568 38.7065 27.3716 38.7065C26.596 38.7065 25.9389 38.1517 25.8091 37.3872L24.9894 32.5636C24.3208 28.6297 23.2019 26.3035 22.2632 23.4825C22.204 23.3175 22.0786 23.1839 21.9186 23.1117C21.7592 23.0399 21.5752 23.0359 21.4121 23.1017C21.3553 23.1244 21.3018 23.1552 21.2539 23.1927C16.4472 27.2837 14.159 27.8935 13.3727 30.7976L11.5475 37.5387C11.3604 38.2283 10.7316 38.7097 10.0171 38.7097C8.95973 38.7097 8.1985 37.6955 8.49618 36.6793L10.5596 29.6289C11.883 25.1025 15.6045 23.8849 16.821 22.9C17.0251 22.7699 17.1322 22.5431 17.1177 22.3157V15.2384C17.147 14.8846 16.8734 14.5586 16.5002 14.5438C13.2682 14.2435 11.767 14.8287 10.4159 13.4768L3.95553 7.01674C3.48276 6.54333 3.48586 5.77771 3.96308 5.30836C4.41792 4.86107 5.20424 4.86481 5.6547 5.31558L11.281 10.9418C12.8577 12.5194 14.173 11.5908 23.97 11.8624C26.4783 11.8624 27.7584 13.2384 29.5415 14.1601C30.4834 14.7221 31.1733 15.6111 31.4839 16.6639L33.5472 23.6545C33.7736 24.421 33.2013 25.1975 32.3937 25.1975Z" fill="black"/>
<path d="M37.4307 5.33804L35.3516 4.20082L34.2143 2.12198C33.9888 1.70804 33.3083 1.70869 33.0828 2.12198L31.9456 4.20082L29.8671 5.33804C29.6598 5.45146 29.5312 5.66817 29.5312 5.90417C29.5312 6.14011 29.6598 6.35714 29.8671 6.47024L31.9456 7.60714L33.0828 9.68598C33.1956 9.89295 33.4129 10.0218 33.6486 10.0218C33.8842 10.0218 34.1016 9.89327 34.2143 9.6863L35.3516 7.60714L37.4307 6.47024C37.638 6.35714 37.7665 6.14011 37.7665 5.90417C37.7665 5.66817 37.638 5.45146 37.4307 5.33804Z" fill="black"/>
<path d="M8.23529 20.4011C8.23529 20.1651 8.10678 19.9484 7.89949 19.835L5.82033 18.6977L4.6831 16.6189C4.45755 16.205 3.7771 16.2056 3.55155 16.6189L2.41432 18.6977L0.335871 19.835C0.128581 19.9484 0 20.1651 0 20.4011C0 20.637 0.128581 20.854 0.335871 20.9671L2.41432 22.104L3.55155 24.1829C3.66432 24.3895 3.88168 24.5184 4.11736 24.5184C4.35297 24.5184 4.57032 24.3899 4.6831 24.1829L5.82033 22.104L7.89949 20.9671C8.10678 20.854 8.23529 20.637 8.23529 20.4011Z" fill="black"/>
<path d="M11.1139 4.96379H11.6684C12.0249 4.96379 12.3135 4.67495 12.3135 4.31862C12.3135 3.96237 12.0249 3.67346 11.6684 3.67346H11.1139C10.7573 3.67346 10.4688 3.96237 10.4688 4.31862C10.4688 4.67495 10.7573 4.96379 11.1139 4.96379Z" fill="black"/>
<path d="M2.12147 1.68886C2.12147 1.33254 1.83296 1.0437 1.47631 1.0437H0.922505C0.565925 1.0437 0.277344 1.33254 0.277344 1.68886C0.277344 2.04512 0.565925 2.33402 0.922505 2.33402H1.47631C1.83296 2.33402 2.12147 2.04512 2.12147 1.68886Z" fill="black"/>
<path d="M11.3904 22.1128C11.747 22.1128 12.0355 21.8239 12.0355 21.4677C12.0355 21.1113 11.747 20.8225 11.3904 20.8225H10.8366C10.48 20.8225 10.1914 21.1113 10.1914 21.4677C10.1914 21.8239 10.48 22.1128 10.8366 22.1128H11.3904Z" fill="black"/>
<path d="M0.645162 12.5967C0.288581 12.5967 0 12.8855 0 13.2418C0 13.5981 0.288581 13.887 0.645162 13.887H1.19961C1.55626 13.887 1.84477 13.5981 1.84477 13.2418C1.84477 12.8855 1.55626 12.5967 1.19961 12.5967H0.645162Z" fill="black"/>
<path d="M29.6217 2.33402H30.1761C30.5328 2.33402 30.8213 2.04512 30.8213 1.68886C30.8213 1.33254 30.5328 1.0437 30.1761 1.0437H29.6217C29.2651 1.0437 28.9766 1.33254 28.9766 1.68886C28.9766 2.04512 29.2651 2.33402 29.6217 2.33402Z" fill="black"/>
<path d="M36.8441 11.7096H36.2897C35.9331 11.7096 35.6445 11.9984 35.6445 12.3548C35.6445 12.711 35.9331 12.9999 36.2897 12.9999H36.8441C37.2007 12.9999 37.4893 12.711 37.4893 12.3548C37.4893 11.9984 37.2007 11.7096 36.8441 11.7096Z" fill="black"/>
</svg>
