<svg width="42" height="42" viewBox="0 0 42 42" fill="none" xmlns="http://www.w3.org/2000/svg">
<path d="M41.9932 20.5023C41.9921 20.4504 41.99 20.3979 41.9884 20.3459C41.9848 20.2314 41.9806 20.117 41.9753 20.0025C41.9727 19.9437 41.9695 19.8844 41.9664 19.8256C41.9601 19.7148 41.9533 19.6041 41.9454 19.4938C41.9412 19.4382 41.9375 19.383 41.9333 19.3274C41.9228 19.1946 41.9113 19.0623 41.8981 18.93C41.895 18.8995 41.8929 18.8691 41.8897 18.8386C41.8735 18.6774 41.8546 18.5173 41.8346 18.3572C41.8288 18.3099 41.822 18.2627 41.8157 18.2154C41.8005 18.1015 41.7847 17.9876 41.7679 17.8742C41.759 17.8159 41.7501 17.7576 41.7407 17.6994C41.7244 17.5949 41.7071 17.4909 41.6892 17.3875C41.6792 17.3298 41.6693 17.2715 41.6587 17.2137C41.6383 17.1009 41.6162 16.988 41.5942 16.8756C41.5853 16.83 41.5769 16.7848 41.5674 16.7391C41.5354 16.5848 41.5023 16.431 41.4671 16.2782C41.4577 16.2367 41.4472 16.1958 41.4377 16.1543C41.4109 16.0404 41.3831 15.927 41.3548 15.8141C41.3401 15.7558 41.3243 15.6981 41.3091 15.6398C41.2834 15.5427 41.2576 15.4455 41.2303 15.3495C41.2135 15.2896 41.1967 15.2298 41.1794 15.1699C41.1511 15.0707 41.1211 14.9725 41.0912 14.8738C41.0749 14.8203 41.0587 14.7662 41.0424 14.7126C40.9967 14.5662 40.9495 14.4202 40.9001 14.2753C40.8896 14.2438 40.8781 14.2123 40.867 14.1808C40.8271 14.0643 40.7862 13.9477 40.7442 13.8317C40.7232 13.7739 40.7017 13.7172 40.6801 13.6595C40.6465 13.5692 40.6124 13.4794 40.5778 13.3896C40.5541 13.3287 40.53 13.2678 40.5058 13.2069C40.4707 13.1193 40.435 13.0321 40.3988 12.945C40.3746 12.8867 40.3504 12.8284 40.3258 12.7701C40.2817 12.6662 40.236 12.5633 40.1903 12.4599C40.1725 12.42 40.1552 12.3795 40.1373 12.3396C40.0759 12.2047 40.0134 12.0703 39.9493 11.937C39.9226 11.8813 39.8953 11.8262 39.868 11.7705C39.8265 11.6865 39.785 11.602 39.7425 11.5185C39.712 11.4582 39.6811 11.3983 39.6496 11.3379C39.6086 11.2587 39.5666 11.1794 39.5246 11.1006C39.4931 11.0413 39.4611 10.982 39.4291 10.9232C39.3823 10.8381 39.3346 10.7531 39.2868 10.6686C39.2584 10.6187 39.2306 10.5683 39.2023 10.5184C39.1288 10.3914 39.0542 10.2648 38.9781 10.1394C38.9471 10.0884 38.9156 10.038 38.8841 9.98764C38.8342 9.90679 38.7844 9.82646 38.7334 9.74666C38.6967 9.68891 38.6599 9.63221 38.6227 9.57499C38.5754 9.50201 38.5271 9.42904 38.4788 9.35659C38.4405 9.29936 38.4022 9.24214 38.3638 9.18544C38.3124 9.10984 38.2599 9.03476 38.2079 8.96021C38.1722 8.90876 38.1365 8.85731 38.0998 8.80639C38.0152 8.68774 37.9291 8.57014 37.8425 8.45306C35.5493 5.37919 32.4334 2.95526 28.8225 1.50469C28.6786 1.44694 28.5343 1.39129 28.3888 1.33669C28.3783 1.33249 28.3678 1.32881 28.3579 1.32461C28.2203 1.27316 28.0817 1.22329 27.9426 1.17446C27.9237 1.16816 27.9053 1.16134 27.8864 1.15451C27.7536 1.10831 27.6208 1.06421 27.4869 1.02064C27.4612 1.01224 27.4354 1.00384 27.4097 0.995437C27.2816 0.954487 27.153 0.915112 27.0238 0.876262C26.9913 0.866812 26.9587 0.856837 26.9262 0.847387C26.8023 0.811162 26.6779 0.775987 26.5534 0.741862C26.5146 0.731362 26.4757 0.720862 26.4364 0.710362C26.3167 0.678337 26.197 0.647362 26.0762 0.617437C26.0311 0.606412 25.9854 0.595387 25.9402 0.584362C25.8247 0.556537 25.7092 0.529237 25.5927 0.503512C25.5418 0.491962 25.4903 0.480937 25.4389 0.469912C25.327 0.445762 25.2157 0.422662 25.1034 0.400087C25.0462 0.388537 24.9889 0.378037 24.9312 0.367012C24.8241 0.346537 24.7165 0.326587 24.6083 0.308212C24.5448 0.297187 24.4807 0.287212 24.4172 0.276712C24.3143 0.259912 24.2114 0.243112 24.108 0.227887C24.0382 0.217387 23.9678 0.207937 23.8975 0.198487C23.7993 0.184837 23.7011 0.171187 23.6024 0.159112C23.5258 0.149662 23.4486 0.141262 23.3714 0.132862C23.278 0.122362 23.185 0.111862 23.0911 0.102412C23.0065 0.0940117 22.922 0.0871867 22.837 0.0798367C22.7498 0.0724867 22.6627 0.0640867 22.5755 0.0577867C22.481 0.0509617 22.386 0.0457117 22.291 0.0399367C22.2122 0.0352117 22.134 0.0294367 22.0552 0.0257617C21.9445 0.0205117 21.8326 0.0168367 21.7213 0.0131617C21.6578 0.0110617 21.5943 0.00791172 21.5302 0.00633672C21.3544 0.00213672 21.178 -0.000488281 21.001 -0.000488281C20.8241 -0.000488281 20.6477 0.00161172 20.4718 0.00633672C20.4078 0.00791172 20.3443 0.0110617 20.2802 0.0131617C20.1689 0.0168367 20.0576 0.0205117 19.9463 0.0257617C19.867 0.0294367 19.7888 0.0352117 19.7101 0.0399367C19.6156 0.0457117 19.5205 0.0509617 19.426 0.0577867C19.3384 0.0640867 19.2512 0.0724867 19.1641 0.0798367C19.0795 0.0871867 18.995 0.0940117 18.9105 0.102412C18.8165 0.111862 18.7231 0.122362 18.6296 0.132862C18.553 0.141262 18.4763 0.149662 18.3997 0.159112C18.3004 0.171187 18.2023 0.184837 18.1036 0.198487C18.0337 0.207937 17.9634 0.217387 17.8936 0.227887C17.7896 0.243112 17.6867 0.259912 17.5833 0.276712C17.5198 0.287212 17.4562 0.297187 17.3932 0.308212C17.2851 0.327112 17.177 0.347062 17.0693 0.367537C17.0121 0.378562 16.9554 0.389062 16.8987 0.400087C16.7858 0.422662 16.674 0.445762 16.5616 0.469912C16.5107 0.480937 16.4603 0.491962 16.4094 0.502987C16.2928 0.529237 16.1763 0.556012 16.0603 0.584362C16.0156 0.595387 15.971 0.605887 15.9264 0.616912C15.8051 0.646837 15.6849 0.678337 15.5641 0.710362C15.5258 0.720337 15.4875 0.730837 15.4497 0.741337C15.3242 0.775462 15.1993 0.811162 15.0743 0.847387C15.0428 0.856837 15.0113 0.866287 14.9798 0.875737C14.8496 0.914587 14.7199 0.954487 14.5908 0.995962C14.5661 1.00384 14.5414 1.01171 14.5168 1.02011C14.3818 1.06369 14.2469 1.10884 14.1136 1.15504C14.0962 1.16081 14.0794 1.16711 14.0621 1.17289C13.9214 1.22224 13.7812 1.27264 13.6421 1.32461C13.6337 1.32776 13.6253 1.33091 13.6174 1.33406C9.81382 2.76469 6.5352 5.26316 4.14908 8.46619C4.0656 8.57854 3.98317 8.69141 3.9018 8.80534C3.86347 8.85941 3.82568 8.91349 3.78787 8.96809C3.73747 9.04001 3.68707 9.11194 3.63772 9.18439C3.59783 9.24319 3.55845 9.30199 3.51907 9.36079C3.47182 9.43114 3.42562 9.50201 3.3789 9.57341C3.34057 9.63221 3.30278 9.69101 3.26498 9.75034C3.21615 9.82751 3.16785 9.90521 3.12007 9.98291C3.087 10.0365 3.05393 10.0895 3.02138 10.143C2.94578 10.268 2.87175 10.3929 2.79877 10.5195C2.76885 10.5709 2.73997 10.6234 2.71057 10.6754C2.66385 10.7583 2.61713 10.8408 2.57145 10.9242C2.5389 10.9841 2.50635 11.0445 2.47432 11.1043C2.43285 11.182 2.39138 11.2597 2.35095 11.3379C2.31945 11.3988 2.28795 11.4597 2.25697 11.5206C2.21498 11.6031 2.17403 11.686 2.1336 11.7695C2.10578 11.8257 2.07795 11.8818 2.05065 11.9385C1.98765 12.0703 1.9257 12.2026 1.86533 12.3354C1.8459 12.378 1.82753 12.4205 1.80862 12.463C1.76295 12.5654 1.7178 12.6678 1.67422 12.7707C1.64955 12.8289 1.6254 12.8877 1.60125 12.946C1.56502 13.0332 1.52932 13.1203 1.49415 13.2075C1.47 13.2684 1.44585 13.3293 1.4217 13.3907C1.38705 13.4799 1.35292 13.5697 1.31932 13.66C1.2978 13.7172 1.27627 13.7745 1.25528 13.8322C1.21327 13.9477 1.17285 14.0637 1.13242 14.1803C1.1214 14.2123 1.10985 14.2433 1.09935 14.2753C1.05052 14.4202 1.00327 14.5662 0.957075 14.7126C0.940275 14.7662 0.924525 14.8197 0.90825 14.8733C0.878325 14.9715 0.848925 15.0702 0.82005 15.1694C0.802725 15.2292 0.785925 15.2891 0.769125 15.3489C0.74235 15.4455 0.7161 15.5427 0.690375 15.6398C0.67515 15.6975 0.659925 15.7553 0.645225 15.8136C0.61635 15.927 0.58905 16.0409 0.56175 16.1548C0.5523 16.1958 0.5418 16.2367 0.53235 16.2777C0.497175 16.431 0.463575 16.5848 0.432075 16.7391C0.422625 16.7843 0.414225 16.8294 0.4053 16.8746C0.382725 16.9875 0.3612 17.0998 0.3402 17.2132C0.3297 17.271 0.319725 17.3287 0.30975 17.387C0.2919 17.4909 0.274575 17.5949 0.2583 17.6994C0.249375 17.7576 0.239925 17.8154 0.231525 17.8737C0.214725 17.9876 0.198975 18.1015 0.18375 18.216C0.17745 18.2627 0.170625 18.3094 0.16485 18.3567C0.1449 18.5168 0.126525 18.6774 0.109725 18.8386C0.106575 18.8691 0.104475 18.8995 0.101325 18.93C0.0882 19.0623 0.07665 19.1946 0.06615 19.3274C0.06195 19.3825 0.05775 19.4382 0.054075 19.4938C0.0462 19.6041 0.039375 19.7148 0.033075 19.8256C0.029925 19.8844 0.026775 19.9432 0.02415 20.0025C0.0189 20.1165 0.0147 20.2309 0.011025 20.3459C0.00945 20.3979 0.00735 20.4498 0.0063 20.5023C0.002625 20.6677 0 20.8336 0 21C0 21.1491 0.0021 21.2972 0.005775 21.4452C0.00735 21.5119 0.008925 21.5786 0.011025 21.6453C0.0126 21.7025 0.015225 21.7592 0.017325 21.8164C0.1617 25.5896 1.30148 29.1076 3.1815 32.1153C3.1815 32.1153 3.1815 32.1159 3.18202 32.1164C3.5385 32.686 3.92122 33.2378 4.32862 33.7691C4.33072 33.7722 4.33282 33.7749 4.33545 33.778C4.73865 34.3035 5.16652 34.8091 5.61697 35.2937C5.62747 35.3047 5.63797 35.3163 5.64847 35.3273C5.73405 35.4192 5.82015 35.51 5.9073 35.6003C5.91097 35.604 5.91465 35.6076 5.91832 35.6113C6.18922 35.8911 6.468 36.1631 6.75413 36.4272C6.76305 36.4356 6.77197 36.444 6.78142 36.4524C6.86595 36.5306 6.95152 36.6072 7.03762 36.6839C7.06125 36.7049 7.08488 36.7259 7.1085 36.7469C7.1925 36.8209 7.27703 36.8944 7.36208 36.9674C7.3815 36.9842 7.40197 37.001 7.4214 37.0178C7.69335 37.2488 7.97108 37.4724 8.25458 37.6893C8.28293 37.7108 8.31128 37.7328 8.33963 37.7544C8.42048 37.8158 8.50238 37.8762 8.58428 37.936C8.62313 37.9644 8.66145 37.9927 8.7003 38.0211C8.78062 38.0793 8.86095 38.1366 8.9418 38.1938C8.9796 38.2206 9.01792 38.2468 9.05625 38.2731C9.32557 38.4594 9.59963 38.64 9.87788 38.8143C9.9246 38.8437 9.97132 38.8731 10.0186 38.902C10.0957 38.9493 10.1735 38.996 10.2512 39.0427C10.3036 39.0742 10.3561 39.1052 10.4092 39.1362C10.4858 39.1808 10.5625 39.2254 10.6402 39.2695C10.6948 39.3005 10.7494 39.3309 10.8045 39.3614C11.0733 39.511 11.3463 39.6549 11.6219 39.7929C11.6828 39.8234 11.7437 39.8538 11.8046 39.8838C11.8802 39.9205 11.9563 39.9567 12.0325 39.993C12.0949 40.0224 12.1579 40.0518 12.2204 40.0806C12.2965 40.1158 12.3727 40.1505 12.4493 40.1846C12.5139 40.2135 12.579 40.2413 12.6436 40.2696C12.7192 40.3027 12.7948 40.3358 12.8709 40.3678C12.8709 40.3678 12.8709 40.3678 12.8714 40.3678C15.372 41.4183 18.1183 41.9995 21 41.9995C23.8817 41.9995 26.554 41.433 29.0272 40.4093C29.0272 40.4093 29.0272 40.4093 29.0278 40.4093C29.1548 40.3568 29.2813 40.3027 29.4074 40.2476C29.42 40.2418 29.4331 40.2366 29.4457 40.2308C29.569 40.1767 29.6919 40.1211 29.8137 40.0649C29.8242 40.0602 29.8347 40.0554 29.8447 40.0502C30.4867 39.7515 31.1115 39.4212 31.7163 39.0616C31.7289 39.0543 31.7415 39.0464 31.7546 39.039C31.8628 38.9745 31.9704 38.9088 32.0775 38.8422C32.0995 38.8285 32.1216 38.8149 32.1437 38.8007C32.2476 38.7356 32.351 38.6694 32.4539 38.6028C32.4749 38.5891 32.4959 38.5749 32.5174 38.5608C32.623 38.4915 32.7285 38.4216 32.8325 38.3502C32.8367 38.3471 32.8408 38.3445 32.845 38.3413C33.1831 38.1098 33.5139 37.8688 33.8373 37.6189C33.8541 37.6058 33.8709 37.5932 33.8877 37.5801C33.9748 37.5123 34.0615 37.443 34.147 37.3743C34.1817 37.3464 34.2169 37.3181 34.2515 37.2903C34.3313 37.2252 34.4106 37.1595 34.4888 37.0934C34.5287 37.0598 34.5686 37.0262 34.6085 36.9926C34.6841 36.928 34.7597 36.8634 34.8343 36.7978C34.8757 36.7616 34.9162 36.7254 34.9571 36.6886C35.0306 36.623 35.1041 36.5579 35.1766 36.4912C35.2149 36.456 35.2522 36.4209 35.29 36.3857C35.4464 36.2403 35.6008 36.0927 35.7525 35.9431C35.7735 35.9221 35.795 35.9016 35.816 35.8806C35.8769 35.8203 35.9362 35.7588 35.9966 35.6974C36.0465 35.6465 36.0964 35.5961 36.1457 35.5446C36.2019 35.4858 36.2575 35.4265 36.3132 35.3677C36.3652 35.3121 36.4171 35.2564 36.4686 35.2002C36.5216 35.1425 36.5741 35.0842 36.6266 35.0259C36.6802 34.9661 36.7337 34.9062 36.7862 34.8459C36.8356 34.7897 36.8849 34.733 36.9338 34.6763C36.9904 34.6107 37.0461 34.544 37.1017 34.4778C37.1459 34.4248 37.1905 34.3723 37.2346 34.3193C37.3044 34.2342 37.3732 34.1487 37.4414 34.0626C37.4698 34.0269 37.4992 33.9912 37.5275 33.9549C37.622 33.8347 37.7149 33.7134 37.8063 33.5911C37.8399 33.5465 37.873 33.5008 37.9061 33.4557C37.9664 33.3738 38.0268 33.2913 38.0861 33.2084C38.1229 33.1575 38.1586 33.106 38.1948 33.0546C38.2499 32.9758 38.305 32.8971 38.3591 32.8178C38.3948 32.7653 38.4305 32.7123 38.4662 32.6592C38.5203 32.5784 38.5738 32.497 38.6269 32.4156C38.66 32.3647 38.6936 32.3133 38.7261 32.2618C38.7828 32.1726 38.839 32.0823 38.8946 31.992C38.9219 31.9479 38.9492 31.9038 38.9765 31.8597C39.0568 31.7268 39.1361 31.5935 39.2133 31.4591C39.2149 31.457 39.2159 31.4549 39.2175 31.4523C40.8597 28.5957 41.8483 25.3155 41.9821 21.8164C41.9842 21.7592 41.9869 21.7025 41.9884 21.6453C41.9905 21.5786 41.9921 21.5119 41.9937 21.4452C41.9968 21.2972 41.9995 21.1486 41.9995 21C41.9995 20.8336 41.9968 20.6677 41.9932 20.5023ZM21.8568 6.56621L27.1556 2.71639C27.6108 2.86969 28.0612 3.04084 28.5059 3.22879C30.8023 4.20004 32.865 5.59076 34.6369 7.36264C35.6034 8.32916 36.456 9.38336 37.1894 10.5137L35.3404 16.3527L29.8284 18.1624L21.8568 12.3711V6.56621ZM7.3626 7.36264C9.13447 5.59076 11.1972 4.20004 13.4935 3.22879C13.9387 3.04031 14.3887 2.86969 14.8444 2.71639L20.1432 6.56621V12.3711L12.1291 18.1939L6.66855 16.3811L4.81057 10.5147C5.544 9.38389 6.3966 8.33021 7.36312 7.36369L7.3626 7.36264ZM10.7331 33.3113L5.502 32.4828C4.59007 31.2554 3.82882 29.9256 3.22875 28.506C2.24542 26.1818 1.73775 23.7148 1.71623 21.1712L6.1362 18.0102L11.5999 19.8246L14.6947 29.3502L10.7331 33.3118V33.3113ZM29.3464 38.3912C29.0698 38.524 28.7899 38.6505 28.5059 38.7702C26.1292 39.7756 23.604 40.2854 20.9995 40.2854C18.3949 40.2854 15.8697 39.7756 13.493 38.7702C13.1738 38.6353 12.8594 38.4915 12.5496 38.3403L11.9448 34.523L16.2167 30.2511H26.3812L30.0536 33.9229L29.3459 38.3907L29.3464 38.3912ZM38.7707 28.506C38.2788 29.6688 37.6792 30.7713 36.9773 31.8066L31.2664 32.7112L27.4522 28.8971L30.4164 19.7736L35.8396 17.9928L40.2832 21.1712C40.2612 23.7148 39.7535 26.1818 38.7707 28.506Z" fill="black"/>
</svg>
