<svg width="20" height="16" viewBox="0 0 20 16" fill="none" xmlns="http://www.w3.org/2000/svg">
<path d="M10.0186 8.88466C10.3538 8.88466 10.689 8.75149 11.0428 8.39001L18.8827 0.3805C18.622 0.171225 18.0819 0 17.3184 0H2.70019C1.93669 0 1.39665 0.171225 1.15456 0.3805L8.99441 8.39001C9.36685 8.77051 9.70205 8.88466 10.0186 8.88466ZM6.4432 7.99049L0.204842 1.61712C0.0744883 1.84542 0 2.32105 0 2.98692V13.0131C0 13.679 0.0558661 14.1356 0.18622 14.3829L6.4432 7.99049ZM13.5382 7.99049L19.7952 14.3829C19.9255 14.1356 20 13.679 20 13.0131V2.98692C20 2.32105 19.9255 1.84542 19.7952 1.61712L13.5382 7.99049ZM10 10.4447C9.34823 10.4447 8.80819 10.1974 8.1378 9.55053L7.57914 9.03686L1.13594 15.6195C1.39665 15.8478 1.91806 16 2.70019 16H17.3184C18.1006 16 18.622 15.8478 18.8827 15.6195L12.4209 9.03686L11.8808 9.55053C11.1918 10.1974 10.6704 10.4447 10 10.4447Z" fill="#F8F8F8"/>
</svg>
