<svg width="96" height="96" viewBox="0 0 96 96" fill="none" xmlns="http://www.w3.org/2000/svg">
<circle cx="48" cy="48" r="48" fill="#13AB7B"/>
<path d="M61.8215 32.2758C63.0109 32.2758 64.056 32.2826 65.0987 32.2758C66.0693 32.2668 66.5388 32.716 66.5388 33.7091C66.532 45.3286 66.532 56.9503 66.5388 68.5698C66.5388 69.5742 66.0467 69.9941 65.0875 69.9918C56.4315 69.9873 47.7778 70.0257 39.1219 69.967C36.1109 69.9467 33.9554 67.6535 33.8832 64.6222C33.8674 63.9744 33.741 63.6629 33.0345 63.4643C30.6511 62.7962 29.1659 60.7806 29.1614 58.282C29.1478 48.0484 29.1523 37.8147 29.1569 27.5811C29.1591 26.3307 29.4932 26.0034 30.7774 26.0034C40.5958 25.9989 50.4119 25.9989 60.2279 26.0034C61.4964 26.0034 61.8079 26.3284 61.8192 27.6104C61.8327 29.1046 61.8215 30.5988 61.8215 32.2758ZM36.0726 34.5352V35.7247C36.0726 45.139 36.0726 54.5533 36.0726 63.9676C36.0726 66.6491 37.2147 67.7776 39.9164 67.7776C47.6402 67.7776 55.3617 67.7776 63.0854 67.7776H64.2298V34.5352H36.0726ZM59.5802 28.2898H31.4207C31.4027 28.6306 31.3756 28.8902 31.3756 29.1498C31.3733 38.7853 31.3733 48.4185 31.3756 58.0541C31.3756 58.3543 31.3756 58.6567 31.4252 58.9501C31.6374 60.2164 32.5899 61.1214 33.8674 61.223C33.8674 60.7739 33.8674 60.3292 33.8674 59.8846C33.8674 51.4882 33.8674 43.0896 33.8674 34.6932C33.8674 32.3187 33.908 32.2758 36.2283 32.2758C43.5729 32.2758 50.9175 32.2758 58.2598 32.2758C58.6909 32.2758 59.1242 32.2758 59.5802 32.2758V28.2898Z" fill="white"/>
<path d="M50.0963 46.7776C47.4352 46.7776 44.7718 46.7821 42.1107 46.7776C40.4992 46.7731 40.2441 46.509 40.2419 44.8613C40.2396 42.611 40.2351 40.3607 40.2419 38.1104C40.2464 36.711 40.5556 36.4017 41.9753 36.3995C47.4487 36.3927 52.9222 36.3927 58.3956 36.3995C59.8289 36.3995 60.1449 36.7065 60.1494 38.09C60.1584 40.4532 60.1607 42.8164 60.1494 45.1796C60.1426 46.4345 59.8018 46.7731 58.5311 46.7798C55.7187 46.7934 52.9086 46.7844 50.0963 46.7844V46.7798V46.7776ZM42.5215 44.4844H57.8675V38.6543H42.5215V44.4844Z" fill="white"/>
<path d="M50.1908 55.6774C47.2295 55.6774 44.2704 55.6661 41.3091 55.6842C40.5033 55.6887 39.8195 55.5216 39.8262 54.585C39.833 53.6437 40.5395 53.4925 41.3317 53.4948C47.252 53.5038 53.1724 53.5038 59.0927 53.4948C59.8963 53.4948 60.5824 53.6799 60.5734 54.612C60.5644 55.5487 59.8692 55.6954 59.0679 55.6887C56.1089 55.6684 53.1476 55.6796 50.1863 55.6796L50.1908 55.6774Z" fill="white"/>
<path d="M50.2065 60.1554C47.2452 60.1554 44.2839 60.1441 41.3226 60.1621C40.5169 60.1667 39.833 59.9951 39.8262 59.0674C39.8217 58.142 40.5033 57.9412 41.3091 57.9412C47.2317 57.9502 53.1543 57.9502 59.0769 57.9412C59.8759 57.9412 60.5711 58.1262 60.5734 59.0516C60.5779 59.9771 59.903 60.1667 59.0905 60.1621C56.1292 60.1418 53.1678 60.1554 50.2065 60.1531V60.1554Z" fill="white"/>
<path d="M50.0975 51.2173C47.3258 51.2173 44.5518 51.2173 41.7801 51.2173C41.5183 51.2173 41.2565 51.2128 40.9924 51.2128C40.2746 51.2128 39.8232 50.8517 39.8164 50.143C39.8119 49.4387 40.234 49.0505 40.9653 49.0528C41.3783 49.0528 41.7891 49.0505 42.2022 49.0505C47.635 49.0505 53.0678 49.0505 58.5006 49.0505C58.7263 49.0505 58.9498 49.0618 59.1755 49.0505C59.9542 49.0054 60.5636 49.2672 60.5726 50.1226C60.5817 50.9758 59.988 51.2286 59.2003 51.2264C56.1645 51.2128 53.131 51.2196 50.0952 51.2218L50.0975 51.2173Z" fill="white"/>
</svg>
