<svg width="96" height="96" viewBox="0 0 96 96" fill="none" xmlns="http://www.w3.org/2000/svg">
<circle cx="48" cy="48" r="48" fill="#13AB7B"/>
<path d="M47.767 26.0013C54.1607 26.0013 60.5539 25.998 66.9476 26.0026C69.8664 26.0045 72.3431 27.7851 73.1873 30.528C73.3768 31.1441 73.4831 31.8111 73.4851 32.4556C73.5044 41.0148 73.5057 49.5739 73.4941 58.1337C73.4896 61.7266 70.6095 64.5836 67.0108 64.5874C60.6602 64.5945 54.3096 64.5894 47.959 64.5894C41.4796 64.5894 35.0001 64.5919 28.5207 64.5881C25.3035 64.5861 22.6418 62.3498 22.0947 59.1887C22.029 58.8104 22.0058 58.4212 22.0051 58.0364C22 49.5417 21.998 41.047 22.0025 32.5516C22.0038 28.8543 24.8517 26.0064 28.5535 26.0032C34.9576 25.9974 41.3623 26.0013 47.7664 26.0013H47.767ZM47.7167 61.3039C54.0995 61.3039 60.4817 61.3058 66.8645 61.3026C68.8668 61.3019 70.2144 59.9486 70.2157 57.9475C70.217 55.1802 70.2157 52.4135 70.215 49.6461C70.2138 43.9619 70.2105 38.2771 70.215 32.5929C70.215 31.8485 70.0365 31.1686 69.5873 30.5738C68.8874 29.647 67.9375 29.2694 66.7884 29.27C54.1092 29.2764 41.43 29.2745 28.7501 29.2745C28.6534 29.2745 28.5567 29.2745 28.4607 29.2764C26.6846 29.3061 25.2938 30.684 25.2925 32.4575C25.2861 41.0167 25.29 49.5752 25.29 58.1344C25.29 58.717 25.4356 59.2628 25.7456 59.7546C26.4133 60.8141 27.387 61.3071 28.6347 61.3065C34.9956 61.3026 41.3571 61.3045 47.718 61.3045L47.7167 61.3039Z" fill="white"/>
<path d="M47.7365 66.1223C52.53 66.1223 57.3242 66.121 62.1178 66.1236C63.1495 66.1236 63.8739 66.8493 63.8378 67.8302C63.8101 68.5771 63.2462 69.2325 62.5096 69.3576C62.3208 69.3898 62.1255 69.3982 61.9334 69.3982C52.4746 69.4001 43.0158 69.4001 33.557 69.3994C32.5548 69.3994 31.9232 68.9857 31.699 68.1878C31.4244 67.2115 32.1198 66.2087 33.1303 66.1294C33.2798 66.1178 33.4306 66.1223 33.5808 66.1223C38.2996 66.1223 43.0184 66.1223 47.7365 66.1223Z" fill="white"/>
<path d="M54.5818 48.112C54.674 47.9393 54.7352 47.8297 54.7926 47.7183C55.8778 45.6128 56.9612 43.506 58.0484 41.4012C58.3996 40.7219 59.0009 40.39 59.7298 40.4577C60.3685 40.5176 60.935 40.9984 61.1141 41.6371C61.2501 42.1198 61.1457 42.5632 60.9201 43.0001C59.503 45.7423 58.0929 48.4884 56.6802 51.2332C56.4695 51.6431 56.2665 52.0575 56.0441 52.4609C55.7283 53.0338 55.2372 53.3451 54.5792 53.3419C53.9354 53.3387 53.436 53.039 53.1421 52.4706C51.4813 49.263 49.8263 46.0517 48.1823 42.8358C47.7498 41.9896 48.0824 41.0255 48.9047 40.6149C49.7238 40.2063 50.6673 40.5254 51.1133 41.3851C52.1986 43.479 53.2723 45.578 54.3511 47.6751C54.4143 47.7975 54.48 47.9193 54.5825 48.112H54.5818Z" fill="white"/>
<path d="M38.0674 43.721C37.8896 43.721 37.762 43.721 37.635 43.721C36.7128 43.7203 35.7899 43.7345 34.8677 43.7139C33.9338 43.6926 33.2404 42.9669 33.2481 42.0602C33.2558 41.1669 33.9512 40.4548 34.8741 40.4516C38.0919 40.4413 41.3104 40.4413 44.5282 40.4516C45.4633 40.4548 46.1606 41.1785 46.1574 42.0892C46.1548 42.9792 45.4601 43.6991 44.545 43.7177C43.5905 43.7377 42.6354 43.7326 41.681 43.719C41.4141 43.7152 41.3349 43.7951 41.3355 44.0625C41.3445 46.5508 41.3368 49.0391 41.3439 51.5274C41.3452 52.0694 41.2176 52.5521 40.7993 52.9162C40.2844 53.3648 39.6921 53.4782 39.0625 53.205C38.409 52.9214 38.0713 52.4013 38.07 51.6866C38.0655 49.1873 38.0674 46.6887 38.0674 44.1895C38.0674 44.0522 38.0674 43.915 38.0674 43.7216V43.721Z" fill="white"/>
</svg>
