<svg width="96" height="96" viewBox="0 0 96 96" fill="none" xmlns="http://www.w3.org/2000/svg">
<circle cx="48" cy="48" r="48" fill="#13AB7B"/>
<path d="M58.8094 27C58.4449 27.0828 58.0791 27.1583 57.7172 27.2498C54.9297 27.9557 52.7807 30.3412 52.3524 33.1942C52.2074 34.1619 52.2366 35.1215 52.4854 36.0679C52.5433 36.2882 52.508 36.4038 52.3058 36.522C48.6417 38.6597 44.9815 40.8035 41.3247 42.9526C41.1384 43.0621 41.0314 43.0494 40.8731 42.9025C36.9229 39.2287 30.7147 40.7821 28.9415 45.883C27.7629 49.2743 29.3938 53.2158 32.6183 54.7646C35.4929 56.1456 38.6123 55.6541 40.9416 53.4436C41.0985 53.2947 41.2063 53.288 41.3939 53.3948C45.0101 55.4591 48.6304 57.5167 52.2539 59.5683C52.4648 59.6878 52.514 59.8007 52.4615 60.0405C51.9713 62.2744 52.4149 64.3079 53.7771 66.1465C56.0451 69.2065 60.6211 69.9351 63.7046 67.6985C65.9907 66.0409 67.0602 63.771 66.8187 60.9587C66.5533 57.8673 64.3372 55.3108 61.3222 54.5822C58.7588 53.9632 56.4774 54.5876 54.5373 56.3894C54.3424 56.5704 54.218 56.6018 53.9799 56.4655C50.4129 54.4266 46.8412 52.3964 43.2648 50.3742C42.9981 50.2233 42.8917 50.085 42.9728 49.7571C43.2489 48.6485 43.215 47.5332 42.9276 46.4293C42.8764 46.2316 42.919 46.1328 43.0939 46.0306C46.776 43.8802 50.4548 41.7244 54.1316 39.5646C54.2985 39.4665 54.393 39.4925 54.528 39.6194C56.3657 41.3364 58.536 41.9448 60.9949 41.5154C63.9228 41.0038 66.3864 38.3792 66.7775 35.3853C67.2471 31.7884 65.2597 28.55 61.845 27.3833C61.3361 27.2097 60.7967 27.1256 60.2713 27H58.8094ZM59.5131 57.9241C61.5822 57.9054 63.3129 59.5803 63.3049 61.6633C63.2969 63.7336 61.7046 65.3945 59.5756 65.4312C57.5423 65.4666 55.8356 63.7616 55.8137 61.6933C55.7917 59.6638 57.4818 57.9428 59.5137 57.9241H59.5131ZM59.539 38.0814C57.5217 38.0854 55.8216 36.3784 55.8117 34.3382C55.8017 32.2886 57.4911 30.5863 59.5483 30.5743C61.5882 30.5622 63.3102 32.2485 63.3029 34.3161C63.2949 36.4211 61.6428 38.072 59.5397 38.0814H59.539ZM35.9798 44.4539C36.8531 44.4519 37.7224 44.8178 38.4507 45.509C39.2828 46.2984 39.6413 47.2968 39.5934 48.4268C39.5122 50.3475 37.8833 51.9356 35.9106 51.961C33.8514 51.9877 32.1214 50.3141 32.1194 48.2251C32.1174 46.1475 33.749 44.4819 35.9798 44.4532V44.4539Z" fill="white"/>
</svg>
