<svg width="39" height="32" viewBox="0 0 39 32" fill="none" xmlns="http://www.w3.org/2000/svg">
<path fill-rule="evenodd" clip-rule="evenodd" d="M3.13715 13.8818C13.2059 9.58087 19.92 6.74546 23.2794 5.37553C32.8712 1.4641 34.8643 0.784638 36.1634 0.762202C36.4491 0.757268 37.0879 0.82669 37.5018 1.1559C37.8512 1.43388 37.9473 1.80938 37.9933 2.07294C38.0393 2.33649 38.0966 2.93687 38.0511 3.40599C37.5313 8.76044 35.2822 21.7543 34.138 27.7514C33.6538 30.2889 32.7005 31.1398 31.7776 31.2231C29.7719 31.404 28.2488 29.9235 26.3061 28.675C23.2663 26.7213 21.5489 25.5052 18.5982 23.5988C15.1882 21.3956 17.3988 20.1847 19.3421 18.2058C19.8507 17.6879 28.6881 9.80706 28.8591 9.09215C28.8805 9.00274 28.9003 8.66945 28.6984 8.49346C28.4964 8.31748 28.1984 8.37766 27.9833 8.42552C27.6784 8.49336 22.8222 11.6403 13.4146 17.8663C12.0362 18.7943 10.7876 19.2464 9.669 19.2227C8.43579 19.1966 6.06358 18.5391 4.30009 17.9771C2.13709 17.2878 0.417985 16.9233 0.567681 15.7526C0.645651 15.1428 1.50214 14.5192 3.13715 13.8818Z" fill="white"/>
</svg>
