<svg width="34" height="21" viewBox="0 0 34 21" fill="none" xmlns="http://www.w3.org/2000/svg">
<path d="M33.6857 18.1848C33.6857 18.052 33.5529 18.052 33.5529 17.9191C33.0215 16.8564 31.826 15.5281 30.232 14.0669C29.4349 13.4027 29.0364 12.8713 28.7707 12.6057C28.3722 12.0743 28.3723 11.6758 28.5051 11.1445C28.6379 10.746 29.1693 10.0818 30.0991 8.88623C30.6305 8.22205 30.8961 7.82355 31.2946 7.42504C33.2872 4.7683 34.217 3.04141 33.9514 2.24439L33.8186 2.11157C33.6857 1.97873 33.5529 1.8459 33.2872 1.8459C33.0215 1.71306 32.623 1.71306 32.2245 1.8459H27.1767C27.0439 1.8459 27.0439 1.8459 26.7782 1.8459C26.6454 1.8459 26.5125 1.8459 26.5125 1.8459H26.3797H26.2469L26.114 1.97873C25.9812 2.11156 25.9812 2.11156 25.9812 2.24439C25.4498 3.7056 24.7856 4.90113 24.1215 6.2295C23.723 6.89368 23.3245 7.55787 22.9259 8.08922C22.5274 8.62057 22.2617 9.01907 21.9961 9.28474C21.7304 9.55042 21.4647 9.68325 21.3319 9.94893C21.199 10.0818 20.9334 10.2146 20.9334 10.0818C20.8006 10.0818 20.6677 10.0818 20.6677 9.94893C20.5349 9.81609 20.402 9.68325 20.2692 9.55041C20.1364 9.41758 20.1364 9.1519 20.0035 8.88623C20.0035 8.62056 20.0035 8.35488 20.0035 8.22205C20.0035 8.08921 20.0035 7.69071 20.0035 7.42504C20.0035 7.02653 20.0035 6.76085 20.0035 6.62801C20.0035 6.2295 20.0035 5.69816 20.0035 5.16682C20.0035 4.63547 20.0035 4.23695 20.0035 3.97128C20.0035 3.7056 20.0035 3.3071 20.0035 3.04142C20.0035 2.64291 20.0035 2.37723 20.0035 2.24439C20.0035 2.11156 19.8707 1.84589 19.8707 1.71306C19.7379 1.58022 19.605 1.44738 19.4722 1.31454C19.3393 1.18171 19.0737 1.18171 18.9408 1.04887C18.2767 0.916036 17.4797 0.783203 16.5498 0.783203C14.4244 0.783203 12.9632 0.916044 12.4319 1.18172C12.1662 1.31455 11.9005 1.44738 11.7677 1.71306C11.502 1.97873 11.502 2.11157 11.6348 2.11157C12.299 2.24441 12.8304 2.51007 13.096 2.90858L13.2289 3.17427C13.3617 3.3071 13.3617 3.57277 13.4945 3.97128C13.6274 4.36979 13.6274 4.7683 13.6274 5.29964C13.6274 6.09666 13.6274 6.89369 13.6274 7.42504C13.6274 8.08922 13.4945 8.48772 13.4945 8.88623C13.4945 9.28474 13.3617 9.55042 13.2289 9.68326C13.096 9.94893 13.096 10.0818 12.9632 10.0818C12.9632 10.0818 12.9632 10.2146 12.8303 10.2146C12.6975 10.2146 12.5647 10.3474 12.299 10.3474C12.1662 10.3474 11.9005 10.2146 11.7677 10.0818C11.502 9.94894 11.2363 9.68326 11.1035 9.41759C10.8378 9.15192 10.5721 8.75339 10.3065 8.22205C10.0408 7.6907 9.64226 7.15936 9.37658 6.36234L9.11094 5.831C8.9781 5.56533 8.71243 5.03397 8.44675 4.36979C8.18108 3.70561 7.9154 3.17427 7.64972 2.51008C7.51689 2.24441 7.38407 2.11156 7.25123 1.97873H7.11838C7.11838 1.97873 6.98553 1.8459 6.8527 1.8459C6.71986 1.8459 6.58704 1.71306 6.4542 1.71306H1.67207C1.14073 1.71306 0.875056 1.84589 0.74222 1.97873L0.609375 2.11157C0.609375 2.11157 0.609375 2.2444 0.609375 2.37724C0.609375 2.51008 0.609383 2.6429 0.74222 2.90858C1.4064 4.50262 2.20342 6.09667 3.00044 7.69071C3.79746 9.15191 4.59449 10.4803 5.12583 11.4101C5.79002 12.34 6.32136 13.2699 6.98554 14.0669C7.64972 14.8639 8.04823 15.3952 8.18106 15.6609C8.44674 15.9266 8.57956 16.0594 8.7124 16.1922L9.11094 16.5908C9.37661 16.8564 9.77511 17.2549 10.3065 17.6535C10.8378 18.052 11.502 18.4505 12.1662 18.849C12.8303 19.2475 13.6274 19.5132 14.4244 19.7789C15.3543 20.0445 16.1513 20.1774 16.9483 20.0445H18.9408C19.3394 20.0445 19.605 19.9117 19.8707 19.646L20.0035 19.5132C20.0035 19.3803 20.1364 19.3803 20.1364 19.2475C20.1364 19.1147 20.1364 18.9818 20.1364 18.7162C20.1364 18.1848 20.1364 17.7863 20.2692 17.3878C20.402 16.9893 20.4021 16.7236 20.5349 16.4579C20.6677 16.1923 20.8006 16.0594 20.9334 15.9266C21.0662 15.7937 21.1991 15.6609 21.1991 15.6609H21.3319C21.5976 15.5281 21.9961 15.6609 22.2618 15.9266C22.6603 16.1923 23.0588 16.5908 23.3244 16.9893C23.5901 17.3878 23.9887 17.7863 24.52 18.3176C25.0513 18.849 25.4498 19.2475 25.7155 19.3803L26.114 19.646C26.3797 19.7788 26.6454 19.9117 27.0439 20.0445C27.4424 20.1774 27.708 20.1773 27.9737 20.1773L32.4902 20.0445C32.8887 20.0445 33.2872 19.9117 33.5529 19.7789C33.8186 19.646 33.9514 19.5132 33.9514 19.2475C33.9514 19.1147 33.9514 18.849 33.9514 18.7162C33.6857 18.4505 33.6857 18.3176 33.6857 18.1848Z" fill="white"/>
</svg>
