<svg width="96" height="96" viewBox="0 0 96 96" fill="none" xmlns="http://www.w3.org/2000/svg">
<circle cx="48" cy="48" r="48" fill="#13AB7B"/>
<path d="M69.0049 39.2419V61.7189C68.9811 61.7658 68.9474 61.8101 68.9351 61.8603C68.4395 63.846 66.9732 65 64.9414 65C53.6112 65 42.2803 65 30.9501 65C28.7301 65 27.0049 63.2732 27.0041 61.0507C27.0049 54.0529 27.0107 47.0551 27 40.0573C26.9984 38.7027 27.5129 37.6252 28.5559 36.7803C29.7132 35.8433 30.8712 34.9063 32.0162 33.9545C32.1395 33.8518 32.2389 33.6488 32.2438 33.4893C32.2669 32.697 32.2545 31.9038 32.2545 31.1115C32.2545 28.8019 33.9518 27.094 36.2556 27.0882C37.5674 27.0849 38.88 27.0981 40.1918 27.0767C40.4129 27.0734 40.6751 26.9838 40.8444 26.8441C42.7907 25.2356 44.6869 23.549 47.2669 23C47.7592 23 48.2515 23 48.743 23C49.5189 23.2844 50.326 23.503 51.0633 23.8655C52.6077 24.6249 53.8734 25.7879 55.1934 26.8688C55.3447 26.9929 55.5773 27.0759 55.7729 27.0784C57.1389 27.0964 58.5049 27.0767 59.871 27.0907C62.0458 27.1121 63.7537 28.8488 63.7545 31.0211C63.7545 31.8274 63.7636 32.6329 63.7496 33.4392C63.7455 33.6792 63.8129 33.8329 64.0069 33.9874C65.1814 34.9244 66.3658 35.8507 67.4959 36.8395C67.9471 37.234 68.2989 37.7575 68.6343 38.263C68.8225 38.5466 68.8858 38.9131 69.0049 39.2427V39.2419ZM32.2323 37.197C31.5732 37.7312 30.9764 38.2449 30.3469 38.7159C29.8282 39.1038 29.6227 39.5896 29.6236 40.2299C29.6334 47.0781 29.6293 53.9263 29.6301 60.7745C29.6301 61.8759 30.1307 62.3748 31.2362 62.3748C42.4036 62.3756 53.5718 62.3748 64.7392 62.3748C64.9027 62.3748 65.0688 62.3773 65.2299 62.3534C65.9803 62.2433 66.3789 61.6934 66.3789 60.7679C66.3797 55.0951 66.3789 49.423 66.3789 43.7501C66.3789 42.5477 66.3995 41.3436 66.3658 40.1419C66.3567 39.8049 66.2918 39.3668 66.0764 39.1564C65.3721 38.4677 64.5863 37.8627 63.7537 37.1592V37.6852C63.7537 39.5173 63.771 41.3485 63.743 43.1797C63.7356 43.6868 63.8441 44.0773 64.1984 44.4578C64.7852 45.0882 64.7096 45.6274 64.043 46.16C61.0759 48.5312 58.0997 50.8918 55.1441 53.2778C53.8792 54.2986 52.6562 55.3679 51.2359 56.1816C49.1285 57.389 47.0121 57.4753 44.8973 56.2458C44.109 55.7871 43.3323 55.289 42.6197 54.7219C39.1652 51.9751 35.7477 49.1814 32.2874 46.4427C31.2082 45.5888 31.1638 45.0849 32.0786 44.0756C32.1756 43.9688 32.2463 43.7937 32.2471 43.6499C32.2578 41.586 32.2545 39.5222 32.2537 37.4575C32.2537 37.3951 32.2438 37.3318 32.2323 37.1978V37.197ZM47.9967 29.7266C44.1699 29.7266 40.343 29.7266 36.5162 29.7266C35.3532 29.7266 34.8806 30.2 34.8797 31.3712C34.8789 35.8268 34.8814 40.2816 34.874 44.7373C34.874 45.0093 34.9545 45.1803 35.169 45.3512C37.9652 47.586 40.7532 49.8307 43.5411 52.0753C44.5414 52.8808 45.5425 53.683 46.7343 54.2041C47.5553 54.5625 48.3962 54.6315 49.1877 54.2115C50.0392 53.7595 50.8956 53.2803 51.6501 52.686C54.7521 50.2433 57.817 47.7537 60.8869 45.2707C61.0118 45.1696 61.1186 44.9608 61.1195 44.8022C61.1318 40.2784 61.1318 35.7545 61.1277 31.2307C61.1269 30.2304 60.6025 29.7258 59.5997 29.7258C55.7318 29.7258 51.8638 29.7258 47.9967 29.7258V29.7266ZM51.0921 27.0611C49.4277 25.2882 46.2797 25.2981 44.9482 27.0611H51.0921Z" fill="white"/>
<path d="M47.9642 35.6329C45.7368 35.6329 43.5094 35.6329 41.282 35.6329C40.4905 35.6329 40.1322 35.2737 40.1305 34.4871C40.1305 34.3096 40.1264 34.1321 40.1313 33.9545C40.1469 33.4187 40.5193 33.0348 41.0568 32.9987C41.1793 32.9904 41.3026 32.9954 41.4259 32.9954C45.8264 32.9954 50.2261 32.9954 54.6267 32.9954C55.5645 32.9954 55.8883 33.3126 55.8768 34.2414C55.8735 34.511 55.8809 34.7987 55.7897 35.0436C55.6302 35.4726 55.2653 35.6362 54.81 35.6354C52.5275 35.6304 50.2459 35.6329 47.9634 35.6329H47.9642Z" fill="white"/>
<path d="M48.0093 38.2441C50.2366 38.2441 52.464 38.2441 54.6914 38.2441C55.5413 38.2441 55.8849 38.5885 55.8824 39.4309C55.8824 39.5953 55.8865 39.7589 55.8816 39.9224C55.8643 40.455 55.4846 40.8495 54.9545 40.88C54.7498 40.8915 54.5443 40.8824 54.3397 40.8824C50.0082 40.8824 45.6758 40.8824 41.3443 40.8824C40.4682 40.8824 40.1336 40.5479 40.1328 39.6726C40.1328 39.5632 40.1328 39.4539 40.1328 39.3446C40.1353 38.6156 40.5043 38.2457 41.2457 38.2449C43.5002 38.2424 45.7556 38.2441 48.0101 38.2441H48.0093Z" fill="white"/>
<path d="M48.0016 43.4946C50.2019 43.4946 52.4021 43.5184 54.6016 43.4822C55.4178 43.4691 55.9791 43.8718 55.8813 44.7595C55.8575 44.9757 55.8953 45.2025 55.8484 45.4113C55.7474 45.8658 55.3397 46.1321 54.7915 46.1329C52.3043 46.1346 49.8172 46.1329 47.3301 46.1329C45.3074 46.1329 43.2854 46.1338 41.2627 46.1329C40.4967 46.1329 40.1309 45.768 40.1293 45.0102C40.1293 44.8598 40.1284 44.7094 40.1293 44.559C40.1342 43.8801 40.509 43.497 41.1961 43.4962C43.4646 43.4921 45.7331 43.4946 48.0016 43.4946Z" fill="white"/>
</svg>
