<svg width="22" height="18" viewBox="0 0 22 18" fill="none" xmlns="http://www.w3.org/2000/svg">
<path fill-rule="evenodd" clip-rule="evenodd" d="M2.02173 8.09424C7.68541 5.67499 11.4621 4.08007 13.3518 3.30949C18.7471 1.10931 19.8683 0.72711 20.599 0.71449C20.7597 0.711714 21.119 0.750765 21.3518 0.935944C21.5484 1.09231 21.6024 1.30353 21.6283 1.45178C21.6542 1.60003 21.6864 1.93774 21.6608 2.20162C21.3684 5.2135 20.1033 12.5225 19.4597 15.8959C19.1874 17.3233 18.6511 17.8019 18.132 17.8487C17.0037 17.9505 16.147 17.1177 15.0543 16.4154C13.3444 15.3165 12.3784 14.6324 10.7186 13.5601C8.80042 12.3208 10.0439 11.6397 11.137 10.5265C11.4231 10.2352 16.3941 5.80222 16.4903 5.40008C16.5024 5.34979 16.5135 5.16232 16.3999 5.06332C16.2863 4.96433 16.1187 4.99818 15.9977 5.02511C15.8262 5.06327 13.0945 6.83341 7.80279 10.3355C7.02743 10.8575 6.32513 11.1119 5.6959 11.0985C5.00221 11.0839 3.66784 10.714 2.67588 10.3979C1.45919 10.0101 0.492197 9.80512 0.5764 9.1466C0.620259 8.8036 1.10203 8.45281 2.02173 8.09424Z" fill="white"/>
</svg>
