<svg width="272" height="43" viewBox="0 0 272 43" fill="none" xmlns="http://www.w3.org/2000/svg">
<path d="M70.1461 24.5773C68.4346 26.8019 66.9074 27.7935 64.1163 27.7935C60.2193 27.7935 56.9543 24.8185 56.9543 20.7714C56.9543 16.8315 60.0877 13.8297 64.169 13.8297C66.5914 13.8297 68.4873 15.0626 69.8302 16.9923L74.0695 12.5432C71.5943 8.92492 67.908 7.63843 63.695 7.63843C56.217 7.63843 50.3188 13.2937 50.3188 20.9858C50.3188 28.7048 56.2697 34.1724 63.695 34.1724C68.1713 34.1724 71.7523 32.4035 74.4644 28.8388L70.1461 24.5773Z" fill="#13AB7B"/>
<path d="M77.6772 33.5835H83.944L84.1547 18.8156L88.6836 26.615H92.1593L96.6883 18.8156L96.8989 33.5835H103.166L102.771 8.38965H96.6356L90.3688 18.5744L84.1284 8.38965H78.0722L77.6772 33.5835Z" fill="#13AB7B"/>
<path d="M106.826 24.7655H112.803H118.807V19.5659H112.803H106.826V24.7655Z" fill="#13AB7B"/>
<path d="M129.366 23.2101H130.893C132.683 23.2101 134.158 25.0863 135.001 26.8552L138.345 33.5557H145.665L141.004 24.1214C139.872 21.9772 138.634 20.6371 136.475 19.9403C138.213 19.1898 139.345 18.0909 140.504 15.6788L144.269 8.38862H137.186L134.184 14.3655C133.315 16.2952 132.288 17.1261 130.445 17.1261H129.366V8.36182H122.941V33.5557H129.366V23.2101Z" fill="#13AB7B"/>
<path d="M152.166 15.1436C152.166 25.3283 151.113 28.0889 147.479 28.0889V33.5565C147.479 33.5565 148.216 33.5565 148.611 33.5565C153.877 33.5565 157.511 29.6702 157.511 20.504H160.381V33.5833H166.516V15.1436H152.166Z" fill="#13AB7B"/>
<path d="M188.24 33.5833V15.1436H182.948L176.444 24.5511V15.1436H170.599V33.5833H175.549L182.421 24.1758V33.5833H188.24Z" fill="#13AB7B"/>
<path d="M203.829 15.1436V21.6296H198.484V15.1436H192.349V33.5833H198.484V26.8024H203.829V33.5565H209.964V15.1436H203.829Z" fill="#13AB7B"/>
<path d="M231.687 33.5833V15.1436H226.394L219.89 24.5511V15.1436H214.045V33.5833H218.969L225.841 24.1222V33.5833H231.687Z" fill="#13AB7B"/>
<path d="M241.824 26.6148H242.903C244.22 26.6148 245.01 27.9013 245.536 28.9197L247.748 33.5833H254.278L251.382 27.4456C250.25 25.3283 249.249 24.283 247.538 23.6933C248.959 23.2109 249.934 22.4604 250.908 20.5307L253.515 15.1167H247.274L245.247 19.4586C244.641 20.7719 244.115 21.2276 242.851 21.2276H241.797V15.1435H235.768V33.5833H241.797V26.6148H241.824Z" fill="#13AB7B"/>
<path d="M272 33.5834V22.7018C272 17.663 268.761 15.0364 264.048 15.0364C259.993 15.0364 256.886 16.3229 255.595 17.8774L258.413 21.0132C259.44 20.2628 260.993 19.6999 263.152 19.6999C264.39 19.6999 265.996 20.1288 265.996 21.9781V22.3265C265.154 22.2193 264.68 22.1657 263.574 22.1657C259.176 22.1657 255.411 24.3903 255.411 28.7858C255.411 33.1009 258.492 34.2266 260.756 34.2266C263.073 34.2266 264.469 33.6638 266.023 31.9753V33.637H272V33.5834ZM266.023 26.9097C265.838 29.3487 264.285 29.9919 262.994 29.9919C261.652 29.9919 260.967 29.1342 260.967 27.7941C260.967 26.5344 262.31 25.5696 264.337 25.5696C265.127 25.5696 265.68 25.5964 265.996 25.7304V26.9097H266.023Z" fill="#13AB7B"/>
<path d="M1.87245e-05 13.267C1.87245e-05 7.02213 1.87079e-05 3.88629 1.89585 1.92974C3.81802 0 6.89875 0 13.0339 0H28.3322C34.4674 0 37.5481 0 39.4703 1.92974C41.3661 3.88629 41.3661 6.99532 41.3661 13.267V28.839C41.3661 35.0838 41.3661 38.2197 39.4703 40.1762C37.5481 42.106 34.4937 42.106 28.3322 42.106H13.0339C6.89875 42.106 3.81802 42.106 1.89585 40.1762C-0.0263124 38.2465 1.87245e-05 35.1106 1.87245e-05 28.839V13.267Z" fill="#13AB7B"/>
<path fill-rule="evenodd" clip-rule="evenodd" d="M20.9856 33.6101C12.6123 33.6101 5.26593 28.0085 5.42392 22.0316C5.2396 17.6897 7.63573 13.0798 13.0336 10.6408C15.0348 9.72952 18.4841 8.95226 21.8282 8.92546C22.5654 8.89866 23.0394 8.81825 23.6977 8.68424C24.119 8.60384 24.5929 8.49663 25.2775 8.41622C26.3834 8.25541 27.8843 8.0946 29.2009 8.63064C30.7281 9.4079 32.2289 10.5872 32.2289 11.15C32.2289 11.7129 31.2284 12.7313 30.5701 12.8117C29.4378 12.9458 28.016 12.7313 26.2255 12.4365C24.8562 12.2221 23.2764 11.9541 21.4859 11.8201C13.9289 11.7129 8.39933 16.8857 8.55731 21.9244C8.7153 28.3033 16.5883 31.0907 21.4595 31.0907C34.9937 31.1711 34.5724 18.8958 31.3863 18.3062C30.3594 18.1185 29.5168 19.9411 28.6216 21.9512C27.5683 24.283 26.4098 26.8828 24.6456 26.856C23.0131 26.8292 21.7228 24.0686 20.6433 21.7368C19.8797 20.1287 19.2477 18.735 18.6684 18.6546C17.6152 18.5474 16.8253 21.04 16.1143 23.2377C15.6404 24.7118 15.2191 26.0519 14.7978 26.3468C13.8235 27.3384 11.2694 25.1943 11.6117 24.3634C11.954 23.5594 12.2963 23.8542 12.665 24.2026C12.9546 24.4706 13.2969 24.7922 13.6655 24.4438C13.7972 24.3098 14.0078 23.7202 14.2712 22.8893C15.0611 20.5575 16.4303 16.3764 18.8001 16.1888C20.4853 16.0548 21.8282 19.1638 22.9077 21.6296C23.5924 23.2377 24.1716 24.5778 24.6719 24.5778C25.2249 24.5778 25.7778 23.3449 26.4361 21.8172C27.5683 19.2978 29.0166 16.028 31.3863 16.43C37.4688 17.5021 37.9691 33.6369 20.9856 33.6101ZM28.8059 9.91713C28.8059 10.1852 28.3846 10.212 27.5157 10.1852C26.8574 10.1584 26.4361 9.97074 26.5414 9.62231C26.6468 9.27389 27.226 9.24708 27.858 9.38109C28.1476 9.4347 28.8059 9.62231 28.8059 9.91713Z" fill="white"/>
</svg>
