<svg width="96" height="96" viewBox="0 0 96 96" fill="none" xmlns="http://www.w3.org/2000/svg">
<circle cx="48" cy="48" r="48" fill="#13AB7B"/>
<path fill-rule="evenodd" clip-rule="evenodd" d="M35.8752 31.2571L47.593 19.5393C48.3121 18.8203 49.4779 18.8203 50.1969 19.5393L61.9147 31.2571C62.6338 31.9762 62.6338 33.142 61.9147 33.8611C61.1957 34.5801 60.0298 34.5801 59.3108 33.8611L50.7362 25.2865L50.7362 65.9524C50.7362 66.9693 49.9119 67.7937 48.895 67.7937C47.8781 67.7937 47.0537 66.9693 47.0537 65.9524L47.0537 25.2865L38.4792 33.8611C37.7601 34.5801 36.5943 34.5801 35.8752 33.8611C35.1562 33.142 35.1562 31.9762 35.8752 31.2571Z" fill="white"/>
<path fill-rule="evenodd" clip-rule="evenodd" d="M17.5393 49.67L29.2571 37.9522C29.9761 37.2332 31.142 37.2332 31.861 37.9522L43.5788 49.67C44.2978 50.3891 44.2978 51.5549 43.5788 52.274C42.8597 52.993 41.6939 52.993 40.9748 52.274L32.4003 43.6994L32.4003 75.159C32.4003 76.1759 31.5759 77.0002 30.559 77.0002C29.5421 77.0002 28.7178 76.1759 28.7178 75.159L28.7178 43.6994L20.1432 52.274C19.4242 52.993 18.2584 52.993 17.5393 52.274C16.8202 51.5549 16.8202 50.3891 17.5393 49.67Z" fill="white"/>
<path fill-rule="evenodd" clip-rule="evenodd" d="M54.2815 48.7494L65.9992 37.0316C66.7183 36.3125 67.8841 36.3125 68.6032 37.0316L80.321 48.7494C81.04 49.4684 81.04 50.6342 80.321 51.3533C79.6019 52.0724 78.4361 52.0724 77.717 51.3533L69.1425 42.7788L69.1425 74.2383C69.1425 75.2552 68.3181 76.0796 67.3012 76.0796C66.2843 76.0796 65.46 75.2552 65.46 74.2383L65.46 42.7788L56.8854 51.3533C56.1664 52.0724 55.0005 52.0724 54.2815 51.3533C53.5624 50.6342 53.5624 49.4684 54.2815 48.7494Z" fill="white"/>
</svg>
