<svg width="96" height="96" viewBox="0 0 96 96" fill="none" xmlns="http://www.w3.org/2000/svg">
<circle cx="48" cy="48" r="48" fill="#13AB7B"/>
<path d="M74 43.0865C74 32.8601 68.6712 23.5818 59.7496 18.2688C58.8356 17.7239 57.661 18.0342 57.1264 18.9572C56.5918 19.8802 56.8945 21.0688 57.8066 21.6117C65.5459 26.2189 70.1658 34.2465 70.1658 43.0846C70.1658 57.7709 59.6308 68.4317 45.1179 68.4317C41.8719 68.4317 38.7237 67.817 35.7575 66.6051C34.7783 66.2018 33.6574 66.6827 33.2627 67.6755C32.8679 68.6683 33.3393 69.8007 34.3204 70.2001C37.7465 71.602 41.3795 72.3117 45.1179 72.3117C45.1294 72.3117 45.1409 72.3117 45.1524 72.3117V76.1297H39.5879C38.4823 76.1297 37.5855 76.9964 37.5855 78.0648C37.5855 79.1333 38.4823 80 39.5879 80H54.7293C55.8349 80 56.7317 79.1333 56.7317 78.0648C56.7317 76.9964 55.8349 76.1297 54.7293 76.1297H48.9578V72.0829C63.6758 70.3533 74 58.6977 74 43.0904V43.0865ZM66.207 43.2611C66.207 31.4659 56.7604 21.8463 45.1064 21.8463C33.4485 21.8463 24 31.4659 24 43.2611C24 55.0562 33.4485 64.5556 45.1064 64.5556C56.7623 64.5556 66.207 55.0562 66.207 43.2611ZM27.8323 43.2611C27.8323 33.624 35.5812 25.7244 45.1045 25.7244C54.6277 25.7244 62.3728 33.624 62.3728 43.2611C62.3728 52.8981 54.6258 60.6775 45.1045 60.6775C35.5793 60.6775 27.8323 52.8981 27.8323 43.2611Z" fill="white"/>
</svg>
