<svg width="96" height="96" viewBox="0 0 96 96" fill="none" xmlns="http://www.w3.org/2000/svg">
<circle cx="48" cy="48" r="48" fill="#13AB7B"/>
<path d="M74.8345 33.9458C73.8175 31.2415 72.2453 28.9179 70.1617 27.0402C66.8864 24.0888 63.0005 22.4143 58.6117 22.0621C55.4188 21.805 52.2799 22.3475 49.2831 23.6741C49.2348 23.6954 49.1169 23.6954 49.0658 23.6741C46.9126 22.7452 44.7267 22.2012 42.5664 22.0578C39.7968 21.8731 37.1139 22.2481 34.5928 23.1713C30.5435 24.6541 27.2952 27.2391 24.9375 30.8524C23.0031 33.818 21.9634 37.1472 21.8469 40.7463C21.7944 42.3725 21.9549 44.0414 22.3227 45.706C22.3412 45.7912 22.3455 45.8097 22.2503 45.9034C22.1125 46.0398 21.9733 46.1761 21.8341 46.3124C21.3356 46.8025 20.8186 47.3081 20.3442 47.8435C19.2307 49.0977 18.7961 50.6586 19.0887 52.3545C19.5432 54.9934 21.7915 56.908 24.4546 56.9364C24.4972 57.8397 24.6648 58.5541 24.9801 59.1833C26.017 61.2513 27.7142 62.3208 30.0251 62.3648C30.0336 62.3648 30.0407 62.3648 30.0478 62.3648C30.0478 62.3748 30.0492 62.3847 30.0507 62.3961C30.0904 62.8861 30.1501 63.4045 30.3134 63.8874C31.079 66.1499 32.9637 67.5674 35.3655 67.6952L35.3754 67.7961C35.4322 68.3443 35.4904 68.911 35.6467 69.4607C36.2262 71.5102 38.3027 73.1379 40.4757 73.2472C42.0083 73.3254 43.3448 72.8794 44.4498 71.9235C44.7054 72.1522 44.9724 72.3567 45.2451 72.5612C46.5192 73.5199 47.8557 74 49.2391 74C50.0685 74 50.9136 73.8267 51.7743 73.4816C54.0298 72.5754 55.3634 70.8057 55.6319 68.3656C55.6347 68.3457 55.6361 68.3287 55.639 68.3159C55.6532 68.3145 55.6716 68.3131 55.6944 68.3117C56.8079 68.2605 57.8632 67.9097 58.8304 67.2691C60.6811 66.0448 61.7094 64.3206 61.8884 62.1461C61.8912 62.1077 61.8955 62.0807 61.8997 62.0623C61.9125 62.0609 61.9295 62.058 61.9508 62.058C62.3045 62.041 62.6468 61.9742 62.9621 61.9046C65.7928 61.284 67.9147 58.8339 68.1235 55.945C68.1278 55.8853 68.1349 55.8498 68.1406 55.8314C68.159 55.8257 68.1917 55.8186 68.2471 55.8115C70.3023 55.5899 71.9072 54.5517 72.8872 52.8075C73.3858 51.9198 73.7721 50.9668 74.1471 50.0436C74.2294 49.8419 74.3104 49.6402 74.3928 49.44C75.5489 46.6363 76.0829 43.8099 76.0744 40.5446C76.0858 38.4553 75.6455 36.1118 74.8302 33.9472L74.8345 33.9458ZM64.8227 53.3785C64.6949 53.7322 64.6736 54.1938 64.7659 54.6454C64.9974 55.7817 64.6438 56.9477 63.8171 57.7644C62.9919 58.5797 61.8216 58.9191 60.6882 58.6734C59.9581 58.5158 59.3005 58.6706 58.883 59.0995C58.4711 59.5228 58.3404 60.1449 58.5137 60.8493C58.7608 61.8492 58.4881 62.9457 57.7865 63.7809C57.0721 64.6302 56.0338 65.0748 54.9388 64.9995C54.8124 64.991 54.6789 64.964 54.5354 64.9356C54.4147 64.9114 54.2911 64.8859 54.1604 64.8702C53.5554 64.7935 53.0171 64.9583 52.6478 65.3361C52.2828 65.7082 52.1294 66.2408 52.216 66.8331C52.226 66.9027 52.2373 66.9737 52.2473 67.0433C52.3211 67.5191 52.3907 67.9694 52.27 68.4111C51.9575 69.5558 51.2389 70.2532 50.0699 70.5415C48.928 70.8242 47.9224 70.5231 46.8544 69.5686C46.9978 69.4181 47.1413 69.2689 47.2875 69.1227C47.6568 68.7519 48.029 68.3827 48.4011 68.0148C49.1425 67.2791 49.9109 66.5192 50.6466 65.7494C51.8326 64.5095 52.3666 62.8193 52.1138 61.1121C51.8652 59.4375 50.8937 58.0087 49.4478 57.192C48.5673 56.6949 47.6583 56.4506 46.7493 56.4648C46.7294 53.9395 45.0818 51.8176 42.6474 51.1799C42.2327 51.0719 41.7796 51.008 41.3009 50.9938C41.2214 48.646 40.0852 46.9573 37.922 45.9744C37.28 45.6833 36.5869 45.5441 35.8569 45.5611C35.7362 42.9051 34.2377 40.992 31.738 40.306C29.8291 39.7833 28.0352 40.2364 26.5467 41.6183C26.1874 41.9521 25.8394 42.3057 25.5042 42.6466C25.419 42.7333 25.3352 42.8185 25.25 42.9051C25.1165 41.6851 25.135 40.4878 25.304 39.2691C25.7968 35.7226 27.2896 32.6562 29.7424 30.155C34.4266 25.3785 40.855 24.603 45.4454 25.9452C44.214 26.8783 43.1559 27.9961 42.1304 29.0812C41.9415 29.2815 41.7526 29.4803 41.5637 29.6792L40.8209 30.4575C40.3422 30.9589 39.865 31.4588 39.3849 31.9588C37.949 33.4544 37.3141 35.2283 37.4959 37.2338C37.7317 39.8259 39.4687 42.0359 41.9202 42.8654C43.9413 43.5485 45.8885 43.3071 47.7094 42.1495L49.8725 40.7732C52.5029 39.1001 55.2228 37.3702 57.893 35.6587C57.9697 35.6104 58.0109 35.5919 58.0308 35.5848C58.0464 35.5948 58.0791 35.6189 58.133 35.6715C59.9312 37.481 61.7634 39.316 63.5359 41.0914C65.5556 43.1125 67.642 45.2032 69.6887 47.2655C70.3648 47.9472 70.6659 48.9059 70.5125 49.8959C70.3563 50.9072 69.764 51.7494 68.8862 52.2096C68.267 52.5334 67.6577 52.6144 67.0242 52.4553C65.9377 52.1826 65.1366 52.5206 64.8241 53.3813L64.8227 53.3785ZM39.3097 66.2295C39.7542 65.738 39.9161 65.0989 39.7414 64.5208C39.5738 63.9641 39.1122 63.5394 38.5072 63.386C38.3822 63.3533 38.2572 63.3377 38.1336 63.3377C37.7473 63.3377 37.3709 63.4954 36.9917 63.8149C36.4307 64.2865 35.7134 64.4612 35.0246 64.2936C34.357 64.1317 33.8187 63.6672 33.5503 63.0196C33.2066 62.1944 33.3344 61.4388 33.9395 60.7087C34.3272 60.24 34.4735 59.6691 34.3414 59.1435C34.215 58.6436 33.8443 58.2374 33.3245 58.0286C32.6782 57.7687 32.0604 57.9065 31.4852 58.4376C30.6287 59.2288 29.3817 59.2415 28.521 58.4661C28.0849 58.0726 27.8293 57.5343 27.8051 56.9492C27.7796 56.3597 27.9898 55.7959 28.396 55.3613C28.8022 54.9266 28.9854 54.3713 28.8988 53.8373C28.8164 53.3387 28.5011 52.9084 28.0324 52.657C27.3805 52.3062 26.6277 52.4383 26.017 53.0121C25.1463 53.8287 23.8084 53.8032 22.9704 52.9524C22.1438 52.113 22.1338 50.7594 22.9477 49.9371C25.0668 47.7953 26.9686 45.8935 28.7596 44.1223C29.3064 43.5812 30.0293 43.3468 30.7452 43.4775C31.4369 43.6039 32.0064 44.057 32.3089 44.7203C32.7024 45.5838 32.576 46.3721 31.9226 47.1306C31.6059 47.497 31.2153 48.0722 31.4724 48.8349C31.6641 49.4045 32.086 49.8149 32.6314 49.9612C33.1711 50.1061 33.7378 49.9655 34.1852 49.5721C34.5829 49.2227 34.9621 49.021 35.3782 48.9372C36.2688 48.7596 37.1124 49.119 37.6351 49.9002C38.0967 50.589 38.0868 51.5633 37.611 52.2678C37.5428 52.3701 37.4576 52.4695 37.3695 52.576L37.2843 52.6783C36.692 53.3984 36.7247 54.3685 37.361 54.9849C38.0172 55.6198 38.9645 55.6226 39.6662 54.992C40.1278 54.5772 40.5766 54.3727 41.0779 54.3472C42.0139 54.2989 42.8036 54.7463 43.19 55.5445C43.599 56.391 43.4769 57.2758 42.8533 57.9746C42.5252 58.3411 42.119 58.9206 42.3633 59.7046C42.5394 60.2699 42.9698 60.6974 43.5138 60.8493C44.0521 60.9999 44.6358 60.8593 45.0733 60.473C45.5874 60.0185 46.0774 59.7997 46.6115 59.7827C47.2023 59.7656 47.7577 59.9744 48.1738 60.3778C48.5957 60.7854 48.8286 61.3422 48.83 61.9444C48.8328 62.5452 48.6368 63.048 48.2477 63.4414L47.5674 64.1274C45.8687 65.8403 44.1117 67.6114 42.3591 69.3258C41.531 70.1368 40.1746 70.1183 39.3381 69.286C38.4987 68.4523 38.4873 67.1385 39.3097 66.2309V66.2295ZM57.1644 32.1619L54.4033 33.9259C51.5641 35.7397 48.7263 37.5534 45.8857 39.3643C44.9582 39.9551 43.8561 40.0673 42.8604 39.6739C41.8847 39.2862 41.1745 38.4695 40.9118 37.4312C40.6277 36.3064 40.8635 35.2994 41.5949 34.5182C43.2809 32.7158 44.8063 31.0981 46.4027 29.5343C47.8358 28.1325 49.6552 27.0346 51.8112 26.2719C54.2229 25.4197 56.6204 25.1455 58.9384 25.458C64.3725 26.1909 68.3934 28.8455 70.8931 33.3507C72.3404 35.9584 72.9384 38.9538 72.6728 42.2518C72.6117 43.0045 72.4853 43.7729 72.3617 44.5158C72.3276 44.7217 72.2936 44.9291 72.2609 45.135C72.062 44.9191 71.8689 44.7118 71.6658 44.5087C68.8962 41.7348 66.1237 38.9623 63.3513 36.1899L59.5917 32.4289C59.1599 31.9957 58.7324 31.7812 58.2779 31.7812C57.9271 31.7812 57.5607 31.9091 57.163 32.1633L57.1644 32.1619Z" fill="white"/>
</svg>
