<svg width="96" height="96" viewBox="0 0 96 96" fill="none" xmlns="http://www.w3.org/2000/svg">
<circle cx="48" cy="48" r="48" fill="#13AB7B"/>
<path fill-rule="evenodd" clip-rule="evenodd" d="M40.0789 27H55.9212C58.5928 27 60.7461 26.9999 62.4398 27.2276C64.1981 27.464 65.6785 27.9698 66.8545 29.1456C68.0303 30.3215 68.536 31.8019 68.7724 33.5603C69 35.2539 69 37.4073 69 40.0789V48.1072C69 50.7788 69 52.9322 68.7724 54.6258C68.536 56.3842 68.0303 57.8645 66.8545 59.0403C65.8816 60.0132 64.6963 60.5308 63.3077 60.8135C61.9594 61.088 60.333 61.1571 58.4074 61.1776L58.3965 61.1778L57.9581 61.179C57.769 61.7733 57.4617 62.3386 57.0359 62.8383C56.7798 63.1388 56.625 63.5123 56.5936 63.9059C56.4059 66.2585 54.5375 68.1268 52.185 68.3145C51.7915 68.346 51.4178 68.5007 51.1174 68.7568C49.321 70.2875 46.6791 70.2875 44.8826 68.7568C44.5822 68.5007 44.2087 68.346 43.8151 68.3145C41.4624 68.1268 39.5942 66.2585 39.4064 63.9059C39.375 63.5125 39.2203 63.1388 38.9642 62.8383C38.5389 62.3392 38.2318 61.7748 38.0428 61.1816C36.0105 61.1679 34.3094 61.1128 32.9119 60.8561C31.4312 60.584 30.1711 60.0659 29.1456 59.0405C27.9698 57.8645 27.464 56.3842 27.2276 54.6258C26.9999 52.9322 27 50.7788 27 48.1072V40.0789C27 37.4073 26.9999 35.2539 27.2276 33.5603C27.464 31.8019 27.9698 30.3215 29.1456 29.1456C30.3215 27.9698 31.8019 27.464 33.5603 27.2276C35.2539 26.9999 37.4073 27 40.0789 27ZM38.0457 58.2511C38.2349 57.6612 38.5411 57.1001 38.9642 56.6036C39.2203 56.3031 39.375 55.9296 39.4064 55.536C39.5942 53.1834 41.4624 51.3151 43.8151 51.1273C44.2087 51.0959 44.5822 50.9412 44.8826 50.6851C46.6791 49.1543 49.321 49.1543 51.1174 50.6851C51.4178 50.9412 51.7915 51.0959 52.185 51.1273C54.5375 51.3151 56.4059 53.1834 56.5936 55.536C56.625 55.9296 56.7798 56.3031 57.0359 56.6036C57.4584 57.0993 57.7643 57.6596 57.9536 58.2488L58.3816 58.2474C60.3064 58.2269 61.6787 58.1548 62.7231 57.9423C63.7281 57.7376 64.3292 57.4215 64.7824 56.9685C65.3231 56.4277 65.6756 55.6688 65.8684 54.2353C66.0666 52.7597 66.0698 50.804 66.0698 48V40.186C66.0698 37.382 66.0666 35.4263 65.8684 33.9507C65.6756 32.5173 65.3231 31.7582 64.7824 31.2176C64.2417 30.677 63.4828 30.3244 62.0493 30.1317C60.5736 29.9333 58.618 29.9302 55.814 29.9302H40.186C37.382 29.9302 35.4263 29.9333 33.9507 30.1317C32.5173 30.3244 31.7582 30.677 31.2176 31.2176C30.677 31.7582 30.3244 32.5173 30.1317 33.9507C29.9333 35.4263 29.9302 37.382 29.9302 40.186V48C29.9302 50.804 29.9333 52.7597 30.1317 54.2353C30.3244 55.6688 30.677 56.4277 31.2176 56.9685C31.6932 57.4439 32.3341 57.7706 33.4413 57.9739C34.5552 58.1787 36.0119 58.2371 38.0457 58.2511ZM40.6744 36.2791C40.6744 35.4699 41.3304 34.814 42.1395 34.814H53.8605C54.6696 34.814 55.3256 35.4699 55.3256 36.2791C55.3256 37.0882 54.6696 37.7442 53.8605 37.7442H42.1395C41.3304 37.7442 40.6744 37.0882 40.6744 36.2791ZM36.7674 43.1163C36.7674 42.3071 37.4234 41.6512 38.2326 41.6512H57.7674C58.5766 41.6512 59.2326 42.3071 59.2326 43.1163C59.2326 43.9255 58.5766 44.5814 57.7674 44.5814H38.2326C37.4234 44.5814 36.7674 43.9255 36.7674 43.1163ZM49.2168 52.9154C48.5157 52.3178 47.4843 52.3178 46.7832 52.9154C46.0135 53.5714 45.0563 53.9679 44.0482 54.0482C43.1299 54.1216 42.4006 54.8507 42.3274 55.769C42.2469 56.7772 41.8505 57.7344 41.1945 58.5041C40.5969 59.2052 40.5969 60.2367 41.1945 60.9378C41.8505 61.7074 42.2469 62.6646 42.3274 63.6728C42.4006 64.5912 43.1299 65.3202 44.0482 65.3937C45.0563 65.474 46.0135 65.8705 46.7832 66.5265C47.4843 67.1241 48.5157 67.1241 49.2168 66.5265C49.9865 65.8705 50.9437 65.474 51.9519 65.3937C52.8702 65.3202 53.5993 64.5912 53.6727 63.6728C53.753 62.6646 54.1496 61.7074 54.8056 60.9378C55.4031 60.2367 55.4031 59.2052 54.8056 58.5041C54.1496 57.7344 53.753 56.7772 53.6727 55.769C53.5993 54.8507 52.8702 54.1216 51.9519 54.0482C50.9437 53.9679 49.9865 53.5714 49.2168 52.9154ZM49.9306 56.6963C50.5222 56.1443 51.4493 56.1761 52.0013 56.7678C52.5534 57.3594 52.5215 58.2865 51.9298 58.8385L47.7439 62.7455C47.1809 63.2708 46.3075 63.2708 45.7445 62.7455L44.0701 61.1827C43.4786 60.6307 43.4466 59.7035 43.9987 59.112C44.5507 58.5203 45.4779 58.4885 46.0694 59.0405L46.7441 59.6703L49.9306 56.6963Z" fill="white"/>
</svg>
