<svg width="96" height="96" viewBox="0 0 96 96" fill="none" xmlns="http://www.w3.org/2000/svg">
<circle cx="48" cy="48" r="48" fill="#13AB7B"/>
<path d="M78.5053 41.9104C77.3556 43.3855 76.2273 44.878 75.0506 46.33C66.4825 56.905 57.9048 67.4723 49.331 78.0435C49.2942 78.0899 49.2574 78.1381 49.2187 78.1845C48.3052 79.2696 47.1846 79.2754 46.2885 78.1806C44.5699 76.0799 42.8648 73.9676 41.1558 71.8611C33.3116 62.1877 25.4655 52.5163 17.6251 42.841C17.391 42.5514 17.2071 42.2212 17 41.9104C17 41.6304 17 41.3523 17 41.0724C17.1335 40.831 17.2613 40.5858 17.4045 40.3503C20.7121 34.917 24.0275 29.4895 27.3273 24.0504C27.7647 23.3302 28.3454 23 29.195 23C41.5661 23.0097 53.9372 23.0097 66.3083 23C67.1561 23 67.7483 23.3224 68.1799 24.0484C69.136 25.6607 70.1269 27.2516 71.0985 28.8542C73.5681 32.9263 76.0376 36.9984 78.5072 41.0724V41.9104H78.5053ZM56.9468 43.2214H38.5585C41.6164 52.7267 44.6492 62.1588 47.6839 71.5888C47.7323 71.583 47.7807 71.5772 47.8291 71.5714C50.8599 62.1452 53.8927 52.719 56.9468 43.2214ZM38.7462 39.7459H56.7126C56.6991 39.6552 56.6991 39.6146 56.6855 39.5799C54.9669 35.2915 53.2405 31.0071 51.5354 26.7129C51.396 26.3596 51.1715 26.3596 50.8832 26.3615C48.8007 26.3654 46.7201 26.377 44.6376 26.3519C44.2176 26.3461 44.0512 26.4986 43.908 26.8655C42.7506 29.7907 41.5739 32.71 40.401 35.6294C39.8533 36.9926 39.3056 38.3557 38.7462 39.7459ZM22.2508 43.2021C29.2743 51.8598 36.2379 60.4423 43.1996 69.0247C43.2615 68.8702 43.2325 68.7776 43.2035 68.6849C40.5171 60.3264 37.825 51.9679 35.1522 43.6037C35.0244 43.2059 34.8154 43.1499 34.4574 43.1499C30.5943 43.1596 26.7293 43.1557 22.8662 43.1577C22.694 43.1577 22.5217 43.1808 22.2527 43.2001L22.2508 43.2021ZM52.2128 68.9629L52.3037 69.0382C59.2693 60.45 66.2348 51.8617 73.2681 43.1905C72.9449 43.175 72.7513 43.1596 72.5558 43.1596C68.7547 43.1596 64.9536 43.1712 61.1524 43.1441C60.6279 43.1403 60.4421 43.3295 60.2931 43.7929C58.6887 48.8362 57.0629 53.8736 55.443 58.9111C54.3669 62.2611 53.2889 65.611 52.2128 68.9629ZM40.4862 26.3615C40.1958 26.3615 40.0178 26.3615 39.8378 26.3615C36.6966 26.3615 33.5535 26.3712 30.4124 26.35C29.9904 26.348 29.7814 26.4986 29.5724 26.8423C27.0738 30.9685 24.5578 35.0849 22.0495 39.2053C21.9508 39.3655 21.8637 39.5335 21.7417 39.7459C21.9295 39.7691 22.0243 39.7923 22.1211 39.7923C26.3035 39.7942 30.4859 39.7884 34.6683 39.8038C35.0631 39.8038 35.1696 39.6088 35.2877 39.3096C36.2805 36.8111 37.285 34.3184 38.2856 31.8257C39.0036 30.0378 39.7236 28.2499 40.4862 26.3596V26.3615ZM55.0404 26.3673C55.1294 26.6106 55.1933 26.7921 55.2649 26.9717C56.9023 31.0534 58.5493 35.1332 60.1712 39.2207C60.3434 39.6552 60.5486 39.8135 61.0344 39.8116C65.0561 39.7884 69.0779 39.798 73.0997 39.798C73.2932 39.798 73.4848 39.7807 73.7403 39.7691C73.6687 39.605 73.6339 39.4968 73.5777 39.4022C70.9959 35.1641 68.4179 30.924 65.8148 26.6994C65.7045 26.5199 65.3735 26.3866 65.1432 26.3847C63.1227 26.3596 61.1021 26.3712 59.0815 26.3712C57.7635 26.3712 56.4455 26.3712 55.0423 26.3712L55.0404 26.3673Z" fill="white"/>
</svg>
