<svg width="96" height="96" viewBox="0 0 96 96" fill="none" xmlns="http://www.w3.org/2000/svg">
<circle cx="48" cy="48" r="48" fill="#13AB7B"/>
<path d="M49.7716 17.0013C51.1457 17.2333 52.5452 17.3671 53.8886 17.7163C58.7398 18.9795 63.5757 20.3051 68.4103 21.6294C69.5931 21.9531 70.7543 22.3559 71.9193 22.7409C74.6049 23.628 76.1141 25.4953 76.4659 28.2918C77.0433 32.8715 77.1886 37.4614 76.7233 42.0589C75.6412 52.7657 71.7587 62.3163 64.8133 70.5707C61.5287 74.4749 57.7622 77.8348 53.3214 80.3942C52.8447 80.6682 52.34 80.8938 51.8607 81.1628C49.5447 82.4641 47.281 82.2883 44.96 81.0914C41.2432 79.1769 37.9993 76.6404 35.0728 73.6986C27.2849 65.8712 22.5472 56.471 20.7436 45.5845C19.822 40.0233 19.7838 34.4482 20.481 28.8616C20.5651 28.1911 20.634 27.5041 20.8392 26.8668C21.5109 24.7841 22.9372 23.4011 25.0186 22.7651C29.1675 21.4981 33.3189 20.2388 37.492 19.056C40.6084 18.1726 43.7618 17.4232 46.9968 17.0918C47.0758 17.0841 47.151 17.0319 47.2275 17C48.0751 17 48.924 17 49.7716 17V17.0013ZM72.7695 35.19C72.6675 33.909 72.4712 31.3547 72.2558 28.8004C72.1691 27.7769 71.5943 27.1446 70.6052 26.863C65.2543 25.3385 59.9188 23.7605 54.5514 22.296C51.1482 21.3668 47.7169 21.0902 44.1901 21.883C38.151 23.2418 32.2355 25.002 26.3468 26.8821C25.3513 27.1995 24.8376 27.838 24.7318 28.8488C24.6656 29.481 24.5967 30.1132 24.533 30.7454C24.0308 35.6871 24.1544 40.6097 25.0212 45.5029C26.4398 53.5049 29.671 60.695 34.7936 67.012C37.8884 70.8269 41.4267 74.1715 45.7413 76.5754C48.6589 78.2006 48.3402 78.2248 51.2973 76.5538C56.0363 73.8771 59.8666 70.1399 63.1321 65.8215C69.6951 57.144 72.6981 47.2874 72.7682 35.19H72.7695Z" fill="white"/>
<path d="M50.5338 47.532C50.5338 49.4796 50.5351 51.361 50.5313 53.241C50.5313 53.5151 50.5389 53.7968 50.4816 54.0631C50.2674 55.0637 49.3395 55.7456 48.3377 55.6679C47.3142 55.5876 46.4857 54.74 46.4716 53.6833C46.4474 51.8823 46.464 50.0813 46.464 48.2802C46.464 48.0521 46.464 47.8252 46.464 47.532C45.3959 47.532 44.3851 47.532 43.3743 47.532C42.4426 47.532 41.5096 47.5359 40.5778 47.532C39.2407 47.5257 38.3141 46.6793 38.3243 45.4774C38.3345 44.2971 39.2458 43.4673 40.5498 43.4635C42.2871 43.4584 44.0244 43.4622 45.7617 43.4622C45.9694 43.4622 46.1772 43.4622 46.4627 43.4622C46.4627 43.1078 46.4627 42.7981 46.4627 42.4884C46.4627 40.8148 46.4551 39.1413 46.4653 37.4664C46.4729 36.2237 47.3371 35.3225 48.497 35.3225C49.6518 35.3225 50.5249 36.2275 50.5313 37.4664C50.5415 39.4344 50.5338 41.4024 50.5338 43.4316C50.7671 43.4431 50.9697 43.4609 51.1724 43.4609C52.846 43.4635 54.5195 43.4609 56.1944 43.4622C57.7252 43.4622 58.6646 44.2282 58.6735 45.4812C58.6824 46.7609 57.7392 47.532 56.1625 47.5333C54.3194 47.5333 52.4776 47.5333 50.5338 47.5333V47.532Z" fill="white"/>
</svg>
