<svg width="96" height="96" viewBox="0 0 96 96" fill="none" xmlns="http://www.w3.org/2000/svg">
<circle cx="48" cy="48" r="48" fill="#13AB7B"/>
<path d="M36.9787 27.9588L36.0824 28.3996C34.9656 28.9433 33.6579 29.0167 32.497 28.6053L30.9983 28.0763C30.9101 28.0176 30.8219 27.9735 30.7338 27.9441L21.506 24.7849C20.8154 24.5498 20.0513 24.9172 19.8162 25.6078L12.0725 48.1629C11.955 48.5009 11.9844 48.8682 12.1313 49.1768C12.2782 49.4853 12.5574 49.7351 12.8954 49.8527L22.1085 53.0119C22.2554 53.056 22.4023 53.0853 22.5346 53.0853C23.093 53.0853 23.6072 52.7327 23.7983 52.189L31.1011 30.9416L31.6007 31.118C33.4375 31.7645 35.4946 31.647 37.2579 30.7947L38.1542 30.3539C39.2562 29.8102 40.5493 29.7367 41.7101 30.1335L58.6522 35.967C58.4759 36.6723 58.1232 37.5098 57.4767 37.9653C56.7567 38.4649 55.684 38.4649 54.2734 37.98L46.7207 35.3939C46.3681 35.2763 45.986 35.3057 45.6628 35.4821C45.3395 35.6584 45.1044 35.967 45.0016 36.3196C44.9869 36.3637 43.9436 40.2723 40.6081 42.0649C38.5069 43.1964 35.8913 43.2404 32.8203 42.1972C32.1297 41.9621 31.3656 42.3294 31.1305 43.02C30.8954 43.7106 31.2628 44.4747 31.9534 44.7098C33.7166 45.3123 35.3771 45.6208 36.9199 45.6208C38.7126 45.6208 40.3583 45.2241 41.8571 44.416C44.8399 42.8143 46.3828 40.0078 47.0881 38.3327L53.3918 40.4927C55.6399 41.2715 57.5208 41.1539 58.9754 40.14C61.3118 38.5237 61.4293 35.247 61.444 35.1C61.4587 34.5123 61.0914 33.998 60.5477 33.807L42.5624 27.6061C40.755 26.989 38.7126 27.1212 36.9787 27.9588ZM21.7264 50.0584L15.026 47.7662L21.8881 27.7384L28.5885 30.0306L21.7264 50.0584Z" fill="white"/>
<path d="M72.273 51.5718L69.1138 54.4812C66.2485 57.1114 63.0158 59.3302 59.5187 61.0347L42.7529 69.2339C42.0183 69.6012 41.1219 69.2927 40.7546 68.5433C40.3872 67.8086 40.6958 66.9123 41.4452 66.5449L41.6509 66.442L50.8199 61.9604C51.4811 61.6371 51.7603 60.8437 51.437 60.1824C51.1138 59.5212 50.3203 59.242 49.6591 59.5653L40.4901 64.0469L35.8762 66.3098C35.1415 66.6771 34.2452 66.3686 33.8778 65.6192C33.7015 65.2665 33.6721 64.8551 33.8044 64.4878C33.9366 64.1057 34.2011 63.8118 34.5538 63.6355L38.0362 61.931L47.9987 57.0526C48.6599 56.7294 48.9391 55.9359 48.6158 55.2747C48.2925 54.6135 47.4991 54.3343 46.8378 54.6575L36.8607 59.5506L36.4787 59.7416L31.7178 62.078C31.3652 62.2543 30.9537 62.2837 30.5864 62.1514C30.2044 62.0192 29.9105 61.7547 29.7342 61.402C29.3668 60.6673 29.6754 59.771 30.4248 59.4037L32.0705 58.5955L35.4354 56.9498L36.3758 56.4943L44.1048 52.7033C44.766 52.38 45.0452 51.5865 44.7219 50.9253C44.3987 50.2641 43.6052 49.9849 42.944 50.3081L34.5684 54.4077L30.9097 56.2004C30.175 56.5531 29.2786 56.2592 28.9113 55.5098C28.735 55.1571 28.7056 54.7457 28.8378 54.3784C28.9701 53.9963 29.2346 53.7024 29.5872 53.5261L35.9791 50.3963C36.6403 50.073 36.9195 49.2796 36.5962 48.6183C36.2729 47.9571 35.4795 47.6779 34.8182 48.0012L28.4264 51.131C27.4272 51.6159 26.6778 52.4681 26.3252 53.5114C25.9725 54.5547 26.0313 55.6861 26.5162 56.6853C26.8248 57.3024 27.2656 57.8167 27.7946 58.1988C26.8688 59.4184 26.6337 61.0935 27.3537 62.5629C27.8386 63.562 28.6909 64.3114 29.7342 64.6641C30.175 64.811 30.6158 64.8845 31.0566 64.8845C31.0419 65.5457 31.1742 66.2069 31.4827 66.8094C32.2027 68.2788 33.6868 69.131 35.215 69.131C35.8321 69.131 36.4493 68.9988 37.037 68.7049L37.9774 68.2494C38.0215 68.749 38.1538 69.2339 38.3742 69.7041C39.0942 71.1735 40.5782 72.0257 42.1064 72.0257C42.7236 72.0257 43.3407 71.8935 43.9285 71.5996L60.6942 63.4004C64.4264 61.5784 67.8648 59.2273 70.9211 56.4208L74.6681 52.9677L83.2493 48.7653C83.9105 48.442 84.1897 47.6486 83.8665 46.9873L73.375 25.6077C73.2134 25.2844 72.9489 25.0493 72.6109 24.9318C72.273 24.8142 71.9056 24.8436 71.5971 24.9906L62.8395 29.2665C62.1783 29.5898 61.8991 30.3832 62.2224 31.0444L72.273 51.5718ZM71.5677 27.9734L80.8689 47.002L74.5065 50.1171L65.2052 31.0885L71.5677 27.9734Z" fill="white"/>
</svg>
