<svg width="334" height="334" viewBox="0 0 334 334" fill="none" xmlns="http://www.w3.org/2000/svg">
<rect width="334" height="334" rx="40" fill="#DBF0E9"/>
<rect x="38" y="38" width="258" height="258" rx="24" stroke="white" stroke-width="12"/>
<rect x="62" y="62" width="210" height="210" rx="10" fill="#13AB7B"/>
<path fill-rule="evenodd" clip-rule="evenodd" d="M170.241 230C128.706 230 92.2652 202.156 93.0489 172.446C92.1346 150.864 104.02 127.949 130.796 115.826C140.723 111.296 157.833 107.432 174.421 107.299C178.078 107.166 180.429 106.766 183.695 106.1C185.784 105.701 188.135 105.168 191.531 104.768C197.017 103.969 204.462 103.169 210.993 105.834C218.568 109.697 226.013 115.559 226.013 118.357C226.013 121.155 221.05 126.217 217.785 126.617C212.168 127.283 205.115 126.217 196.233 124.752C189.442 123.686 181.605 122.354 172.723 121.688C135.237 121.155 107.808 146.867 108.592 171.914C109.376 203.621 148.429 217.477 172.592 217.477C239.728 217.876 237.638 156.859 221.834 153.928C216.74 152.996 212.56 162.055 208.119 172.047C202.895 183.637 197.148 196.56 188.397 196.427C180.299 196.294 173.899 182.572 168.543 170.981C164.756 162.987 161.621 156.06 158.747 155.66C153.523 155.127 149.604 167.517 146.078 178.442C143.727 185.769 141.637 192.43 139.547 193.896C134.715 198.825 122.045 188.167 123.743 184.037C125.441 180.04 127.139 181.506 128.968 183.238C130.404 184.57 132.102 186.169 133.931 184.437C134.584 183.771 135.629 180.84 136.935 176.71C140.853 165.119 147.645 144.336 159.4 143.403C167.76 142.737 174.421 158.191 179.776 170.448C183.172 178.442 186.046 185.103 188.527 185.103C191.27 185.103 194.013 178.975 197.278 171.381C202.895 158.857 210.078 142.604 221.834 144.602C252.005 149.931 254.487 230.133 170.241 230ZM209.034 112.229C209.034 113.561 206.944 113.694 202.633 113.561C199.368 113.428 197.278 112.495 197.801 110.763C198.323 109.031 201.197 108.898 204.331 109.564C205.768 109.831 209.034 110.763 209.034 112.229Z" fill="white"/>
</svg>
