<svg width="104" height="90" viewBox="0 0 104 90" fill="none" xmlns="http://www.w3.org/2000/svg">
<path d="M0.811732 52.011C1.86827 51.9465 2.84236 51.9002 3.73655 51.8667H22.2982C22.7131 51.8667 23.0172 51.8177 23.2104 51.7224C23.4346 51.5935 23.5944 51.3075 23.6897 50.8591L24.6483 44.8162C24.6793 44.4966 24.553 44.2415 24.2644 44.0482C24.0093 43.8575 23.7516 43.7442 23.4965 43.7132C23.146 43.6488 22.8084 43.6643 22.4889 43.7622C22.2003 43.8575 21.9941 44.0663 21.8653 44.3858C21.4504 45.7928 21.0664 46.8958 20.7134 47.6946C20.3629 48.4935 19.881 49.0707 19.2754 49.4211C18.7008 49.7407 17.853 49.9159 16.7346 49.9494H12.4182C11.3308 49.9803 10.5474 49.8386 10.0681 49.5165C9.61969 49.197 9.3491 48.7975 9.25376 48.3182C9.15841 47.8389 9.09399 47.3905 9.06307 46.9756V27.2157C9.09399 26.6076 9.15841 26.0329 9.25376 25.4892C9.3491 24.9145 9.60423 24.4507 10.0217 24.0976C10.4701 23.7137 11.189 23.523 12.1811 23.523C12.5007 23.523 12.7739 23.492 12.9955 23.4276C13.2197 23.3632 13.3459 23.0591 13.3794 22.5154C13.3794 22.2603 13.315 22.0206 13.1887 21.7964C13.0599 21.5722 12.8357 21.4614 12.5162 21.4614C10.4701 21.5568 8.47037 21.6057 6.51964 21.6057C5.56102 21.6057 4.63332 21.5903 3.73912 21.5568C2.84235 21.5258 1.86827 21.4923 0.814304 21.4614C0.525687 21.4614 0.319537 21.5722 0.19069 21.7964C0.0618439 22.0206 0 22.2603 0 22.5154C0.0309232 23.0591 0.159767 23.3632 0.38396 23.4276C0.608154 23.492 0.878732 23.523 1.19827 23.523C2.22131 23.523 2.94028 23.7137 3.35774 24.0976C3.77263 24.4481 4.03032 24.9119 4.12566 25.4892C4.25451 26.0329 4.31636 26.6076 4.31636 27.2157V46.2567C4.31636 46.8648 4.25193 47.4549 4.12566 48.0322C4.03032 48.5759 3.77521 49.0398 3.35774 49.4237C2.94286 49.7742 2.22389 49.952 1.19827 49.952C0.878732 49.952 0.605577 49.9829 0.38396 50.0473C0.159767 50.1118 0.0309232 50.4158 0 50.9596C0 51.2147 0.0644208 51.4543 0.19069 51.6785C0.319537 51.9027 0.525687 52.0135 0.814304 52.0135" fill="#4C3226"/>
<path d="M32.8211 51.8666C33.589 51.8975 34.4832 51.9464 35.5063 52.0109C35.7949 52.0109 36.0011 51.9 36.1299 51.6759C36.2897 51.4517 36.3696 51.212 36.3696 50.9569C36.3386 50.4132 36.2098 50.1091 35.9856 50.0447C35.7949 49.9802 35.5217 49.9493 35.1713 49.9493C33.924 49.9493 33.0299 49.8694 32.4861 49.7097C31.9759 49.5499 31.7182 49.2149 31.7182 48.7021C31.7491 48.1583 31.9424 47.344 32.2929 46.2566C32.3238 46.2256 32.3573 46.1277 32.3882 45.968C32.4526 45.8082 32.5789 45.4551 32.7722 44.914C32.9963 44.3703 33.3468 43.4915 33.8261 42.2752H45.6723L47.3035 46.2566C47.7519 47.5682 47.8962 48.5114 47.7338 49.086C47.605 49.6607 46.7597 49.9493 45.193 49.9493C44.8734 49.9493 44.6003 49.9802 44.3787 50.0447C44.1545 50.1091 44.0282 50.4132 43.9947 50.9569C43.9947 51.212 44.0591 51.4517 44.1854 51.6759C44.3142 51.9 44.5359 52.0109 44.858 52.0109C46.9376 51.9155 48.9192 51.8666 50.8055 51.8666H53.3954C54.1633 51.8975 55.0575 51.9464 56.0805 52.0109C56.3691 52.0109 56.5753 51.9 56.7041 51.6759C56.8639 51.4517 56.9438 51.212 56.9438 50.9569C56.9129 50.4132 56.784 50.1091 56.5598 50.0447C56.3691 49.9802 56.096 49.9493 55.7455 49.9493C55.0755 49.9184 54.5137 49.7251 54.0679 49.3747C53.653 48.9907 53.3155 48.5114 53.0604 47.9367C52.8052 47.3621 52.5656 46.8029 52.3414 46.2591L44.2833 26.4013C43.7087 24.9634 43.085 23.8914 42.4125 23.1879C41.7399 22.4534 40.941 21.9561 40.0133 21.701C39.0856 21.4459 37.9673 21.317 36.6556 21.317C36.1454 21.317 35.697 21.3479 35.313 21.4124C34.929 21.4433 34.7384 21.7319 34.7384 22.2756C34.7384 22.7549 34.8182 23.0436 34.978 23.1389C35.1378 23.2033 35.4573 23.2832 35.9366 23.3786C36.4804 23.4739 36.9751 23.6182 37.4235 23.8089C37.8719 23.9687 38.1914 24.2573 38.3821 24.6722C38.5728 25.0562 38.511 25.6308 38.1915 26.3987L29.7984 46.2566C29.5433 46.8647 29.2701 47.4548 28.9841 48.0321C28.7289 48.6067 28.3759 49.0706 27.9301 49.4236C27.4817 49.7767 26.8272 49.9519 25.9639 49.9519C25.6444 49.9519 25.3712 49.9828 25.1496 50.0472C24.9254 50.1117 24.7965 50.4157 24.7656 50.9595C24.7656 51.2146 24.8301 51.4542 24.9563 51.6784C25.0852 51.9026 25.3068 52.0134 25.6289 52.0134C26.3324 51.9825 26.9071 51.949 27.3555 51.9181C27.8038 51.9181 28.2342 51.9026 28.6516 51.8691H32.8237L32.8211 51.8666ZM39.8226 27.8856H39.967L44.8116 40.2111H34.7384L39.8226 27.8856Z" fill="#4C3226"/>
<path d="M26.1369 82.9469C25.4025 82.4985 24.8897 82.5475 24.6011 83.0912C23.609 84.6889 22.4906 85.8563 21.2434 86.5933C20.027 87.2968 18.5582 87.6498 16.8316 87.6498C14.6567 87.6498 12.7395 87.0416 11.0748 85.8279C9.44357 84.5807 8.16542 82.9186 7.23772 80.839C6.34353 78.7285 5.89514 76.3938 5.89514 73.8349C5.89514 70.7967 6.32807 68.2403 7.19134 66.1608C8.05461 64.0503 9.23742 62.4525 10.7398 61.3651C12.2756 60.2776 14.0022 59.7339 15.9194 59.7339C17.6769 59.7339 19.0375 60.1642 19.9961 61.0301C20.9547 61.8624 21.434 62.9963 21.434 64.4342C21.434 65.2666 21.2253 65.9366 20.8104 66.4494C20.4265 66.9287 20.027 67.2972 19.6121 67.5523C19.2282 67.7765 19.0375 67.9363 19.0375 68.0316C19.0066 68.2558 19.1818 68.6063 19.5658 69.0882C19.9807 69.5365 20.6687 69.7607 21.6273 69.7607C23.1941 69.7607 24.4078 69.2479 25.2711 68.2249C26.1344 67.1683 26.5492 65.9546 26.5183 64.5785C26.5183 63.3004 26.1833 62.2284 25.5107 61.3651C24.8717 60.5018 24.0239 59.8138 22.9699 59.3035C21.9134 58.7598 20.764 58.3758 19.5168 58.1516C18.3005 57.9275 17.1177 57.8167 15.9684 57.8167C12.7704 57.8167 9.98988 58.5047 7.62168 59.8782C5.28698 61.2208 3.48055 63.1226 2.20239 65.5861C0.924236 68.0161 0.285156 70.8611 0.285156 74.1235C0.285156 77.3859 0.955161 80.2463 2.30032 82.6119C3.6764 84.9775 5.48283 86.802 7.71961 88.0801C9.95638 89.3583 12.4199 90 15.1051 90C16.8961 90 18.4293 89.8557 19.7101 89.567C20.9882 89.2784 22.171 88.7527 23.2585 87.9848C24.346 87.1859 25.4979 86.0186 26.7116 84.4828C26.9358 84.1941 26.9667 83.9235 26.8069 83.6684C26.6472 83.3798 26.423 83.1402 26.1369 82.9495" fill="#4C3226"/>
<path d="M61.3739 58.6311C60.3509 58.6621 59.4387 58.6956 58.6398 58.7265C57.841 58.7574 56.9622 58.7754 56.001 58.7754C55.0398 58.7754 54.1611 58.76 53.3623 58.7265C52.5634 58.6956 51.6512 58.6621 50.6281 58.6311C50.3086 58.6311 50.0844 58.7419 49.9555 58.9661C49.8267 59.1903 49.7649 59.43 49.7649 59.6851C49.7958 60.2288 49.9246 60.5329 50.1488 60.5973C50.373 60.6618 50.6436 60.6927 50.9631 60.6927C52.0506 60.6927 52.8494 60.8215 53.3623 61.0766C53.906 61.3008 54.259 61.8909 54.4188 62.8521C54.5786 63.7798 54.6584 65.2977 54.6584 67.4082V80.0223C54.6584 81.1741 54.4343 82.2925 53.9859 83.38C53.5375 84.4675 52.7232 85.3797 51.5404 86.1141C50.3885 86.8176 48.7264 87.1707 46.5514 87.1707C44.8558 87.1707 43.4978 86.931 42.4747 86.4517C41.4826 85.9389 40.7327 85.2998 40.2199 84.5319C39.7071 83.733 39.3566 82.8852 39.1633 81.9885C39.0036 81.0608 38.9237 80.182 38.9237 79.3497V64.3854C38.9546 63.7128 39.019 63.1073 39.1144 62.5635C39.2097 61.9889 39.4829 61.5405 39.9287 61.2209C40.408 60.8705 41.1914 60.6927 42.2789 60.6927C42.5675 60.6927 42.7891 60.6437 42.9514 60.5484C43.1112 60.453 43.2066 60.1644 43.2401 59.6851C43.2401 59.43 43.1756 59.1903 43.0494 58.9661C42.9205 58.7419 42.6963 58.6311 42.3768 58.6311C40.3307 58.7265 38.331 58.7754 36.3803 58.7754C35.4216 58.7754 34.494 58.76 33.5972 58.7265C32.703 58.6956 31.7418 58.6621 30.7188 58.6311C30.3992 58.6311 30.175 58.7419 30.0462 58.9661C29.9173 59.1903 29.8555 59.43 29.8555 59.6851C29.8864 60.2288 30.0152 60.5329 30.2394 60.5973C30.4636 60.6618 30.7342 60.6927 31.0563 60.6927C32.0794 60.6927 32.7983 60.8834 33.2158 61.2673C33.6307 61.6178 33.8884 62.0816 33.9837 62.6589C34.1126 63.2026 34.1744 63.7773 34.1744 64.3854V80.7412C34.1744 82.308 34.6073 83.7949 35.4706 85.2019C36.3339 86.6089 37.6301 87.7608 39.3566 88.655C41.0832 89.5492 43.2272 89.9976 45.7835 89.9976C47.0307 89.9976 48.3269 89.8223 49.6695 89.4693C51.0121 89.1188 52.2593 88.5751 53.4112 87.8381C54.594 87.0702 55.5372 86.0806 56.2407 84.8643C56.9751 83.6506 57.3436 82.1946 57.3436 80.499V67.117C57.3436 65.5811 57.3745 64.3828 57.439 63.5196C57.5343 62.6254 57.7121 61.9837 57.9672 61.5998C58.2558 61.1849 58.6553 60.9272 59.1655 60.8318C59.7092 60.7365 60.4127 60.6875 61.276 60.6875C61.5646 60.6875 61.7862 60.6386 61.9486 60.5432C62.1084 60.4479 62.2037 60.1593 62.2372 59.6799C62.2372 59.4248 62.1728 59.1852 62.0465 58.961C61.9177 58.7368 61.696 58.626 61.3739 58.626" fill="#4C3226"/>
<path d="M85.8687 76.904C85.1007 75.6877 84.0777 74.6827 82.7995 73.8813C81.5523 73.0824 80.1943 72.3635 78.7228 71.7218C77.2514 71.0492 75.798 70.3303 74.3575 69.5623C73.0794 68.8588 72.1182 68.1399 71.4791 67.4029C70.84 66.6684 70.5205 65.7073 70.5205 64.5244C70.5205 63.3416 70.9843 62.2232 71.912 61.262C72.8706 60.2699 74.391 59.7752 76.468 59.7752C77.8441 59.7752 78.9934 60.1102 79.9211 60.7827C80.8488 61.4218 81.3126 62.3495 81.3126 63.5658C81.3126 64.3003 81.122 64.862 80.738 65.2434C80.354 65.5964 79.9701 65.8516 79.5861 66.0113C79.2021 66.1402 79.0115 66.251 79.0115 66.3463C79.0115 66.537 79.1712 66.8256 79.4908 67.2096C79.8412 67.5601 80.4339 67.7688 81.2663 67.8332C82.5135 67.8332 83.5211 67.4647 84.289 66.7303C85.0879 65.9624 85.4873 65.0038 85.4873 63.8519C85.4873 62.4139 85.0234 61.262 84.0957 60.3988C83.2015 59.5046 82.0497 58.8475 80.6427 58.4326C79.2691 58.0177 77.8621 57.809 76.4216 57.809C74.4709 57.809 72.6954 58.113 71.0977 58.7212C69.5 59.2958 68.2528 60.2235 67.356 61.5017C66.4618 62.7489 66.0289 64.3801 66.0598 66.3953C66.0907 68.0574 66.5082 69.449 67.307 70.5673C68.1059 71.6548 69.1135 72.567 70.3298 73.3015C71.577 74.0359 72.8887 74.693 74.2622 75.2677C75.6382 75.8423 76.9319 76.4505 78.1482 77.0896C79.3954 77.6977 80.403 78.4321 81.1709 79.2954C81.9388 80.1587 82.3228 81.2616 82.3228 82.6042C82.3228 83.4984 82.0677 84.3797 81.5549 85.243C81.0421 86.0753 80.2922 86.7608 79.3001 87.3045C78.3414 87.8148 77.1741 88.0725 75.798 88.0725C73.8473 88.0725 72.4248 87.6576 71.528 86.8252C70.6338 85.9619 70.1855 84.8101 70.1855 83.3721C70.1855 82.6042 70.3298 82.045 70.6158 81.6945C70.9044 81.3106 71.1905 81.0555 71.4791 80.9266C71.7677 80.7668 71.9094 80.6535 71.9094 80.5916C71.9094 80.4009 71.7342 80.1123 71.3812 79.7283C71.0616 79.3444 70.487 79.1357 69.6546 79.1047C68.4074 79.1047 67.3843 79.4887 66.5855 80.2566C65.8176 80.991 65.4336 81.9342 65.4336 83.0861C65.4336 85.3564 66.3278 87.0829 68.1188 88.2657C69.9097 89.4176 72.4686 89.9923 75.7929 89.9923C77.8724 89.9923 79.7588 89.6238 81.4518 88.8893C83.1474 88.1549 84.49 87.1473 85.4821 85.8666C86.5052 84.5884 87.018 83.1325 87.018 81.5013C87.018 79.615 86.634 78.0791 85.8661 76.8963" fill="#4C3226"/>
<path d="M84.0622 23.0307C83.7839 22.4509 83.485 21.7731 82.985 21.3505C82.9799 21.3454 82.9747 21.3428 82.9696 21.3428C82.9644 21.3428 82.9567 21.3428 82.9515 21.3454C82.9464 21.3479 82.9412 21.3531 82.9386 21.3582C82.9386 21.3634 82.9361 21.3711 82.9386 21.3763C83.0623 22.0102 83.4102 22.6055 83.619 23.2162C83.8354 23.8424 84.0441 24.4737 84.258 25.1025C84.3534 25.3808 84.7399 25.2674 84.691 24.984C84.575 24.3062 84.3611 23.6491 84.0596 23.0307" fill="#846A5E"/>
<path d="M84.9187 22.3479C84.7254 21.817 84.478 21.3119 84.143 20.8558C83.8493 20.4564 83.4859 19.9925 83.0118 19.8018C82.986 19.7915 82.9679 19.8225 82.9808 19.8457C83.0891 20.0724 83.2591 20.2709 83.4009 20.477C83.5426 20.6832 83.6895 20.8764 83.8183 21.0877C84.0889 21.5232 84.3183 21.9845 84.5012 22.4638C84.5966 22.7215 85.014 22.6081 84.9161 22.3479" fill="#846A5E"/>
<path d="M86.0991 22.5204C85.8929 22.0179 85.6507 21.5309 85.3698 21.0619C85.0941 20.6032 84.7874 20.1651 84.4524 19.7502C84.1406 19.3611 83.7876 18.8869 83.3443 18.6447C83.3366 18.6396 83.3263 18.637 83.316 18.6396C83.3057 18.6396 83.298 18.6447 83.2902 18.6524C83.2825 18.6602 83.2799 18.6679 83.2773 18.6782C83.2773 18.6885 83.2773 18.6988 83.2825 18.7066C83.401 18.9204 83.5685 19.0957 83.7231 19.2838C83.8932 19.4951 84.0556 19.7116 84.2076 19.9358C84.4988 20.3661 84.7591 20.8171 84.9884 21.2835C85.2204 21.7551 85.4317 22.237 85.6172 22.724C85.8027 23.2136 85.9548 23.6981 86.2022 24.1568C86.282 24.3037 86.532 24.2418 86.5217 24.0717C86.5088 23.8063 86.4624 23.5435 86.3851 23.2883C86.3052 23.0255 86.2047 22.7704 86.1017 22.5178" fill="#846A5E"/>
<path d="M85.4094 23.5744C85.3037 23.3167 85.2084 23.0152 84.9765 22.8426C84.9069 22.791 84.827 22.8632 84.8193 22.9327C84.7935 23.2059 84.9481 23.5048 85.0331 23.7599C85.1285 24.0486 85.2264 24.3346 85.3089 24.6284C85.381 24.8861 85.783 24.7778 85.7109 24.5176C85.6284 24.198 85.5279 23.8836 85.4068 23.577" fill="#846A5E"/>
<path d="M94.3154 23.3786C94.3412 23.1776 94.2716 22.9586 94.2226 22.7628C94.1711 22.5592 94.1067 22.3608 94.0242 22.1701C93.9495 21.9845 93.8619 21.8093 93.7562 21.6392C93.6428 21.4614 93.496 21.3042 93.3285 21.1779C93.3182 21.1676 93.3053 21.1625 93.2898 21.1599C93.2743 21.1599 93.2615 21.1599 93.2486 21.1676C93.2357 21.1754 93.2254 21.1857 93.2202 21.1986C93.2151 21.2114 93.2125 21.2269 93.2177 21.2424C93.2975 21.6315 93.4444 21.9845 93.5681 22.3633C93.63 22.5515 93.6918 22.7421 93.7459 22.9354C93.7975 23.1261 93.8207 23.3168 93.9108 23.4895C94.0191 23.7033 94.2922 23.5719 94.3154 23.3786Z" fill="#846A5E"/>
<path d="M98.1009 25.2727C97.9721 24.8347 97.7943 24.2858 97.4747 23.9508C97.4129 23.8864 97.3304 23.9559 97.3407 24.0281C97.3716 24.2574 97.4696 24.4791 97.5469 24.6955C97.6293 24.93 97.6989 25.1671 97.7659 25.4067C97.8303 25.6335 97.8819 25.8629 97.9334 26.0922C97.985 26.3216 98.003 26.5612 98.0932 26.7725C98.137 26.8782 98.3251 26.8524 98.3432 26.739C98.3818 26.5122 98.3225 26.2623 98.2865 26.0355C98.2426 25.7778 98.1808 25.5227 98.1035 25.2727" fill="#846A5E"/>
<path d="M100.896 27.6719C100.831 27.3858 100.767 26.9993 100.573 26.7725C100.566 26.7648 100.555 26.7597 100.545 26.7545C100.535 26.7519 100.522 26.7493 100.512 26.7519C100.501 26.7519 100.488 26.7571 100.481 26.7648C100.47 26.77 100.463 26.7803 100.457 26.788C100.388 26.9014 100.396 27.0174 100.419 27.1436C100.452 27.3266 100.488 27.5095 100.524 27.6951C100.591 28.0507 100.658 28.4089 100.705 28.7671C100.798 29.4835 100.844 30.2024 100.991 30.9111C101.019 31.0554 101.233 31.0142 101.238 30.8776C101.267 30.1535 101.194 29.4319 101.086 28.7155C101.035 28.3677 100.975 28.0198 100.898 27.677" fill="#846A5E"/>
<path d="M96.7674 40.6699C96.6025 40.9404 96.5355 41.2651 96.4556 41.5692C96.3706 41.8991 96.2804 42.2289 96.1954 42.5588C96.1155 42.8706 96.033 43.1798 95.9428 43.4865C95.8604 43.7673 95.6851 44.0431 95.6568 44.3343C95.6465 44.4399 95.7856 44.5147 95.8707 44.4554C96.1052 44.2956 96.1851 43.9838 96.2649 43.7235C96.3706 43.3834 96.4556 43.0381 96.5433 42.6953C96.6283 42.3526 96.7004 42.0021 96.7649 41.6543C96.8216 41.3373 96.8911 40.9997 96.837 40.6802C96.8293 40.6441 96.7829 40.6441 96.7674 40.6673" fill="#846A5E"/>
<path d="M78.1638 51.0627C77.6561 50.7741 77.2387 50.3386 76.8057 49.952C76.7697 49.9185 76.7052 49.9623 76.7336 50.0061C77.0686 50.5267 77.4345 50.988 77.9164 51.3822C78.1483 51.5729 78.4163 51.207 78.1638 51.0627Z" fill="#846A5E"/>
<path d="M74.0536 48.7692C73.8603 48.581 73.6877 48.3749 73.4892 48.1919C73.4454 48.1533 73.3655 48.1919 73.3861 48.2512C73.4789 48.5269 73.6361 48.7717 73.8088 49.0037C73.9788 49.2382 74.1721 49.4804 74.404 49.6479C74.6025 49.7922 74.8112 49.4881 74.6566 49.3206C74.4762 49.1248 74.2469 48.9573 74.0536 48.7692Z" fill="#846A5E"/>
<path d="M64.824 40.8012C64.7441 40.4378 64.6719 40.0719 64.5843 39.7111C64.5379 39.523 64.4967 39.3297 64.4683 39.1365C64.44 38.9432 64.4683 38.7242 64.3859 38.5515C64.3807 38.5386 64.3704 38.5283 64.3601 38.5206C64.3498 38.5128 64.3369 38.5077 64.3215 38.5077C64.3086 38.5077 64.2931 38.5077 64.2828 38.5128C64.2699 38.518 64.2596 38.5283 64.2519 38.5386C64.1359 38.6778 64.1385 38.8917 64.1308 39.0669C64.1256 39.2782 64.1308 39.4869 64.1514 39.6982C64.1823 40.0719 64.2364 40.4455 64.3086 40.8115C64.4503 41.5691 64.6436 42.319 64.8806 43.0534C65.11 43.7749 65.396 44.4759 65.7362 45.1536C65.9088 45.4886 66.0918 45.8159 66.2902 46.1328C66.4732 46.4266 66.6871 46.8466 67.0041 47.0064C67.1484 47.0786 67.3133 46.9188 67.2849 46.7745C67.2489 46.589 67.12 46.4472 67.0169 46.29C66.9216 46.1483 66.8288 46.004 66.7386 45.8623C66.5428 45.553 66.365 45.2309 66.2 44.9062C65.8779 44.262 65.6048 43.5946 65.3831 42.9091C65.1564 42.2159 64.9786 41.5098 64.8214 40.8012" fill="#846A5E"/>
<path d="M74.3782 45.4062C74.2416 45.2465 74.1205 45.079 73.989 44.9166C73.8447 44.7388 73.6798 44.5687 73.5458 44.3832C73.5097 44.3342 73.4402 44.3832 73.4608 44.4373C73.5432 44.6563 73.6051 44.8754 73.7159 45.0867C73.8241 45.2825 73.9452 45.4732 74.0792 45.6536C74.3421 46.0247 74.6281 46.3649 75.0379 46.5684C75.128 46.6148 75.2466 46.4911 75.1925 46.4009C74.9683 46.0324 74.659 45.7387 74.3782 45.4088" fill="#846A5E"/>
<path d="M75.8571 45.6227C75.7102 45.468 75.5685 45.3057 75.4319 45.1408C75.1613 44.8083 74.9139 44.4605 74.6897 44.0971C74.2336 43.3653 73.8574 42.587 73.5636 41.7753C73.5482 41.7315 73.4812 41.7547 73.4889 41.7985C73.6306 42.6643 73.9218 43.4993 74.3522 44.2646C74.5661 44.6408 74.8057 45.0016 75.0711 45.3443C75.2026 45.5144 75.3391 45.6793 75.4809 45.8391C75.6071 45.9808 75.7514 46.2128 75.9653 46.1638C75.9911 46.1587 76.0169 46.1483 76.0375 46.1303C76.0581 46.1123 76.0736 46.0917 76.0839 46.0659C76.1303 45.8572 75.9963 45.7695 75.8597 45.6227" fill="#846A5E"/>
<path d="M79.4202 48.3929C79.1599 48.1172 78.8971 47.844 78.6394 47.5631C78.124 47.0065 77.6266 46.4344 77.1576 45.8392C76.2506 44.6899 75.462 43.4349 74.9106 42.0743C74.5988 41.3038 74.3746 40.5101 74.1736 39.7035C74.1607 39.6545 74.0782 39.6494 74.0782 39.7061C74.0705 41.1672 74.6168 42.6232 75.3022 43.8962C76.0393 45.2619 76.9901 46.5014 78.008 47.6688C78.2915 47.9935 78.5801 48.3156 78.8739 48.6326C79.0259 48.7949 79.1805 48.9573 79.3352 49.117C79.4949 49.2845 79.6392 49.4572 79.8531 49.5551C80.0438 49.6402 80.2139 49.416 80.1443 49.2433C80.0103 48.9186 79.6599 48.6506 79.4202 48.3955" fill="#846A5E"/>
<path d="M76.3258 43.5585C76.5268 43.9991 76.7639 44.4218 77.0344 44.8238C77.1633 45.0196 77.3076 45.2026 77.4674 45.3726C77.6271 45.5453 77.8333 45.7927 78.0858 45.7901C78.2224 45.7901 78.3641 45.6819 78.3306 45.5273C78.2817 45.2953 78.0781 45.1665 77.926 44.999C77.7663 44.8289 77.6194 44.6485 77.4828 44.4578C77.2148 44.0842 77.0061 43.677 76.787 43.2724C76.2768 42.3293 75.8619 41.3243 75.313 40.3992C75.277 40.3373 75.1636 40.3554 75.1816 40.4378C75.3955 41.5124 75.8671 42.5638 76.3283 43.5533" fill="#846A5E"/>
<path d="M79.7766 47.5012C79.5396 47.2745 79.3051 47.0425 79.068 46.8132C78.9391 46.6895 78.818 46.5607 78.6917 46.437C78.5912 46.3365 78.4985 46.2128 78.3619 46.1664C78.349 46.1612 78.3361 46.1612 78.3232 46.1638C78.3104 46.1664 78.2975 46.1715 78.2872 46.1818C78.2769 46.1896 78.2691 46.2025 78.264 46.2153C78.2588 46.2282 78.2562 46.2411 78.2588 46.254C78.2691 46.3957 78.3722 46.5194 78.4469 46.6405C78.5423 46.79 78.6479 46.9343 78.751 47.076C78.9546 47.3492 79.1736 47.6069 79.4081 47.8517C79.872 48.3465 80.3874 48.8618 80.9852 49.1891C81.1811 49.2974 81.4723 49.068 81.2841 48.8722C80.8177 48.3825 80.2714 47.9677 79.7792 47.5012" fill="#846A5E"/>
<path d="M64.4798 37.5415C64.4412 37.1755 64.3562 36.8199 64.2995 36.4566C64.2428 36.0932 64.2041 35.735 64.1371 35.3743C64.1139 35.248 63.9439 35.2635 63.9232 35.382C63.7944 36.1035 63.8588 36.9617 64.132 37.6471C64.2119 37.8481 64.503 37.7425 64.4798 37.5415Z" fill="#846A5E"/>
<path d="M63.866 29.7177C63.8428 29.558 63.8222 29.3982 63.8093 29.2384C63.781 28.8957 63.7784 28.553 63.799 28.2102C63.8351 27.5737 63.9278 26.9243 63.8763 26.2878C63.8711 26.226 63.7861 26.2286 63.7655 26.2775C63.5026 26.8986 63.3918 27.6201 63.3583 28.2927C63.3403 28.6329 63.3454 28.973 63.3712 29.3132C63.3944 29.5966 63.4047 29.9986 63.6238 30.2022C63.7036 30.2769 63.8376 30.2125 63.8711 30.1249C63.9278 29.9806 63.8892 29.8646 63.866 29.7177Z" fill="#846A5E"/>
<path d="M64.8614 28.0892C64.967 27.7027 64.9129 27.2517 64.9464 26.8523C64.9825 26.4297 65.0418 26.0097 65.1242 25.5948C65.2041 25.185 65.3123 24.7805 65.4335 24.3785C65.5546 23.9765 65.7453 23.5976 65.7942 23.1853C65.7942 23.175 65.7942 23.1647 65.7865 23.157C65.7813 23.1493 65.7736 23.1415 65.7659 23.1364C65.7582 23.1312 65.7478 23.1312 65.7375 23.1312C65.7272 23.1312 65.7195 23.1364 65.7118 23.1415C65.4129 23.425 65.2557 23.8399 65.0985 24.2135C64.9284 24.6284 64.7918 25.0588 64.6913 25.4968C64.5908 25.9169 64.5238 26.3421 64.4852 26.7699C64.4491 27.1847 64.3769 27.7001 64.5135 28.0996C64.565 28.249 64.8176 28.2413 64.8614 28.0867" fill="#846A5E"/>
<path d="M64.92 29.5221C64.9175 29.2644 64.9278 29.0196 64.8427 28.7748C64.7963 28.6408 64.6056 28.6717 64.5618 28.7851C64.4588 29.0376 64.4768 29.3005 64.4794 29.5659C64.4845 29.8339 64.4948 30.1019 64.5232 30.3699C64.5515 30.6353 64.585 30.893 64.6263 31.1533C64.6701 31.4213 64.6855 31.7151 64.7757 31.9676C64.8273 32.1093 65.0669 32.0707 65.0695 31.9186C65.0747 31.6584 65.0077 31.3929 64.987 31.1327C64.9664 30.8595 64.9509 30.5864 64.9432 30.3106C64.9355 30.0478 64.9226 29.7849 64.92 29.5221Z" fill="#846A5E"/>
<path d="M66.0471 32.3437C65.9156 31.8154 65.8306 31.2769 65.7894 30.7357C65.7456 30.1662 65.7353 29.5941 65.7585 29.0246C65.7688 28.7463 65.7894 28.468 65.8177 28.1923C65.8461 27.9217 65.9105 27.6279 65.8486 27.3599C65.8486 27.3573 65.8486 27.3548 65.8435 27.3522C65.8435 27.3522 65.8383 27.3496 65.8358 27.3496C65.8332 27.3496 65.8306 27.3496 65.8255 27.3496C65.8229 27.3496 65.8203 27.3522 65.8177 27.3548C65.6657 27.5893 65.6399 27.8908 65.5987 28.1613C65.5549 28.4474 65.5214 28.736 65.493 29.0246C65.4338 29.6199 65.426 30.2177 65.4673 30.813C65.5497 31.8876 65.7456 33.0601 66.3254 33.9852C66.3898 34.0857 66.5599 34.0239 66.5238 33.9002C66.364 33.3822 66.1759 32.872 66.0445 32.3437" fill="#846A5E"/>
<path d="M70.1282 17.7119C70.4117 17.4722 70.7209 17.2609 71.0482 17.0857C71.2208 16.9981 71.4012 16.9182 71.5816 16.8486C71.7465 16.7816 71.9346 16.7507 72.0815 16.6476C72.0893 16.6425 72.097 16.6347 72.1021 16.6244C72.1073 16.6141 72.1073 16.6038 72.1073 16.5961C72.1073 16.5883 72.1022 16.5755 72.0944 16.5677C72.0867 16.56 72.079 16.5549 72.0686 16.5523C71.7929 16.4389 71.3883 16.5574 71.1203 16.6502C70.7905 16.7636 70.4787 16.9182 70.1901 17.1115C69.5871 17.5212 69.0562 18.0417 68.5924 18.6009C67.6518 19.7348 66.9148 21.0258 66.42 22.4148C66.1417 23.1956 65.8866 24.0383 65.8634 24.868C65.8557 25.1025 66.2139 25.1515 66.2731 24.9247C66.4458 24.2573 66.5617 23.5796 66.7731 22.9199C66.9869 22.2473 67.2627 21.5979 67.5925 20.9743C68.229 19.7683 69.0768 18.5906 70.1282 17.7119Z" fill="#846A5E"/>
<path d="M71.2793 17.7918C71.4468 17.6707 71.6195 17.5625 71.8024 17.4645C71.9828 17.3692 72.1941 17.2919 72.3307 17.1398C72.3359 17.1347 72.341 17.127 72.3436 17.1192C72.3436 17.1115 72.3436 17.1038 72.3436 17.0935C72.3436 17.0857 72.3384 17.078 72.3307 17.0728C72.323 17.0677 72.3178 17.0625 72.3101 17.06C71.9184 16.9698 71.4236 17.2996 71.1092 17.5032C70.7201 17.7557 70.3697 18.0572 70.063 18.4025C69.4085 19.1421 68.9266 20.1214 68.7204 21.0825C68.6663 21.3377 69.0219 21.433 69.107 21.1908C69.4188 20.294 69.7563 19.4514 70.3465 18.6989C70.6145 18.3562 70.9288 18.0495 71.2793 17.7918Z" fill="#846A5E"/>
<path d="M72.3649 18.5701C71.8495 18.7891 71.4784 19.2556 71.1718 19.7091C70.8548 20.1781 70.5713 20.7012 70.4605 21.263C70.4219 21.4614 70.7131 21.6212 70.8136 21.4099C71.0455 20.9203 71.2465 20.4203 71.5326 19.9591C71.816 19.5055 72.1819 19.1061 72.4319 18.6345C72.4371 18.6242 72.4396 18.6139 72.4396 18.6036C72.4396 18.5933 72.4345 18.583 72.4267 18.5753C72.419 18.5675 72.4087 18.5624 72.3984 18.5624C72.3881 18.5624 72.3778 18.5624 72.3675 18.5701" fill="#846A5E"/>
<path d="M70.4383 21.9612C70.1548 22.2369 70.0698 22.7523 70.0028 23.1286C69.928 23.5563 69.8945 24.0047 70.0028 24.4325C70.0466 24.6077 70.2888 24.5562 70.3017 24.3913C70.3352 23.9867 70.3197 23.5821 70.3584 23.1775C70.379 22.9714 70.4177 22.7678 70.4537 22.5642C70.4872 22.3787 70.5439 22.188 70.5259 21.9999C70.5259 21.9896 70.5233 21.9793 70.5182 21.9715C70.513 21.9638 70.5053 21.9561 70.495 21.9509C70.4846 21.9483 70.4743 21.9458 70.464 21.9483C70.4537 21.9483 70.4434 21.9561 70.4383 21.9638" fill="#846A5E"/>
<path d="M66.6162 17.6011C67.3919 17.1424 68.2139 16.7688 69.0901 16.5497C69.9637 16.3281 70.8785 16.2611 71.7778 16.2328C71.7856 16.2328 71.7933 16.2302 71.7984 16.225C71.8036 16.2199 71.8087 16.2122 71.8087 16.2044C71.8087 16.1967 71.8088 16.189 71.8036 16.1838C71.7984 16.1787 71.7933 16.1735 71.7856 16.1709C70.8707 15.9442 69.943 15.9802 69.0205 16.1606C68.0851 16.3436 67.178 16.6786 66.3766 17.194C66.1215 17.3589 66.3508 17.7609 66.6162 17.6037" fill="#846A5E"/>
<path d="M90.6425 28.3469C90.6425 28.3469 90.6347 28.334 90.6296 28.3315C90.6218 28.3289 90.6167 28.3263 90.609 28.3315C90.6012 28.3315 90.5961 28.3366 90.5935 28.3444C90.5909 28.3495 90.5883 28.3572 90.5909 28.365C90.779 29.5014 91.011 30.6301 91.2094 31.7665C91.3073 32.3257 91.4052 32.8849 91.4954 33.4467C91.5882 34.0188 91.6603 34.5934 91.7918 35.1578C91.8407 35.3716 92.1757 35.3227 92.1706 35.1062C92.1474 33.9621 91.9103 32.7973 91.6552 31.6841C91.3975 30.5502 91.0831 29.4267 90.6476 28.3469" fill="#846A5E"/>
<path d="M91.8619 29.236C91.599 28.3212 91.2769 27.4244 90.8929 26.5534C90.8852 26.538 90.8569 26.5483 90.8646 26.5663C91.983 29.8184 92.4211 33.2432 92.5499 36.6653C92.586 37.6317 92.6118 38.598 92.702 39.5618C92.7277 39.8427 93.1297 39.8504 93.1452 39.5618C93.2276 37.8198 93.055 36.0572 92.8437 34.3281C92.635 32.6118 92.3309 30.9007 91.8645 29.236" fill="#846A5E"/>
<path d="M93.4714 33.5756C93.5333 33.1556 93.4766 32.733 93.4353 32.3103C93.3967 31.9135 93.3426 31.5167 93.2781 31.1224C93.1416 30.2797 92.9689 29.45 92.6623 28.6537C92.652 28.6253 92.603 28.6253 92.6056 28.6614C92.7009 29.486 92.8504 30.3003 92.9534 31.125C93.005 31.5321 93.0462 31.9418 93.0849 32.3516C93.1235 32.7613 93.1235 33.1762 93.2215 33.5756C93.2498 33.689 93.4508 33.7045 93.4688 33.5756" fill="#846A5E"/>
<path d="M93.4338 34.7094C93.4801 35.6525 93.5368 36.5931 93.6013 37.5311C93.6141 37.7115 93.877 37.7141 93.8822 37.5311C93.9182 36.5725 93.8126 35.6164 93.5678 34.6887C93.5497 34.6166 93.4286 34.6295 93.4338 34.7068" fill="#846A5E"/>
<path d="M94.2046 31.8207C94.2046 31.8207 94.1943 31.8001 94.1814 31.7924C94.1711 31.7872 94.1583 31.782 94.1454 31.7846C94.1325 31.7846 94.1222 31.7924 94.1144 31.8027C94.1067 31.813 94.1016 31.8233 94.1016 31.8362C94.1325 32.4082 94.1505 32.9829 94.1737 33.555C94.1969 34.1116 94.1608 34.6837 94.2691 35.2326C94.2923 35.3511 94.483 35.3511 94.5087 35.2326C94.6273 34.6682 94.5551 34.0807 94.501 33.5137C94.4417 32.9442 94.3438 32.3799 94.2046 31.8233" fill="#846A5E"/>
<path d="M87.9265 15.1761C87.3596 14.8411 86.6767 14.6762 86.035 14.5551C85.9964 14.5473 85.968 14.6015 86.0067 14.6221C86.5453 14.8927 87.0967 15.1271 87.5967 15.4647C88.0631 15.7791 88.411 16.1631 88.7434 16.6115C88.8671 16.7764 89.1763 16.6913 89.1042 16.4594C88.9238 15.8822 88.4342 15.475 87.9265 15.1761Z" fill="#846A5E"/>
<path d="M75.7305 11.3625V11.3546C75.7305 11.3546 75.7331 11.373 75.7305 11.3625Z" fill="#846A5E"/>
<path d="M62.5741 16.2844C62.5741 16.2844 62.5818 16.2792 62.5844 16.2766C62.5869 16.2741 62.5895 16.2689 62.5895 16.2637C62.5895 16.2586 62.5895 16.256 62.5844 16.2509C62.5818 16.2483 62.5792 16.2457 62.5741 16.2431C62.2751 16.1194 61.9659 16.2689 61.6824 16.3797C61.3629 16.506 61.0382 16.6271 60.729 16.7766C60.1131 17.0729 59.5255 17.4388 59.0179 17.9001C58.8581 18.047 59.0952 18.2866 59.255 18.1398C59.724 17.712 60.2651 17.3847 60.8321 17.1013C61.1052 16.9647 61.3784 16.8255 61.6541 16.6915C61.953 16.5498 62.2519 16.3668 62.5741 16.2818" fill="#846A5E"/>
<path d="M102.846 20.5156C102.179 18.0263 101.225 15.5422 99.7926 13.3853C98.4423 11.3443 96.5818 9.69511 94.3965 8.59733C92.2267 7.50729 89.8379 6.92491 87.4208 6.7806C84.5836 6.61052 81.7541 7.02025 79.0122 7.73664C78.3474 7.90672 77.6928 8.10514 77.0409 8.3216C76.8038 8.40149 76.358 8.6798 76.1054 8.63084C75.8374 8.5793 75.8709 8.08968 75.8658 7.83199C75.8478 6.51518 76.6002 5.2499 76.2678 3.92793C76.1776 3.56716 76.0075 3.16258 75.7138 2.92035C75.572 2.80181 75.3994 2.72193 75.2113 2.73224C74.9974 2.74255 74.8428 2.87912 74.6856 3.01055C74.3274 3.30689 73.9718 3.6084 73.6136 3.90217C73.2992 4.16244 72.9281 4.37632 72.9564 4.84017C72.9822 5.25506 73.2451 5.64933 73.4048 6.02298C73.4564 6.13894 73.4976 6.25748 73.5388 6.3786C72.8353 6.26779 72.1292 6.22398 71.4206 6.14667C70.5831 6.06163 69.7533 5.92248 68.9339 5.73179C68.1299 5.54625 67.349 5.28082 66.6017 4.93552C65.9163 4.61082 65.2591 4.22428 64.6226 3.81197C63.3445 2.98993 62.123 2.07255 60.7727 1.36904C60.0898 1.00569 59.3734 0.717077 58.6287 0.505769C57.7886 0.273845 56.9176 0.155306 56.0518 0.0908823C55.1833 0.0238821 54.3123 0.0161508 53.4413 0.00584308C52.5832 -0.00188772 51.7302 -0.00961585 50.8747 0.0367689C49.2203 0.121808 47.5865 0.423307 46.0996 1.17062C43.4506 2.50547 41.5179 4.94325 39.8867 7.3501C39.4615 7.97887 39.0517 8.61537 38.6343 9.24672C38.2168 9.87807 37.8122 10.5326 37.3664 11.1459C36.7995 11.9293 36.2248 12.7101 35.5651 13.4188C35.2379 13.777 34.8823 14.1094 34.5034 14.4135C34.3102 14.5681 34.1092 14.7098 33.8979 14.8412C33.7381 14.9417 33.4778 15.0165 33.3541 15.1582C33.2691 15.2561 33.2614 15.4262 33.367 15.4958C33.4572 15.5551 33.5758 15.5164 33.6763 15.4752C34.2535 15.2432 34.8642 14.9495 35.4775 14.8335C36.1398 14.6583 36.8279 14.6016 37.5107 14.6634C38.2142 14.7227 38.9023 14.8619 39.6109 14.8696C40.2706 14.8747 40.9303 14.8309 41.5849 14.7356C42.9275 14.5475 44.2262 14.1274 45.5327 13.777C46.7851 13.4471 48.0633 13.2204 49.3517 13.0992C51.8694 12.8519 54.4953 12.8415 56.8893 11.9345C57.9999 11.5118 58.9895 10.9192 59.9455 10.2208C60.8526 9.55338 61.721 8.83699 62.641 8.1876C63.5352 7.55625 64.4938 6.97902 65.5426 6.64144C66.8878 6.20852 68.2484 6.26779 69.5961 6.63371C71.0031 7.01252 72.4127 7.33206 73.8223 7.6516C73.8738 7.96599 73.9202 8.28037 73.9872 8.5896C74.013 8.7133 74.0413 8.83441 74.0697 8.95811H74.0619C74.0078 8.96326 73.9537 8.97099 73.9022 8.98387C72.6034 9.30341 71.3201 9.57142 70.0445 9.98888C66.5296 11.1356 62.8781 12.6457 60.113 15.1659C56.9666 18.0521 55.4771 22.2293 55.2761 26.422C55.2607 26.489 55.2452 26.5534 55.2297 26.6204C55.2246 26.6462 55.2246 26.6694 55.2297 26.6951C55.2349 26.7209 55.2452 26.7415 55.2607 26.7621C55.1266 30.9368 56.142 35.1939 58.0695 38.8918C59.9197 42.4453 62.6539 45.2825 65.7642 47.7435C68.0319 49.5371 70.5754 51.0008 73.3198 51.931C77.3656 53.2994 81.7129 53.3226 85.8128 52.1913C89.4617 51.1786 92.8323 49.3541 95.6747 46.8519C96.154 46.4293 96.6153 45.986 97.0559 45.5248C97.0791 45.5145 97.0997 45.5016 97.1178 45.4861C97.208 45.4037 97.2878 45.3109 97.3548 45.2078C100.035 42.301 101.95 38.7217 102.962 34.8949C104.207 30.1972 104.099 25.1928 102.844 20.5053M73.7192 4.52063C73.8945 4.36859 74.0748 4.22171 74.2552 4.07482L74.732 3.6857L74.9896 3.47955C75.036 3.44089 75.1752 3.28886 75.2422 3.28886C75.3581 3.28886 75.4561 3.52851 75.4947 3.61355C75.5102 3.64447 75.5231 3.67797 75.5334 3.71147C75.4767 3.81197 75.4148 3.90732 75.3478 4.00009C75.219 4.15728 75.0747 4.29901 74.9201 4.42786C74.7783 4.55155 74.6237 4.65721 74.4768 4.77575C74.3583 4.87367 74.1934 4.9484 74.1367 5.09528C74.1341 5.10817 74.1341 5.12363 74.1392 5.13652C74.1444 5.1494 74.1547 5.15971 74.165 5.16744C74.3068 5.27567 74.5516 5.21125 74.7113 5.17775C74.9304 5.13394 75.1339 5.01798 75.3169 4.88913C75.4432 4.79894 75.5617 4.69586 75.6674 4.5799C75.6339 4.61597 75.6571 4.85306 75.6468 4.91232C75.6287 5.01025 75.5952 5.10559 75.5437 5.19063C75.3221 5.55656 74.9355 6.01783 74.5412 6.20337C74.4459 6.24717 74.5129 6.40179 74.6134 6.37344C74.7036 6.3451 74.8093 6.36571 74.902 6.35025C74.9613 6.33995 75.018 6.32448 75.0721 6.30644C75.0257 6.41467 74.9819 6.52291 74.9304 6.63371C74.8582 6.78575 74.5851 6.98675 74.6289 7.16456C74.6727 7.3501 74.8247 7.32433 74.9664 7.33979C74.9407 7.50214 74.8814 7.65418 74.7861 7.78818C74.7551 7.83456 74.7216 7.90672 74.7655 7.9428C74.7887 7.95826 74.817 7.96341 74.8453 7.95826C74.9278 7.95053 75.0077 7.92218 75.0876 7.90929C75.085 8.06649 75.0051 8.27007 74.9329 8.4118C74.8582 8.55353 74.9433 8.69784 75.0876 8.73649C75.1932 8.76484 75.2216 8.68495 75.2679 8.80607C75.2989 8.88595 75.2319 9.00965 75.1855 9.07149C75.1674 9.09211 75.1546 9.1153 75.1468 9.13849C75.1443 9.16168 75.1468 9.18488 75.1597 9.20549C75.1726 9.22611 75.1881 9.24157 75.2113 9.25188C75.2319 9.26219 75.4561 9.31115 75.469 9.2828C75.4535 9.31888 75.4303 9.35238 75.3994 9.37815C75.371 9.40392 75.3375 9.42711 75.2989 9.43999C75.2628 9.4503 75.2293 9.46834 75.1958 9.48895C75.1726 9.51215 75.1571 9.54049 75.1546 9.57399C75.152 9.60749 75.1546 9.63842 75.17 9.66676C75.2009 9.72346 75.2525 9.76726 75.3118 9.79303C75.3968 9.83169 75.487 9.84457 75.5798 9.83684C75.7163 9.82396 75.6236 9.93992 75.5772 9.99146C75.5566 10.0146 75.5334 10.0353 75.5076 10.0507C75.4818 10.0636 75.4509 10.0662 75.4277 10.0816C75.4019 10.0997 75.3839 10.128 75.3762 10.159C75.3685 10.1899 75.371 10.2234 75.3839 10.2517C75.3942 10.2749 75.6107 10.4991 75.621 10.4656C75.6107 10.494 75.603 10.5249 75.5978 10.5558C75.572 10.7362 75.5025 10.9887 75.7318 11.0738C75.6493 11.182 75.688 11.3547 75.804 11.4294C75.9354 11.5144 76.0539 11.4397 76.1776 11.4088C76.157 11.5273 76.0359 11.6046 75.9689 11.7025C75.9328 11.7567 75.8967 11.8237 75.9148 11.8881C75.938 11.9628 76.2343 12.0942 76.2781 11.9989C76.2266 12.0917 76.1596 12.1741 76.0771 12.2411C76.041 12.2669 76.0101 12.303 75.9921 12.3416C75.9843 12.3674 75.9843 12.3957 75.9921 12.4241C75.9998 12.4499 76.0127 12.4756 76.0333 12.4937C76.1312 12.6045 76.291 12.638 76.4301 12.638C76.425 12.638 76.2781 12.7745 76.2652 12.7874C76.1956 12.8596 76.1647 12.8982 76.1931 13.0013C76.2369 13.1611 76.443 13.2693 76.5951 13.2848C76.7033 13.2951 76.8141 13.277 76.912 13.2281C76.912 13.2564 76.9172 13.2848 76.9198 13.3131C76.827 13.3569 76.7317 13.393 76.6337 13.4188C76.541 13.4394 76.2936 13.4445 76.2678 13.5708C76.2214 13.795 76.5925 13.8749 76.7471 13.8749C76.8038 13.8749 76.8579 13.8697 76.912 13.8594C76.8734 13.9084 76.827 13.9496 76.7755 13.9831C76.6827 14.0424 76.5873 14.0939 76.4894 14.1377C76.4508 14.1558 76.3786 14.1815 76.3941 14.2382C76.4224 14.3387 76.5435 14.3826 76.6337 14.4212C76.6982 14.447 76.7677 14.4599 76.8373 14.4599C76.6982 14.5011 76.5513 14.5449 76.4868 14.6402C76.4868 14.6428 76.4843 14.6454 76.4843 14.6505C76.4843 14.6531 76.4843 14.6583 76.4868 14.6609C76.5951 14.8593 77.0306 14.8361 77.2393 14.8129C77.2161 14.8412 77.1929 14.867 77.1697 14.8954C77.1208 14.9546 77.0873 15.0294 77.0795 15.1067C76.7806 15.2381 76.4714 15.3463 76.1544 15.4314C76.2163 13.8594 75.7962 12.3262 75.3633 10.8238C75.1314 10.0146 74.8917 9.20807 74.7062 8.38603C74.5232 7.57687 74.3815 6.74968 74.0594 5.97917C73.9073 5.6184 73.6574 5.26536 73.5517 4.88655C73.4976 4.69586 73.5775 4.63144 73.7141 4.5129M75.5282 10.0456C75.5463 10.0275 75.5488 10.0378 75.5282 10.0456V10.0456ZM37.9024 11.2748C37.8844 11.2825 37.8689 11.2928 37.8535 11.3005L37.8715 11.2773C37.8715 11.2773 37.8921 11.2773 37.9024 11.2748ZM36.5495 12.7926C36.9232 12.4524 37.2865 12.1071 37.6756 11.7824C38.0854 11.4423 38.5389 11.182 39.0105 10.9372C39.0208 10.932 39.0285 10.9217 39.0311 10.9088C39.0337 10.8985 39.0337 10.8857 39.0311 10.8753C39.026 10.865 39.0182 10.8547 39.0079 10.8496C38.9976 10.8444 38.9847 10.8418 38.9744 10.8444C38.624 10.9475 38.2838 11.0789 37.9591 11.2413C37.9643 11.2361 37.9694 11.2335 37.9746 11.2284C38.3096 10.8625 38.5544 10.4373 38.9255 10.0997C39.2965 9.76211 39.7346 9.50699 40.1933 9.29826C40.2268 9.2828 40.2011 9.23641 40.1701 9.24157C39.8042 9.30857 39.4512 9.43484 39.1265 9.62038C39.3017 9.37557 39.4769 9.13334 39.647 8.88853C39.9975 8.39118 40.3454 7.88868 40.701 7.38876C41.1494 7.08726 41.6519 6.88368 42.1801 6.78318C42.1879 6.78318 42.193 6.77544 42.1956 6.77029C42.2008 6.76514 42.2007 6.75741 42.2007 6.74967C42.2007 6.74194 42.1956 6.73679 42.1904 6.73164C42.1853 6.72648 42.1776 6.72391 42.1724 6.72391C41.7575 6.74968 41.3478 6.8476 40.9664 7.0151C41.0643 6.8811 41.1622 6.7471 41.2602 6.6131C41.371 6.49714 41.474 6.37602 41.59 6.26263C41.7781 6.0771 41.9817 5.91217 42.2033 5.76786C42.6311 5.48698 43.1568 5.25248 43.667 5.15971C43.6979 5.15455 43.6928 5.09786 43.6593 5.10301C43.0949 5.15713 42.5873 5.27567 42.0822 5.54625C43.0589 4.33767 44.1386 3.22185 45.4451 2.36116C45.8574 2.09058 46.2903 1.8535 46.7387 1.64993C47.2284 1.59839 47.718 1.55458 48.2179 1.56746C48.9472 1.58808 49.6532 1.69631 50.3722 1.80454C50.4031 1.80969 50.4263 1.76589 50.3954 1.75043C49.7537 1.43346 49.009 1.2737 48.2978 1.22731C48.1689 1.21958 48.0375 1.21185 47.9035 1.20927C48.2359 1.10877 48.5709 1.02373 48.9111 0.956732C49.2435 0.949001 49.5759 0.972192 49.9084 0.979923C50.7227 0.997962 51.5086 1.21958 52.3152 1.30204C52.3435 1.30462 52.3539 1.25823 52.3307 1.24793C51.8359 0.985079 51.2638 0.835617 50.6892 0.74027C51.0757 0.714501 51.4597 0.696462 51.8462 0.691308C52.0988 0.704193 52.3487 0.735117 52.5961 0.768617C53.2223 0.848502 53.833 1.02373 54.4077 1.29173C54.4154 1.29689 54.4257 1.29689 54.4335 1.29431C54.4438 1.29431 54.4489 1.28658 54.4541 1.27885C54.4592 1.27112 54.4592 1.26081 54.4566 1.25308C54.4566 1.24277 54.4489 1.23762 54.4412 1.23247C54.1345 1.02631 53.8098 0.845925 53.4697 0.696463C53.9284 0.704194 54.3845 0.719655 54.8406 0.73254C55.222 0.742848 55.6059 0.760885 55.9873 0.791808C56.4357 0.879424 56.9202 0.851076 57.3583 0.995384C57.6752 1.10362 57.9767 1.24792 58.2628 1.42316C58.5437 1.59323 58.8168 1.8097 59.1209 1.94112C59.1286 1.94628 59.1363 1.94627 59.1467 1.94627C59.1544 1.94627 59.1621 1.94112 59.1673 1.93339C59.1724 1.92566 59.175 1.91793 59.175 1.9102C59.175 1.90247 59.1698 1.89474 59.1647 1.887C58.9508 1.6525 58.6545 1.45923 58.389 1.28658C58.286 1.21958 58.1803 1.15773 58.0747 1.09846C58.639 1.22731 59.1879 1.41027 59.7187 1.6422C61.0871 2.25035 62.3111 3.12651 63.5506 3.95628C63.7181 4.06967 63.8856 4.18048 64.0557 4.28871C63.9114 4.23717 63.7671 4.18563 63.6202 4.13924C62.9038 3.90732 62.1746 3.72178 61.4401 3.5517C61.0227 3.43574 60.6026 3.33524 60.18 3.25278C59.8373 2.95386 59.3837 2.83789 58.9457 2.72193C58.4792 2.60597 58.0077 2.52093 57.5309 2.46939C57.4845 2.46424 57.4794 2.53639 57.5206 2.54928C57.951 2.67555 58.3684 2.83789 58.773 3.03116L58.6622 3.01828C58.3246 2.96674 57.987 2.91778 57.6469 2.8817C57.3325 2.85078 57.0001 2.79408 56.6754 2.78378C56.5852 2.73481 56.4924 2.69101 56.4125 2.64978C56.2193 2.54928 56.0183 2.45908 55.8121 2.38435C55.3972 2.23231 54.972 2.11635 54.5391 2.03647C54.0959 1.95143 53.6501 1.89216 53.2068 1.80454C52.7584 1.71435 52.3178 1.57777 51.8694 1.48758C51.8359 1.47985 51.8101 1.52881 51.8436 1.54685C52.2147 1.74785 52.6528 1.84835 53.0574 1.954C53.4903 2.06739 53.9258 2.18335 54.3561 2.30705C54.771 2.42043 55.1808 2.55701 55.5802 2.71678C55.7245 2.77605 55.8637 2.84562 56.0028 2.91778C55.9358 2.91778 55.8714 2.92293 55.8044 2.92551C55.0983 2.96158 54.3896 3.0492 53.7222 3.29143C53.4078 3.40739 53.1037 3.54913 52.8022 3.69086C52.7301 3.6857 52.6579 3.68055 52.5884 3.66767C52.3152 3.61355 52.0446 3.54397 51.7818 3.45893C51.2484 3.28886 50.7046 3.15743 50.1532 3.06208C49.0631 2.88943 47.9525 2.67039 46.8444 2.83274C46.7928 2.84047 46.8083 2.91778 46.8547 2.91778C48.0246 2.96416 49.1945 2.98478 50.2975 3.43316C50.8154 3.64447 51.3154 3.90217 51.8308 4.11863L51.8462 4.12378H51.8411C51.2149 4.37632 50.5577 4.52836 49.9032 4.67782C49.8388 4.67782 49.7744 4.67782 49.7125 4.67782C49.4625 4.67267 49.2126 4.65463 48.9652 4.62628C48.4343 4.56444 47.9061 4.49744 47.3752 4.44075C46.8598 4.38663 46.347 4.33767 45.8316 4.28871C45.3137 4.23975 44.7648 4.13924 44.2443 4.16501C44.2365 4.16501 44.2288 4.16759 44.2236 4.17274C44.2185 4.1779 44.2159 4.18305 44.2133 4.19078C44.2133 4.19851 44.2133 4.20624 44.2185 4.2114C44.2236 4.21655 44.2288 4.22171 44.2365 4.22428C44.7313 4.38663 45.2879 4.43044 45.8007 4.51805C46.3238 4.60825 46.8495 4.69844 47.3726 4.7809C47.8133 4.85048 48.2514 4.91748 48.692 4.97675C48.4627 5.04375 48.2359 5.1159 48.0143 5.20352C47.3546 5.46121 46.7181 5.7756 46.1151 6.14667C45.9991 6.13894 45.8832 6.14152 45.7672 6.14152C45.5276 6.14152 45.2879 6.1441 45.0483 6.15698C44.569 6.18275 44.0896 6.15698 43.6103 6.16729C43.6052 6.16729 43.5974 6.17244 43.5949 6.17502C43.5923 6.1776 43.5871 6.18533 43.5871 6.19306C43.5871 6.20079 43.5871 6.20594 43.5949 6.2111C43.6 6.21625 43.6052 6.21883 43.6103 6.21883C44.1077 6.27552 44.6076 6.30129 45.1024 6.37602C45.2853 6.40437 45.4709 6.42498 45.6538 6.44302C45.525 6.52806 45.3987 6.61568 45.275 6.70329C44.6746 7.12849 44.0974 7.58718 43.5356 8.06391C43.3578 8.02783 43.1439 8.07937 42.979 8.10256C42.7213 8.13864 42.461 8.1876 42.2059 8.23657C41.6751 8.33449 41.1519 8.46849 40.6391 8.64115C40.6082 8.65145 40.6108 8.70557 40.6469 8.70299C41.1803 8.63084 41.7086 8.56126 42.2446 8.51487C42.5074 8.49168 42.7677 8.48395 43.0305 8.47107H43.0666C42.7496 8.7468 42.4352 9.02511 42.1234 9.30857C41.7756 9.39876 41.438 9.52245 41.0952 9.62811C40.701 9.74665 40.299 9.84715 39.9021 9.95796C39.8583 9.96827 39.8661 10.0404 39.9124 10.0378C40.3299 10.0043 40.7448 9.9425 41.1545 9.8523C41.3194 9.81623 41.4869 9.78015 41.6519 9.73634C41.237 10.1126 40.8195 10.4862 40.3995 10.8521L40.1804 11.0428C39.8248 11.1923 39.4898 11.3959 39.1522 11.5763C38.7915 11.767 38.3998 11.9267 38.0622 12.1612C38.057 12.1638 38.0519 12.169 38.0493 12.1767C38.0493 12.1818 38.0493 12.1896 38.0493 12.1973C38.0519 12.2025 38.057 12.2076 38.0622 12.2102C38.0673 12.2128 38.0751 12.2153 38.0828 12.2102C38.4771 12.1097 38.8533 11.9138 39.2321 11.7644C39.2811 11.7438 39.3326 11.7257 39.3842 11.7077C38.0905 12.7514 36.6964 13.6816 35.1219 14.2331C35.0575 14.2537 34.9931 14.2769 34.9312 14.2975C35.5059 13.8337 36.0496 13.3312 36.5573 12.7926M57.7474 10.9243C56.6496 11.4217 55.4384 11.6948 54.2479 11.8803C54.8226 11.5711 55.3998 11.1949 55.8765 10.7645C55.9023 10.7413 55.8688 10.7078 55.843 10.7207C55.1911 11.0119 54.5932 11.4062 53.9284 11.6716C53.4104 11.8752 52.8692 12.0118 52.3152 12.0762C51.7431 12.1432 51.1582 12.0401 50.6016 12.2179C50.9958 11.9396 51.4391 11.6948 51.823 11.383C51.8462 11.365 51.823 11.3289 51.7947 11.3366C51.1633 11.5376 50.5887 11.9061 49.9444 12.0788C48.6817 12.4163 47.3881 12.6096 46.1125 12.8931C44.8782 13.1688 43.6799 13.5837 42.4584 13.9058L42.3399 13.9367C43.0305 13.411 43.6026 12.7256 44.1773 12.0813C44.1824 12.0762 44.1824 12.0685 44.1824 12.0607C44.1824 12.053 44.1773 12.0478 44.1747 12.0427C44.1695 12.0375 44.1618 12.035 44.1566 12.0324C44.1489 12.0324 44.1438 12.0324 44.136 12.0375C43.5562 12.5581 43.0099 13.1353 42.3786 13.5914C42.0358 13.8388 41.4663 14.197 40.9587 14.2279C40.9922 14.2047 41.0257 14.1815 41.0592 14.1584C41.6338 13.7357 42.1363 13.2229 42.5435 12.638C42.577 12.589 42.5074 12.5478 42.4688 12.5787C41.9534 12.9936 41.5153 13.4729 40.9174 13.7718C40.634 13.911 40.3299 14.0037 40.0155 14.045C39.9305 14.0579 39.8377 14.0682 39.7449 14.0759L39.7501 14.0707C40.0104 13.8517 40.2578 13.6172 40.4923 13.3724C40.7268 13.1302 40.9922 12.8647 41.1648 12.5735C41.2061 12.5065 41.1184 12.4524 41.0643 12.4962C40.8376 12.6792 40.6391 12.8982 40.4124 13.0864C40.1779 13.2796 39.933 13.4549 39.6754 13.6146C39.1677 13.9342 38.727 14.2047 38.1163 14.2485L39.7372 12.808C39.7011 12.7642 39.6341 12.7952 39.5877 12.8287C39.0234 13.2255 38.4436 13.7564 37.8251 14.0604C37.1963 14.3697 36.4877 14.0604 35.8538 14.3259C37.3046 13.7151 38.6162 12.7977 39.8403 11.8005C40.902 10.9346 41.9121 9.99661 42.9584 9.11015C42.796 9.36269 42.6594 9.63326 42.5126 9.87807C42.1904 10.4063 41.8245 10.9037 41.4174 11.3701C41.3967 11.3907 41.3864 11.4165 41.3864 11.4448C41.3864 11.4732 41.3967 11.499 41.4174 11.5196C41.438 11.5402 41.4637 11.5505 41.4921 11.5505C41.5204 11.5505 41.5462 11.5402 41.5668 11.5196C42.0152 11.1305 42.3914 10.6666 42.6826 10.1486C42.8244 9.89096 42.9403 9.62553 43.0614 9.36268C43.1671 9.14364 43.2882 8.93234 43.4171 8.72618C43.8577 8.36541 44.3061 8.01495 44.77 7.6851C44.8447 7.63099 44.922 7.57945 44.9993 7.52533C44.5715 8.11803 44.2443 8.80091 43.9711 9.42711C43.8809 9.63584 44.1721 9.82138 44.2829 9.61007C44.6153 8.98645 44.9323 8.34737 45.3137 7.75468C45.5173 7.43772 45.7492 7.14137 46.0069 6.86822C46.4733 6.58475 46.9526 6.32706 47.4474 6.10029C47.7979 5.94052 48.156 5.79879 48.522 5.68025C48.0452 6.11833 47.6716 6.69041 47.5118 7.31402C47.468 7.4841 47.7257 7.61037 47.8082 7.43772C48.0916 6.83214 48.4292 6.26521 48.9008 5.7859C49.0116 5.6751 49.1275 5.56944 49.2487 5.47152C49.6764 5.36329 50.1094 5.27567 50.5397 5.17775C50.3567 5.29371 50.1815 5.41998 50.0114 5.55656C49.5012 5.96887 49.1069 6.46621 48.8673 7.07695C48.8054 7.23414 49.0502 7.32433 49.1327 7.19033C49.4394 6.69556 49.7898 6.20852 50.2124 5.80394C50.4237 5.59779 50.6557 5.41482 50.9005 5.25248C51.0963 5.12878 51.3051 5.02829 51.5061 4.9149C51.9596 4.76544 52.4002 4.58763 52.8306 4.38405H52.8564C52.5239 4.62113 52.2199 4.89171 51.9467 5.19321C51.2535 5.96371 50.7046 6.85275 50.1403 7.7186C49.5708 8.59218 49.0451 9.50184 48.3339 10.2723C47.5917 11.0738 46.6666 11.6536 45.6358 12.0092C45.6178 12.0143 45.6023 12.0272 45.592 12.0453C45.5817 12.0633 45.5791 12.0814 45.5843 12.102C45.5894 12.12 45.6023 12.138 45.6178 12.1484C45.6358 12.1587 45.6538 12.1612 45.6745 12.1561C46.5918 12.0118 47.401 11.517 48.1122 10.9372C48.8698 10.311 49.5476 9.59461 50.13 8.80349C50.7665 7.94537 51.3102 7.02283 51.9493 6.16729C52.5239 5.37875 53.2584 4.71905 54.101 4.22943C54.418 4.04905 54.7478 3.89186 55.088 3.76044C55.0184 3.79651 54.9514 3.83516 54.8844 3.87897C54.5236 4.11863 54.2196 4.43559 53.9979 4.80667C53.748 5.2164 53.6191 5.69055 53.3486 6.08483C53.2481 6.22913 53.4594 6.36571 53.5779 6.26263C53.9052 5.97659 54.1397 5.63387 54.3484 5.25506C54.5365 4.89686 54.7968 4.58247 55.1138 4.32994C55.4204 4.09286 55.7606 3.90732 56.1239 3.7759C56.4667 3.6522 56.8197 3.6084 57.1753 3.54655C57.5541 3.5517 57.9355 3.56716 58.3143 3.59293C57.9097 3.78878 57.5747 4.11347 57.3042 4.46651C56.7372 5.20352 56.3404 6.09771 55.6292 6.71875C55.5055 6.82698 55.6652 7.03056 55.8044 6.94552C56.5697 6.48425 56.9614 5.7189 57.4356 4.99221C57.6701 4.63659 57.9278 4.2887 58.2576 4.01555C58.4303 3.86866 58.6235 3.74755 58.8297 3.65736C58.8503 3.64962 58.8709 3.6419 58.889 3.63416L59.0462 3.64963C59.9352 3.73466 60.8191 3.8764 61.6927 4.07482C61.2932 4.1109 60.9016 4.19851 60.5253 4.33509C59.7883 4.60051 59.1209 5.02571 58.5694 5.57975C57.9535 6.20852 57.5283 6.98933 56.9717 7.66449C56.4615 8.28295 55.874 8.81895 55.2581 9.32661C54.5494 9.90899 53.7712 10.4012 52.9388 10.7903C52.8538 10.8315 52.9131 10.9733 53.0033 10.9449C54.5159 10.463 55.8791 9.59976 56.9614 8.43499C57.5309 7.81653 57.9742 7.11302 58.4792 6.4456C58.9534 5.81167 59.5615 5.28598 60.2573 4.90717C60.9015 4.56186 61.6025 4.33251 62.324 4.22686C62.6152 4.30417 62.9038 4.39178 63.1899 4.48455C63.7671 4.67267 64.3289 4.89944 64.8881 5.13136C64.3314 5.15971 63.7697 5.38906 63.3032 5.65706C62.9425 5.86321 62.5946 6.08741 62.2596 6.32964C61.9169 6.57702 61.5664 6.82183 61.1747 6.98933C61.0897 7.02541 61.1489 7.16972 61.2391 7.14137C61.605 7.02798 61.9607 6.8811 62.3008 6.70071C62.6461 6.52033 62.9631 6.29098 63.2929 6.08483C63.6254 5.87867 63.9732 5.69829 64.3314 5.54367C64.6536 5.40709 64.9963 5.33237 65.3468 5.31948C65.8596 5.53337 66.375 5.74467 66.9135 5.87609C66.7563 5.90959 66.6043 5.95856 66.4755 5.9869C66.1327 6.06679 65.7926 6.15441 65.4576 6.25748C65.138 6.35798 64.8211 6.47395 64.5144 6.60795C64.4268 6.6466 64.3392 6.68525 64.2516 6.72391C64.0119 6.83472 63.7723 6.95068 63.5378 7.06664C63.5352 7.06664 63.5326 7.06921 63.53 7.07179C63.53 7.07179 63.5274 7.07694 63.5249 7.07952C63.5249 7.0821 63.5249 7.08467 63.5249 7.08725C63.5249 7.08983 63.5249 7.09241 63.5274 7.09499C63.4733 7.12591 63.4218 7.15426 63.3703 7.18776C61.4401 8.34995 59.8218 9.96826 57.7448 10.914M73.2683 7.06148C73.1987 7.05633 73.1291 7.05375 73.0698 7.04344C72.7632 6.99964 72.4539 6.9481 72.1447 6.91975C72.3071 6.93264 72.4668 6.9481 72.6292 6.96356C72.9848 6.98933 73.343 6.99449 73.7012 6.97387C73.7218 7.07179 73.7244 7.07179 73.7424 7.16714C73.6161 7.08468 73.4358 7.06922 73.2683 7.05891V7.06148ZM101.718 33.3153C101.702 32.9468 101.679 32.5783 101.648 32.2098C101.635 32.0474 101.612 31.8851 101.599 31.7201C101.586 31.5681 101.609 31.4032 101.576 31.2563C101.571 31.2383 101.56 31.2228 101.548 31.2125C101.535 31.2022 101.519 31.1919 101.501 31.1867C101.483 31.1816 101.465 31.1816 101.45 31.1867C101.432 31.1919 101.416 31.1996 101.403 31.2125C101.197 31.398 101.207 31.7846 101.189 32.0397C101.164 32.3798 101.156 32.72 101.158 33.0602C101.164 33.7688 101.174 34.4775 101.143 35.1861C101.122 35.8304 101.045 36.4746 100.916 37.1059C100.813 37.5543 100.671 37.9924 100.488 38.415C100.512 38.2527 100.532 38.0877 100.553 37.9254C100.738 36.3561 100.862 34.779 100.857 33.1967C100.857 32.3077 100.834 31.4135 100.628 30.5476C100.615 30.4884 100.514 30.4832 100.504 30.5476C100.375 31.295 100.367 32.0423 100.347 32.7973C100.323 33.5833 100.303 34.3667 100.254 35.1526C100.177 36.4179 100.014 37.678 99.7643 38.9227C99.571 39.871 99.4473 41.4635 98.6433 42.1258C98.6382 42.0768 98.6433 42.0279 98.6639 41.9841C99.0247 40.7523 99.2618 39.4896 99.3726 38.2114C99.4319 37.4873 99.4396 36.7787 99.3262 36.0597C99.321 36.0236 99.2721 36.0391 99.2695 36.0674C99.0762 37.6703 98.9912 39.2757 98.5557 40.8399C98.383 41.4558 98.231 42.0794 97.9991 42.6747C97.8857 42.9762 97.744 43.2674 97.5765 43.5431C97.4476 43.7493 97.0946 44.0095 97.025 44.2286C97.2492 43.5045 97.4373 42.77 97.5842 42.0279C97.7491 41.2213 97.8857 40.4096 98.0145 39.5978C98.1434 38.7861 98.2903 37.9795 98.3495 37.1626C98.3547 37.0776 98.231 37.0673 98.2078 37.1446C97.9733 37.9048 97.8548 38.6933 97.7053 39.4716C97.5558 40.2653 97.4012 41.0564 97.2131 41.8449C97.0585 42.4943 96.8833 43.1385 96.6745 43.7725C96.4864 44.342 96.3215 45.079 95.8396 45.4707C95.9118 45.2851 95.9401 45.0841 95.9221 44.8857C95.9169 44.8264 95.8937 44.7568 95.837 44.7491C95.8061 44.7491 95.7778 44.7594 95.7571 44.78C95.685 44.847 95.6283 44.9295 95.5896 45.0197C95.3397 45.5145 95.1078 46.0247 94.7676 46.4654C95.015 45.7464 95.1773 45.0017 95.2546 44.2466C95.2778 44.0198 95.2881 43.7776 95.1722 43.5818C95.1516 43.5483 95.1206 43.5148 95.082 43.5225C95.0588 43.5302 95.0407 43.5457 95.0279 43.5663C94.8526 43.8111 94.8243 44.1255 94.7856 44.4244C94.6851 45.1949 94.4944 45.9912 94.1646 46.6973C94.1646 46.5684 94.1749 46.4396 94.1904 46.3107C94.2136 45.9989 94.2368 45.5686 94.0564 45.3006C94.0203 45.249 93.9301 45.2207 93.8863 45.2774C93.7059 45.5016 93.693 45.8005 93.6389 46.0762C93.5796 46.3881 93.5333 46.6999 93.4456 47.0065C93.3554 47.3235 93.2214 47.71 92.9406 47.9059C93.0101 47.5296 93.0436 47.1482 93.0385 46.7643C93.0359 46.6019 93.0256 46.437 92.956 46.2901C92.9277 46.2309 92.871 46.1664 92.804 46.1819C92.7731 46.1922 92.7473 46.2128 92.7318 46.2386C92.6597 46.3365 92.6468 46.4654 92.6365 46.5865C92.5772 47.3286 92.621 48.3233 91.7912 48.6583C91.9407 48.112 92.0489 47.5554 92.1185 46.9936C92.1288 46.8983 92.1082 46.7643 92.0129 46.7591C91.9768 46.7591 91.9407 46.7772 91.9149 46.8029C91.8119 46.888 91.7603 47.0271 91.7268 47.1586C91.6057 47.6069 91.5902 48.0811 91.4331 48.5166C91.2784 48.9547 90.9202 49.3721 90.459 49.3928C90.5517 49.1119 90.7708 48.7717 90.7708 48.4754C90.8275 48.2563 90.9383 47.9574 90.8558 47.7358C90.8507 47.7178 90.8404 47.7049 90.8275 47.692C90.8146 47.6791 90.7991 47.6714 90.7811 47.6662C90.763 47.6611 90.745 47.6611 90.7295 47.6662C90.7115 47.6714 90.696 47.6791 90.6832 47.692C90.5234 47.8208 90.4615 48.0811 90.3971 48.2666C90.3147 48.496 90.2322 48.7253 90.1368 48.9469C89.9668 49.3438 89.6163 50.0524 89.1164 50.1194C89.1473 49.8927 89.289 49.6685 89.3406 49.4366C89.3895 49.2227 89.4617 48.9495 89.3895 48.7382C89.3844 48.7227 89.3792 48.7099 89.3689 48.6996C89.3586 48.6893 89.3457 48.6789 89.3328 48.6738C89.32 48.6686 89.3045 48.6661 89.289 48.6661C89.2736 48.6661 89.2581 48.6712 89.2452 48.6789C89.0829 48.7872 89.0107 48.965 88.9128 49.1299C88.7968 49.3232 88.7015 49.5242 88.583 49.7149C88.4309 49.9597 88.2454 50.1813 88.0341 50.3746C88.1088 50.2431 88.1552 50.0963 88.1707 49.9468C88.1887 49.7948 88.1732 49.6427 88.1294 49.4984C87.882 49.6994 87.7661 50.0138 87.6321 50.305C87.4981 50.5962 87.31 50.8951 87.0059 50.9904C87.1244 50.7147 87.1734 50.4132 87.1476 50.1143C87.1425 50.0628 87.127 50.0009 87.078 49.9854C87.011 49.9648 86.9595 50.0499 86.9363 50.1143C86.7894 50.5189 86.5291 50.8745 86.189 51.1399C86.1426 51.1811 86.0885 51.2095 86.0292 51.2224C85.9493 51.2353 85.872 51.1992 85.7999 51.1631L84.8413 50.6915C84.8516 50.9595 85.05 51.176 85.2381 51.3667C84.7614 51.3667 84.2975 51.2069 83.9187 50.9157C83.8388 51.1734 84.0811 51.4053 84.2949 51.5677C84.2176 51.511 83.9136 51.5393 83.795 51.5058C83.5373 51.4311 83.2848 51.2971 83.0348 51.1966C83.1276 51.395 83.2461 51.5806 83.3879 51.7481C82.8132 51.6862 82.2566 51.5136 81.7464 51.243C81.7799 51.5471 82.0144 51.7841 82.236 51.9929C81.633 51.8718 81.097 51.5445 80.5739 51.2224L80.1306 50.9518C80.2517 51.2945 80.463 51.596 80.7439 51.8279C79.8446 51.6012 79.0973 50.9853 78.386 50.3874C78.5716 51.0806 79.2029 51.5445 79.7956 51.9516C79.2983 51.7661 78.7983 51.5831 78.2958 51.4079C78.3525 51.7841 78.7107 52.029 79.038 52.2248C78.8061 52.2815 78.5793 52.1217 78.3963 51.9723C77.9145 51.6166 77.4558 51.2327 77.0177 50.8229C76.4662 50.2973 75.9637 49.7278 75.4097 49.2046C75.402 49.1969 75.3916 49.1917 75.3788 49.1892C75.3684 49.1892 75.3556 49.1892 75.3453 49.1969C75.335 49.2046 75.3272 49.2124 75.3221 49.2227C75.3169 49.233 75.3169 49.2459 75.3195 49.2562C75.5231 50.0396 76.023 50.7276 76.6312 51.2559C76.9352 51.5264 77.2676 51.7635 77.6207 51.9645C77.7238 52.0212 77.8243 52.0779 77.9299 52.132C77.314 51.913 76.7342 51.6038 76.2111 51.2121C75.6931 50.8255 75.2783 50.2973 74.7371 49.9468C74.6881 49.9159 74.6134 49.9674 74.634 50.0241C74.7191 50.2354 74.8299 50.4338 74.9639 50.6168C74.6392 50.3643 74.33 50.0963 74.0362 49.8102C73.3327 49.1299 72.6987 48.3646 72.1138 47.5812C72.0829 47.5374 72.0004 47.5606 72.021 47.6198C72.356 48.6042 72.9977 49.3953 73.7063 50.1401C74.0645 50.5137 74.4176 50.8925 74.8093 51.2327C75.0077 51.4053 75.2344 51.5522 75.4277 51.7223C75.2396 51.5548 74.8814 51.4646 74.6572 51.3435C74.3866 51.2018 74.1238 51.042 73.8764 50.8616C73.3739 50.4931 72.941 50.0344 72.5261 49.5706C71.7633 48.715 71.1114 47.759 70.4336 46.8364C70.4259 46.8235 70.4156 46.8158 70.4001 46.8107C70.3872 46.8081 70.3718 46.8107 70.3589 46.8158C70.346 46.8236 70.3383 46.8339 70.3331 46.8493C70.328 46.8622 70.3331 46.8777 70.3383 46.8906C70.8176 48.0167 71.4644 49.0629 72.2529 49.9983C72.3483 50.1117 72.4462 50.2225 72.5441 50.3308C72.3199 50.1555 72.0983 49.9751 71.8922 49.7793C71.3639 49.2794 70.8769 48.7331 70.4388 48.1507C69.9775 47.5374 69.5858 46.8854 69.2173 46.2154C68.8437 45.5377 68.5241 44.8342 68.153 44.1538C68.1273 44.11 68.068 44.141 68.0757 44.1873C68.3566 45.7361 69.1142 47.241 70.0007 48.5295C70.4207 49.1428 70.9026 49.7149 71.436 50.2328C71.5572 50.3514 71.6834 50.4725 71.8149 50.5884L71.6757 50.5292C70.3847 49.97 69.4312 48.4419 68.7328 47.2642C67.9778 45.986 67.3722 44.6254 66.88 43.2262C66.5811 42.3809 66.4085 41.5099 66.1688 40.6518C66.1688 40.6441 66.1611 40.6363 66.1559 40.6312C66.1508 40.626 66.1405 40.6235 66.1327 40.6235C66.125 40.6235 66.1173 40.626 66.1095 40.6312C66.1018 40.6363 66.0992 40.6441 66.0966 40.6518C65.9395 41.4275 66.0838 42.2572 66.277 43.0174C66.4729 43.7853 66.7486 44.5327 67.0475 45.2645C67.6093 46.6354 68.2819 47.96 69.1374 49.1711C68.9184 48.9933 68.7097 48.8001 68.5138 48.5965C68.1324 48.1842 67.8284 47.7229 67.5346 47.2436C67.4315 47.0761 67.1764 47.2487 67.2485 47.4188C67.4135 47.7899 67.6196 48.1378 67.8696 48.4573C66.9161 47.8337 66.2461 47.0349 65.656 46.0556C64.2181 43.6642 63.3934 40.9559 63.2543 38.1676C63.2388 37.8352 63.2311 37.4976 63.1332 37.1807C62.9734 37.4049 62.9605 37.6961 62.9605 37.9718C62.9631 40.9842 63.8238 43.7106 65.1329 46.3881C64.7051 45.9603 64.3752 45.2362 64.0737 44.695C63.7362 44.0946 63.4424 43.4684 63.195 42.8267C62.6719 41.4403 62.3807 39.9715 62.2493 38.4975C62.172 37.6316 62.1075 36.7658 62.0302 35.9025C62.0251 35.8535 61.9529 35.8587 61.9452 35.9051C61.7107 37.4641 61.8292 39.0489 62.1282 40.59C62.4013 42.0047 62.8497 43.4117 63.53 44.6873C63.6589 44.9321 63.7955 45.1717 63.9423 45.4062C62.4245 44.0224 61.0845 42.5587 60.6284 40.4894C60.4454 39.6623 60.4068 38.8067 60.1955 37.9847C60.0872 39.1675 60.2238 40.3426 60.5356 41.4841C60.564 41.5872 60.5949 41.6929 60.6284 41.796L60.5382 41.68C59.8012 40.693 59.4224 39.6416 59.3683 38.3944C59.3451 37.8249 59.3554 37.2554 59.3966 36.6859C59.4172 36.3921 59.4456 36.1009 59.4713 35.8072C59.492 35.5495 59.5332 35.266 59.4353 35.0238C59.4327 35.016 59.4275 35.0109 59.4198 35.0057C59.4147 35.0006 59.4069 34.998 59.3992 34.998C59.3915 34.998 59.3837 34.998 59.376 35.0006C59.3683 35.0032 59.3631 35.0083 59.358 35.016C59.2111 35.2351 59.1905 35.5237 59.157 35.7788C59.1157 36.0829 59.0771 36.3895 59.0436 36.6962C58.9766 37.2992 58.9147 37.9125 58.9379 38.5207C58.9457 38.6856 58.956 38.8531 58.9714 39.0206C58.9328 38.9356 58.8993 38.8505 58.8658 38.7629C58.2319 37.0853 58.2885 35.2531 58.5308 33.5034C58.5849 33.1168 58.639 32.7355 58.6957 32.3541C58.7395 32.0603 58.858 31.6119 58.7266 31.331C58.724 31.3233 58.7163 31.3156 58.7112 31.3104C58.7034 31.3053 58.6957 31.3001 58.688 31.3001C58.6802 31.3001 58.6699 31.3001 58.6622 31.3001C58.6545 31.3001 58.6467 31.3053 58.639 31.3104C58.4097 31.5346 58.3607 32.0139 58.3014 32.318C58.2267 32.6994 58.1571 33.0808 58.1056 33.4647C57.9973 34.2507 57.9252 35.0418 57.9329 35.8355C57.9381 36.2787 57.969 36.7194 58.0283 37.1601C57.9613 37.0106 57.902 36.8586 57.853 36.7065C57.5284 35.6654 57.451 34.5393 57.5155 33.457C57.5644 32.7174 57.6598 31.9804 57.7963 31.2486C57.9303 30.5013 58.1262 29.754 58.1545 28.9938C58.1545 28.9834 58.1545 28.9706 58.1442 28.9628C58.1365 28.9525 58.1262 28.9474 58.1159 28.9448C58.1056 28.9422 58.0927 28.9448 58.0824 28.9499C58.0721 28.9551 58.0644 28.9654 58.0592 28.9757C57.701 29.6844 57.5232 30.4781 57.366 31.2537C57.2037 32.032 57.1083 32.8231 57.08 33.6194C57.0645 34.0832 57.0774 34.5445 57.116 35.0057C57.098 34.7867 56.9228 34.4775 56.8506 34.2481C56.7501 33.9286 56.6651 33.6065 56.5929 33.2792C56.4589 32.671 56.4022 32.0474 56.4254 31.4238C56.4898 30.1173 56.9408 28.8675 57.482 27.6873C57.6649 27.2878 57.8582 26.8936 58.0412 26.4941C58.1391 26.2828 58.2447 26.0741 58.3298 25.8576C58.4174 25.6412 58.4689 25.4144 58.5385 25.1928C58.5565 25.1361 58.4767 25.0897 58.4432 25.1438C58.2293 25.4814 58.018 25.8035 57.8324 26.1591C57.634 26.5379 57.4382 26.9142 57.2552 27.3007C56.9099 28.0351 56.5903 28.785 56.3687 29.5684C56.2244 30.0761 56.1316 30.5966 56.0904 31.1223C55.9667 30.3312 55.9461 29.5375 56.1291 28.7361C56.2553 28.2052 56.4228 27.6873 56.629 27.1848C56.8248 26.6926 57.1006 26.1978 57.1676 25.6721C57.1676 25.6592 57.1676 25.6489 57.1598 25.6386C57.1547 25.6283 57.147 25.6205 57.1341 25.6154C57.1238 25.6102 57.1135 25.6077 57.1006 25.6077C57.0877 25.6077 57.0774 25.6128 57.0696 25.6206C56.6728 26.0122 56.4306 26.5689 56.2012 27.0714C56.0389 27.4296 55.8971 27.7955 55.7812 28.1717C55.8662 27.8908 55.7683 27.4218 55.7709 27.1229C55.7812 26.1231 56.0337 25.3809 56.5543 24.5254C56.7527 24.1981 56.9717 23.8863 57.2114 23.5873C57.2552 23.5307 57.786 22.9818 57.5876 22.9148C57.4588 22.871 57.3377 22.9689 57.2397 23.0488C57.0928 23.1699 56.9563 23.3013 56.8274 23.443C56.5594 23.7239 56.3198 24.028 56.1136 24.3553C56.1136 23.2472 56.5826 22.4174 57.2165 21.5542C57.5747 21.0697 57.9484 20.611 58.3968 20.2038C58.8529 19.7915 59.3425 19.4205 59.8605 19.088C60.1207 18.9205 60.3836 18.7505 60.649 18.5907C60.9144 18.4283 61.1979 18.2943 61.4169 18.0624C61.4298 18.0521 61.4376 18.0366 61.4427 18.0212C61.4453 18.0057 61.4427 17.9877 61.4376 17.9722C61.4298 17.9568 61.4195 17.9439 61.4066 17.9361C61.3912 17.9284 61.3757 17.9258 61.3602 17.9284C61.0356 17.9619 60.765 18.1165 60.4789 18.2608C60.1877 18.4077 59.9069 18.5701 59.6337 18.7479C59.0874 19.1009 58.5746 19.5003 58.1004 19.9436C57.6366 20.3791 57.2165 20.8584 56.8506 21.3763C57.0078 21.0517 57.1856 20.7347 57.3789 20.428C57.5747 20.1343 57.786 19.8508 58.0128 19.5802C58.2319 19.32 58.4792 19.0829 58.6596 18.7968C58.6674 18.7814 58.6519 18.7685 58.6364 18.7736C58.152 18.9978 57.7165 19.3483 57.3583 19.7555C57.5876 19.2658 57.8453 18.7891 58.1288 18.3278C58.7885 17.5032 59.595 16.81 60.5073 16.2843C61.6489 15.6324 62.8935 15.3334 64.1614 15.0422C64.1846 15.0371 64.1768 15.0062 64.1562 15.0036C62.8239 14.8412 61.4427 15.336 60.3037 15.9983C59.9919 16.1787 59.6904 16.3797 59.4043 16.5961C59.5718 16.4054 59.7445 16.2199 59.9197 16.0395C60.5769 15.4752 61.2958 14.9881 62.105 14.6609C62.5328 14.4882 62.9786 14.3619 63.4347 14.2821C63.7207 14.2331 64.0119 14.2022 64.3031 14.1738C64.5453 14.1506 64.8004 14.13 65.0246 14.0269C65.0453 14.0166 65.035 13.9883 65.0195 13.9831C64.7592 13.8775 64.4551 13.8852 64.1794 13.8904C63.9011 13.8981 63.6228 13.9239 63.3496 13.9677C62.86 14.045 62.3807 14.1738 61.9194 14.3594C61.8885 14.3722 61.855 14.3851 61.8241 14.398C62.0045 14.2666 62.1849 14.1377 62.3704 14.014C62.8162 13.7641 63.2904 13.5631 63.78 13.4162C64.2825 13.2693 64.8005 13.174 65.3236 13.1353C65.839 13.0967 66.3595 13.1688 66.8697 13.1018C66.9187 13.0941 66.9548 13.0245 66.8981 12.9962C66.4265 12.7565 65.8441 12.7539 65.3236 12.772C65.0581 12.7823 64.7901 12.808 64.5273 12.8467C64.6123 12.808 64.6999 12.7694 64.7901 12.7333C65.2128 12.5684 65.6508 12.4473 66.0966 12.3751C66.5399 12.3055 66.9908 12.2849 67.4392 12.3133C67.8928 12.3416 68.3489 12.4602 68.8024 12.4421C68.8076 12.4421 68.8102 12.4421 68.8153 12.437C68.8179 12.4344 68.8205 12.4318 68.8231 12.4267C68.8231 12.4215 68.8231 12.4189 68.8231 12.4138C68.8231 12.4112 68.8179 12.406 68.8153 12.4035C68.4494 12.1252 67.9572 12.0479 67.5114 12.004C67.0218 11.9577 66.5296 11.968 66.0425 12.0375L65.9575 12.0504C66.4419 11.8314 66.929 11.6201 67.4238 11.4191C67.9649 11.2232 68.4932 11.0506 69.0782 11.0557C69.6992 11.0609 70.2687 11.2284 70.8769 11.3366C70.8923 11.3392 70.9052 11.316 70.8897 11.3083C70.5857 11.1485 70.3331 10.9398 70.0084 10.8161C69.8384 10.7516 69.6631 10.7001 69.4853 10.664C69.5781 10.6331 69.6734 10.6048 69.7688 10.5816C70.1089 10.4965 70.4594 10.4708 70.8073 10.5043C71.1552 10.5429 71.5005 10.6177 71.8329 10.7259C72.155 10.8238 72.4926 10.9733 72.8328 10.9733C72.8353 10.9733 72.8379 10.9733 72.8405 10.9707C72.8431 10.9707 72.8456 10.9655 72.8456 10.963C72.8456 10.9604 72.8456 10.9578 72.8456 10.9527C72.8456 10.9501 72.8456 10.9475 72.8431 10.9449C72.6008 10.695 72.2349 10.5584 71.9128 10.4373C71.5778 10.3084 71.2299 10.2156 70.8769 10.1615L71.0959 10.0894C71.4051 10.0043 71.7272 9.97599 72.0468 9.99919C72.4076 10.0378 72.7554 10.1538 73.0672 10.3393C73.2193 10.4347 73.3662 10.5378 73.5053 10.6511C73.6213 10.7413 73.7244 10.8934 73.8764 10.9192C73.879 10.9192 73.8816 10.9192 73.8867 10.9192C73.8893 10.9192 73.8919 10.9192 73.8945 10.9166C73.897 10.9166 73.8996 10.914 73.9022 10.9114C73.9022 10.9114 73.9048 10.9063 73.9073 10.9037C73.9383 10.7491 73.8223 10.6151 73.7321 10.4965C73.6187 10.3445 73.4821 10.2079 73.3249 10.0971C73.0776 9.91157 72.8018 9.77242 72.5055 9.6848C72.7709 9.62553 73.0389 9.56626 73.3069 9.50957C73.5311 9.46319 73.7836 9.45545 74.0181 9.40907C74.0774 9.4168 74.1367 9.4168 74.1959 9.40907C74.2346 9.56111 74.2758 9.71315 74.3171 9.86519C74.6907 11.2464 75.1262 12.6277 75.3272 14.0424C74.969 13.6249 74.5078 13.259 73.9872 13.076C73.9434 13.0606 73.9151 13.1199 73.9434 13.1508C74.3377 13.545 74.7294 13.9264 75.0438 14.3903C75.1004 14.4727 75.152 14.5578 75.2035 14.6454C74.6778 14.0682 74.031 13.6146 73.3095 13.3157C73.2451 13.2874 73.2064 13.3904 73.2631 13.4265C74.098 13.9548 74.7706 14.7201 75.2344 15.5911C75.17 15.5989 75.1056 15.604 75.0386 15.6117C75.0283 15.5576 74.9999 15.5087 74.9613 15.47C74.1624 14.6737 73.1471 14.0991 72.0803 13.7486C72.0674 13.746 72.0519 13.7486 72.0391 13.7538C72.0262 13.7589 72.0159 13.7718 72.0107 13.7847C72.0056 13.7976 72.0056 13.813 72.0107 13.8259C72.0159 13.8388 72.0236 13.8517 72.0365 13.8594C72.9281 14.3078 73.6857 14.916 74.3583 15.6375C74.3016 15.6375 74.2423 15.6375 74.1856 15.6349C74.0181 15.47 73.7708 15.3695 73.5672 15.2587C73.361 15.1453 73.1471 15.0448 72.9281 14.9546C72.4668 14.7614 71.9875 14.6222 71.4953 14.5372C71.4799 14.5346 71.4644 14.5372 71.4515 14.5449C71.4386 14.5526 71.4283 14.5655 71.4257 14.581C71.4206 14.5964 71.4258 14.6119 71.4309 14.6248C71.4386 14.6377 71.4489 14.648 71.4644 14.6531C71.9231 14.8258 72.3663 15.0422 72.7864 15.2948C72.9358 15.385 73.0853 15.47 73.2373 15.5576C72.8559 15.5216 72.4771 15.4829 72.0957 15.452C71.8638 15.3824 71.6139 15.354 71.3794 15.3077L70.5187 15.1402C70.0419 15.0474 69.4879 14.8722 69.0215 15.0732C68.9931 15.0861 69.0112 15.1247 69.0343 15.1247C69.4673 15.1531 69.8873 15.2639 70.3074 15.3747C70.194 15.3747 70.0832 15.3747 69.9698 15.3798C69.2714 15.4004 68.5757 15.47 67.8876 15.5886C67.2073 15.7071 66.4265 15.8282 65.8338 16.2019C65.79 16.2302 65.8029 16.3127 65.8621 16.3075C66.4677 16.2482 67.0553 16.0369 67.6557 15.9313C68.2896 15.8256 68.9313 15.7612 69.5729 15.7406C70.8537 15.6916 72.1344 15.7741 73.3971 15.988C74.0285 16.1014 74.6675 16.1477 75.3092 16.1246C75.9019 16.0962 76.5332 16.0344 77.0924 15.8282C77.6542 15.6246 78.1747 15.3102 78.721 15.0577C79.2648 14.8077 79.824 14.5887 80.3935 14.4083C81.0429 14.1996 81.7103 14.0579 82.388 13.9857C82.7127 13.9548 83.04 13.9419 83.3672 13.947C83.7151 13.9496 84.0707 13.9909 84.4161 13.947C84.4831 13.9393 84.5398 13.8337 84.4573 13.7976C83.9264 13.5605 83.2616 13.5605 82.6895 13.5579C82.0891 13.5502 81.4861 13.5889 80.8908 13.6739C80.5893 13.7177 80.2904 13.777 79.994 13.8491C80.4656 13.6224 80.9578 13.4368 81.4655 13.2951C83.1328 12.8338 84.8464 12.9163 86.5549 12.9266C86.5936 12.9266 86.6065 12.8622 86.5652 12.857C85.2072 12.6122 83.8208 12.5632 82.4499 12.7101C82.0221 12.7539 81.5892 12.8132 81.1588 12.8957C81.2671 12.8364 81.3727 12.7797 81.4861 12.723C82.473 12.2334 83.5502 11.9628 84.6454 11.87C84.6531 11.87 84.6583 11.8649 84.6634 11.8597C84.6686 11.8546 84.6712 11.8468 84.6712 11.8417C84.6712 11.8365 84.6712 11.8288 84.6634 11.8237C84.6583 11.8185 84.6531 11.8159 84.6454 11.8133C83.0013 11.6536 81.2825 12.1947 79.9451 13.1972C79.8034 13.2435 79.6616 13.2925 79.525 13.344C79.6487 13.0889 79.7827 12.8415 79.9322 12.6019C80.3574 11.9138 80.9089 11.3289 81.5015 10.7826C81.5067 10.7748 81.5093 10.7671 81.5067 10.7568C81.5067 10.7491 81.5041 10.7388 81.499 10.7336C81.4938 10.7259 81.4861 10.7207 81.4784 10.7182C81.4706 10.7182 81.4603 10.7156 81.4526 10.7182C80.7671 11.164 80.177 11.7592 79.6719 12.4009C79.4194 12.7178 79.19 13.0554 78.9865 13.4059C78.9426 13.4832 78.8963 13.5605 78.8525 13.6378H78.8499C78.7391 13.6945 78.6257 13.7538 78.5175 13.8156C78.6102 13.5425 78.721 13.277 78.8422 13.0168C79.0019 12.6921 79.1797 12.3777 79.373 12.071C79.5637 11.7541 79.7956 11.468 79.9812 11.1485C79.9837 11.1408 79.9837 11.133 79.9812 11.1253C79.9812 11.1176 79.976 11.1098 79.9708 11.1047C79.9657 11.0995 79.958 11.0944 79.9502 11.0918C79.9425 11.0918 79.9348 11.0918 79.927 11.0918C79.2905 11.4912 78.8215 12.187 78.4659 12.8364C78.3062 13.1224 78.167 13.4214 78.0485 13.728C78.0227 13.4497 78.015 13.1688 78.0227 12.8879C78.0304 12.5942 78.0279 12.3004 78.051 12.0066C78.0639 11.8623 78.0639 11.7128 78.0871 11.5685C78.1103 11.4345 78.1644 11.3108 78.1928 11.182C78.1928 11.1768 78.1928 11.1717 78.1928 11.1691C78.1928 11.164 78.1876 11.1614 78.185 11.1588C78.1825 11.1562 78.1773 11.1537 78.1722 11.1537C78.167 11.1537 78.1618 11.1537 78.1593 11.1562C77.9325 11.2567 77.8346 11.5505 77.7598 11.7695C77.6568 12.0839 77.5846 12.4086 77.5511 12.7359C77.5254 12.9884 77.5176 13.241 77.5279 13.4935C77.5202 13.4652 77.5125 13.4342 77.5047 13.4059C77.43 13.1276 77.3733 12.8415 77.3424 12.5529C77.314 12.2695 77.3063 11.986 77.3218 11.7C77.3372 11.4217 77.3733 11.1433 77.3553 10.8625C77.3553 10.8599 77.3553 10.8573 77.3527 10.8547L77.3475 10.8521C77.345 10.8521 77.3424 10.8521 77.3398 10.8521C77.3398 10.8521 77.3347 10.8547 77.3347 10.8573C77.0924 11.2 76.9971 11.6587 76.9558 12.0968C76.9017 11.9602 76.8502 11.8237 76.7961 11.6871C76.5744 11.115 76.3812 10.53 76.2214 9.93476C76.1261 9.57915 75.9251 9.17457 76.4482 9.10499C76.76 9.06376 77.0873 9.02769 77.3785 8.97872C77.1852 9.37299 77.1079 9.81365 77.2908 10.2285C77.2934 10.2337 77.2986 10.2363 77.3037 10.2388C77.3089 10.2388 77.314 10.2414 77.3192 10.2414C77.3243 10.2414 77.3295 10.2388 77.3347 10.2337C77.3398 10.2311 77.3424 10.226 77.3424 10.2208C77.4815 9.58688 77.8217 9.06891 78.4298 8.80349C78.7906 8.64372 79.1849 8.57672 79.5766 8.50972C79.8059 8.47107 80.0533 8.40149 80.2827 8.40406C80.1358 8.59218 79.9451 8.74937 79.8111 8.95553C79.6719 9.17199 79.5843 9.43226 79.6178 9.68738C79.6951 9.36784 80.11 9.1153 80.36 8.93492C80.6666 8.71588 81.0119 8.56126 81.3779 8.47364C80.9965 8.76999 80.6769 9.1488 80.5455 9.6075C80.5455 9.6075 80.5455 9.61265 80.5455 9.61523C80.5455 9.6178 80.5481 9.62038 80.5507 9.62038C80.5507 9.62038 80.5558 9.62038 80.5584 9.62038C80.561 9.62038 80.5635 9.62038 80.5661 9.6178C81.1227 9.15138 81.6691 8.70557 82.3339 8.39633C82.705 8.22883 83.0889 8.09483 83.4858 7.99949C83.6146 7.96599 83.7435 7.93764 83.8749 7.90929C83.0838 8.27522 82.3416 8.72876 81.7412 9.37041C81.736 9.37557 81.7335 9.38072 81.7335 9.38588C81.7335 9.39103 81.7335 9.39876 81.7386 9.40134C81.7438 9.40392 81.7464 9.40907 81.7541 9.40907C81.7593 9.40907 81.7644 9.40907 81.7721 9.40649C82.5426 9.05603 83.3466 8.6798 84.1506 8.37314C84.8387 8.1103 85.921 7.58203 86.6683 7.72633C86.2663 7.83199 85.8694 7.95568 85.4778 8.09483C84.9856 8.27007 84.3903 8.45045 84.045 8.86276C84.045 8.86534 84.0424 8.86791 84.0398 8.87307C84.0398 8.87564 84.0398 8.8808 84.0398 8.88337C84.0398 8.88595 84.045 8.88853 84.0476 8.8911C84.0501 8.8911 84.0553 8.8911 84.0579 8.8911C84.5681 8.77772 85.0577 8.56126 85.568 8.43757C86.1065 8.30614 86.6425 8.16184 87.1863 8.05618C88.1475 7.86806 89.1808 7.84487 90.1265 8.12833C89.923 8.15926 89.722 8.19018 89.521 8.22884C89.0056 8.32676 88.4361 8.40149 87.949 8.60507C87.913 8.62053 87.9104 8.68237 87.9593 8.68237C88.4232 8.66949 88.8896 8.56384 89.3535 8.52776C90.1523 8.46849 91.0053 8.45303 91.8144 8.59991C92.6777 8.75711 93.4662 9.13849 94.2393 9.53534C92.8581 9.16684 91.4717 8.97615 90.0389 9.07149C90.0312 9.07149 90.026 9.07664 90.0209 9.0818C90.0157 9.08695 90.0132 9.09469 90.0132 9.09984C90.0132 9.10499 90.0157 9.11272 90.0209 9.11788C90.026 9.12303 90.0312 9.12561 90.0389 9.12819C91.5 9.21322 92.9947 9.48123 94.345 10.0662C95.7906 10.6924 97.1049 11.3882 98.1331 12.607L98.1202 12.5967C97.092 11.785 95.953 11.1227 94.7367 10.6331C94.0847 10.3677 93.3658 10.0791 92.6571 10.0172C92.6519 10.0172 92.6442 10.0172 92.6391 10.0224C92.6339 10.025 92.6313 10.0301 92.6287 10.0378C92.6287 10.043 92.6287 10.0507 92.6287 10.0559C92.6287 10.061 92.6339 10.0662 92.6391 10.0688C93.2034 10.3368 93.8116 10.512 94.3811 10.7723C94.966 11.0403 95.5329 11.3418 96.0793 11.6819C97.9862 12.8596 99.4808 14.2485 100.424 16.2998C100.481 16.4235 100.537 16.5498 100.591 16.6734C100.354 16.3101 100.104 15.9545 99.839 15.6092C98.8288 14.2975 97.5919 13.0941 96.1334 12.2952C95.3423 11.8623 94.4352 11.4474 93.5384 11.3083C93.5358 11.3083 93.5307 11.3083 93.5281 11.3083C93.5255 11.3083 93.5204 11.3083 93.5178 11.3108C93.5152 11.3108 93.5126 11.316 93.5101 11.3186C93.5101 11.3212 93.5049 11.3237 93.5049 11.3289C93.5049 11.3315 93.5049 11.3366 93.5049 11.3392C93.5049 11.3418 93.5049 11.3469 93.5075 11.3495C93.5075 11.3521 93.5126 11.3547 93.5152 11.3572C93.5178 11.3572 93.5204 11.3624 93.5255 11.3624C93.9069 11.5222 94.296 11.6536 94.6723 11.8314C95.0408 12.004 95.3964 12.1973 95.7443 12.4112C96.44 12.8364 97.0997 13.3183 97.7105 13.8543C99.6818 15.5963 101.274 17.8717 101.901 20.4564C101.277 19.5132 100.661 18.5675 99.9601 17.6656C99.5014 17.078 99.035 16.5034 98.5119 15.9725C98.4552 15.9158 98.3495 15.9906 98.3985 16.0601C98.7644 16.5755 99.1484 17.078 99.5195 17.5883C99.8905 18.1011 100.226 18.6396 100.55 19.1885C101.151 20.1961 101.736 21.2707 102.161 22.3813C102.594 23.5204 102.733 24.7264 102.862 25.9298C102.362 23.9739 101.596 22.0953 100.586 20.3482C100.092 19.5287 99.5324 18.6886 98.8598 18.0031C98.834 17.9748 98.7825 18.0134 98.8057 18.0469C99.2901 18.7608 99.7772 19.454 100.184 20.2167C100.591 20.9795 100.945 21.7732 101.241 22.5875C101.692 23.8528 102.05 25.1464 102.31 26.4658C102.017 25.5742 101.674 24.698 101.287 23.8399C100.908 22.9844 100.47 22.152 99.9807 21.3532C99.9653 21.3274 99.9215 21.3531 99.9318 21.3815C100.702 23.072 101.326 24.8243 101.795 26.6204C102.035 27.5481 102.233 28.4861 102.388 29.4344C102.524 30.2822 102.792 31.2924 102.568 32.1299C102.377 29.3854 101.782 26.6874 100.805 24.1182C100.723 23.9043 100.622 23.6724 100.414 23.5719C100.512 23.6028 100.677 24.4687 100.713 24.5949C100.818 24.948 100.921 25.3036 101.024 25.6566C101.228 26.355 101.419 27.0611 101.581 27.7697C101.911 29.2205 102.135 30.692 102.256 32.1737C102.364 33.4699 102.127 34.5599 101.741 35.7917C101.749 35.6706 101.756 35.5469 101.759 35.4258C101.785 34.7171 101.761 34.0085 101.73 33.2998L101.718 33.3153Z" fill="#846A5E"/>
<path d="M97.9675 15.7767C98.086 15.9133 98.2973 15.7071 98.1685 15.5757C97.7871 15.1866 97.3851 14.8155 96.965 14.4702C96.9521 14.4599 96.9367 14.4521 96.9212 14.4521C96.9058 14.4521 96.8877 14.4599 96.8774 14.4702C96.8645 14.4831 96.8594 14.4985 96.8594 14.514C96.8594 14.532 96.8645 14.5475 96.8774 14.5604C97.2408 14.965 97.6144 15.3644 97.97 15.7767" fill="#846A5E"/>
<path d="M97.8464 16.3719C97.6042 16.122 97.3439 15.8901 97.0682 15.6762C96.5244 15.251 95.9369 14.7974 95.2952 14.5294C95.2643 14.5166 95.2411 14.5629 95.2617 14.5861C95.7488 15.0783 96.3338 15.4829 96.8517 15.9442C97.0939 16.1581 97.331 16.3771 97.5501 16.6142C97.6634 16.7379 97.7768 16.8667 97.8799 17.0007C97.9753 17.127 98.0474 17.2584 98.1788 17.3486C98.3128 17.4388 98.4468 17.2919 98.4236 17.1605C98.3695 16.8719 98.0423 16.5781 97.8464 16.3745" fill="#846A5E"/>
<path d="M92.4319 13.1147C91.3908 12.571 90.2647 12.2128 89.1025 12.0556C88.5124 11.9783 87.9171 11.9525 87.3244 11.9783C86.7601 12.0041 86.1519 12.0736 85.6211 12.2746C85.5927 12.2849 85.5953 12.3313 85.6288 12.3288C86.1931 12.3133 86.7575 12.2463 87.3244 12.2437C87.8939 12.2411 88.4608 12.2824 89.0226 12.3726C90.1461 12.5478 91.2336 12.9111 92.2386 13.4446C92.4577 13.5631 92.6535 13.2281 92.4319 13.1147Z" fill="#846A5E"/>
<path d="M95.7387 13.5863C95.883 13.6946 96.0119 13.8569 96.2 13.8621C96.2206 13.8621 96.2387 13.8569 96.2567 13.8492C96.2747 13.8389 96.2902 13.8286 96.3031 13.8131C96.316 13.7976 96.3237 13.7796 96.3263 13.759C96.3314 13.7384 96.3288 13.7203 96.3263 13.6997C96.2825 13.5245 96.1072 13.442 95.9707 13.3415C95.8032 13.2204 95.6331 13.1019 95.4553 12.9936C95.1048 12.7746 94.7415 12.5788 94.3652 12.4035C93.6282 12.0582 92.85 11.8031 92.0511 11.6459C92.0383 11.6433 92.0228 11.6459 92.0125 11.6511C91.9996 11.6588 91.9919 11.6691 91.9893 11.682C91.9867 11.6949 91.9893 11.7103 91.9945 11.7232C92.0022 11.7361 92.0125 11.7438 92.0254 11.749C92.8036 11.9629 93.5561 12.2618 94.2699 12.638C94.6152 12.821 94.9502 13.0246 95.2723 13.2462C95.4295 13.357 95.5893 13.4704 95.7439 13.5863" fill="#846A5E"/>
<path d="M64.1944 18.4978C63.2821 18.7555 62.4343 19.3663 61.7102 19.9616C61.3314 20.2759 60.9784 20.6212 60.6588 20.9949C60.3419 21.3634 60.0146 21.7602 59.7801 22.1854C59.6822 22.3607 59.9321 22.4972 60.0429 22.3401C60.3238 21.9509 60.5841 21.5541 60.9011 21.1882C61.2103 20.8326 61.5376 20.4976 61.888 20.1832C62.2359 19.8662 62.607 19.5776 62.9961 19.3147C63.3955 19.0467 63.8233 18.8251 64.2253 18.5623C64.233 18.5571 64.2382 18.5494 64.2408 18.5417C64.2433 18.5339 64.2408 18.5236 64.2408 18.5159C64.2382 18.5082 64.2305 18.5004 64.2227 18.4978C64.215 18.4953 64.2047 18.4927 64.197 18.4978" fill="#846A5E"/>
</svg>
