<svg width="96" height="96" viewBox="0 0 96 96" fill="none" xmlns="http://www.w3.org/2000/svg">
<rect width="96" height="96" rx="20" fill="#13AB7B"/>
<g clip-path="url(#clip0_680_6149)">
<path d="M79.976 83.985H77.8982V61.2489H75.751V83.9429H73.6064V61.2279H41.5984V62.0992C41.5984 68.7996 41.5984 75.4969 41.5984 82.1972C41.5984 83.6665 41.2993 84.003 39.996 84.003C35.3517 84.003 30.7074 84.003 26.0658 84.003C24.8506 84.003 24.5328 83.6455 24.5328 82.2723C24.5328 75.572 24.5328 68.8747 24.5328 62.1744C24.5328 61.8799 24.5328 61.5854 24.5328 61.2459H22.4337V83.9519H20.2891V61.2609H18.1446V83.9639H16V83.1827C16 70.8307 16 58.4817 16 46.1356C16 44.7505 16.3045 44.405 17.525 44.402C18.0537 44.402 18.5852 44.402 19.1995 44.402C19.1995 44.0895 19.1995 43.8251 19.1995 43.5607C19.1995 41.16 19.1941 38.7623 19.1995 36.3616C19.2101 32.5577 21.4642 30.0098 24.8453 30.0068C30.3549 29.9977 35.8645 29.9977 41.3767 30.0068C43.9913 30.0098 45.8661 31.5271 46.6727 34.3184C46.8169 34.8142 47.0679 34.8232 47.4151 34.8082C48.5956 34.7571 49.6852 35.0065 50.449 36.1332C50.6867 36.4847 50.9003 36.8844 51.0205 37.302C51.4719 38.8404 51.1995 41.7128 50.4757 43.1701C50.7321 43.1821 50.9644 43.2031 51.1941 43.2031C55.3043 43.2031 59.4145 43.2181 63.5246 43.1941C64.2938 43.1911 64.892 43.3654 65.111 44.417C65.8935 39.7748 69.1384 37.4312 71.9533 37.2269C75.2756 36.9865 78.3308 39.1709 79.4739 42.5601C80.7371 46.3039 79.6955 49.9876 76.456 52.8059C77.2919 52.8059 77.9783 52.7999 78.6647 52.8059C79.6154 52.8149 79.9893 53.2326 79.9893 54.3142C79.992 64.0372 79.9893 73.7632 79.9893 83.4862C79.9893 83.6304 79.9786 83.7777 79.9679 83.991L79.976 83.985ZM26.7094 61.2249V81.5422H32.024V62.4508H34.1606V81.5632H39.4325V61.2249H26.7094ZM22.4283 58.7551H77.8314V55.2276H22.4283V58.7551ZM44.7765 44.447C42.477 43.9513 41.5984 42.7584 41.5984 40.1684C41.5984 39.5435 41.5824 38.9185 41.6011 38.2965C41.6545 36.7041 42.5892 35.382 43.9459 34.9464C44.1462 34.8833 44.3492 34.8172 44.5548 34.7511C44.0287 33.2578 42.9471 32.4105 41.545 32.4075C37.2612 32.3954 32.9748 32.4015 28.691 32.4015C28.0314 32.4015 27.3744 32.4015 26.7121 32.4015V37.2029C27.7536 37.2029 28.7498 37.2089 29.7486 37.2029C30.5552 37.1968 31.2602 37.4913 31.9172 38.0141C32.1789 38.2214 32.5368 38.3807 32.8546 38.3867C34.652 38.4227 36.452 38.3957 38.2494 38.4107C39.0426 38.4167 39.4271 38.8584 39.4565 39.7448C39.4699 40.1444 39.4645 40.544 39.4619 40.9436C39.4565 43.5907 39.4485 46.2378 39.4485 48.8879C39.4485 50.9731 40.5194 52.5085 42.2287 52.7428C43.0539 52.857 43.8978 52.7608 44.7738 52.7608V44.453L44.7765 44.447ZM38.415 52.7789C37.101 50.937 37.3627 48.8668 37.3226 46.8297H18.1713V52.7789H38.4176H38.415ZM46.9478 52.7548H62.881V45.6278H46.9478V52.7548ZM67.1995 45.6008C67.1995 48.8668 69.6538 51.6161 72.5462 51.592C75.4358 51.568 77.8474 48.8608 77.8554 45.6278C77.8661 42.3408 75.4545 39.6126 72.5381 39.6036C69.6218 39.5945 67.2021 42.3137 67.2021 45.6008H67.1995ZM24.5328 32.4255C22.5832 32.5667 21.36 33.9819 21.3413 36.0821C21.3173 38.7262 21.336 41.3703 21.3387 44.0144C21.3387 44.1315 21.3681 44.2457 21.3841 44.3569H23.4752C23.4752 43.0949 23.3844 41.866 23.5099 40.6642C23.5874 39.916 23.988 39.2069 24.255 38.4858C24.3272 38.2875 24.5194 38.1103 24.5221 37.921C24.5435 36.1032 24.5355 34.2884 24.5355 32.4285L24.5328 32.4255ZM28.2076 44.3989C28.7177 44.3989 29.2278 44.411 29.7379 44.3959C30.4964 44.3719 30.8997 43.9483 30.9264 43.113C30.9504 42.3648 30.9478 41.6137 30.9264 40.8655C30.905 40.0963 30.5231 39.6306 29.8581 39.6126C28.7925 39.5825 27.7269 39.5825 26.6613 39.6126C26.0257 39.6306 25.6331 40.0903 25.6091 40.8054C25.5824 41.5776 25.5824 42.3558 25.6091 43.128C25.6358 43.9332 26.031 44.3629 26.7414 44.3929C27.2302 44.414 27.7189 44.3959 28.2076 44.3989ZM46.4083 41.9982C46.6513 41.9982 46.897 41.9982 47.14 41.9982C47.3831 41.9982 47.6288 42.0013 47.8718 41.9982C48.5795 41.9862 49.0202 41.5656 49.0522 40.7874C49.0843 39.9641 49.0843 39.1378 49.0469 38.3146C49.0175 37.6626 48.5769 37.2089 47.9947 37.1968C46.9291 37.1788 45.8608 37.1758 44.7979 37.2089C44.1622 37.2269 43.767 37.6896 43.7429 38.4017C43.7189 39.1739 43.7162 39.9521 43.7429 40.7243C43.7697 41.5325 44.1622 41.9622 44.8753 41.9892C45.3854 42.0103 45.8982 41.9922 46.4083 41.9952V41.9982ZM33.0362 40.8144V44.3509H37.2853V40.8144H33.0362ZM20.2517 55.2637H18.1766V58.7431H20.2517V55.2637ZM68.6122 52.7729C66.6546 51.2585 65.5543 49.3446 65.0976 46.9439V52.7729H68.6122Z" fill="white"/>
<path d="M33.1009 11.9999C37.2031 12.018 40.5361 15.8038 40.5307 20.4339C40.5254 25.022 37.1256 28.8139 33.0315 28.7958C28.9453 28.7778 25.5803 24.9529 25.6017 20.3558C25.623 15.7377 28.9934 11.9819 33.1009 11.9999ZM27.7382 20.4009C27.7382 23.6519 30.1311 26.3561 33.0395 26.3921C35.9292 26.4282 38.4182 23.6369 38.3969 20.3889C38.3755 17.1078 36.0013 14.4277 33.0982 14.4036C30.1845 14.3766 27.7409 17.1168 27.7409 20.4009H27.7382Z" fill="white"/>
</g>
<defs>
<clipPath id="clip0_680_6149">
<rect width="64" height="72" fill="white" transform="translate(16 12)"/>
</clipPath>
</defs>
</svg>
