<svg width="96" height="96" viewBox="0 0 96 96" fill="none" xmlns="http://www.w3.org/2000/svg">
<rect width="96" height="96" rx="20" fill="#13AB7B"/>
<g clip-path="url(#clip0_666_7486)">
<path d="M48.5783 63.0603C51.5784 60.1574 54.536 57.2924 57.491 54.4274C57.6862 54.2379 57.9164 54.0484 58.0165 53.8109C58.3218 53.0808 58.8197 53.0075 59.4602 53.2854C61.0241 53.9625 62.643 54.531 64.1343 55.342C66.3637 56.5547 68.5406 57.876 70.6649 59.2681C72.4189 60.4176 73.9553 61.8425 74.9861 63.7348C75.6617 64.9778 75.962 66.3295 75.977 67.7291C76.007 70.5234 76.0045 73.3202 75.967 76.1144C75.9345 78.4059 74.2805 80.0001 72.0036 80.0001C56.33 80.0001 40.6565 80.0001 24.983 80.0001C22.6885 80.0001 21.0696 78.3554 21.0571 76.0235C21.0446 73.6057 21.1196 71.1853 21.012 68.7726C20.8494 65.1067 22.3407 62.3377 25.1756 60.1675C28.0081 57.9998 31.0807 56.254 34.306 54.7735C35.5321 54.2101 36.8032 53.7503 38.0442 53.2223C38.367 53.0858 38.5472 53.1212 38.7674 53.4244C39.1577 53.9625 39.5781 54.4956 40.0535 54.9554C42.7608 57.5703 45.4907 60.1624 48.213 62.7596C48.3006 62.843 48.4007 62.9163 48.5783 63.0603ZM67.5572 60.1801C67.1894 61.2766 66.9392 62.3983 66.4438 63.3963C66.0184 64.2527 66.1785 64.7454 66.7766 65.4301C68.1828 67.047 68.3804 68.9418 67.5397 70.9024C66.7015 72.8553 65.1451 73.8457 63.0684 73.8533C61.0141 73.8634 59.3176 73.0271 58.3218 71.1449C57.3509 69.3082 57.466 67.4234 58.6045 65.7055C59.6504 64.1289 61.1917 63.4013 63.0959 63.4923C63.2785 63.4999 63.5863 63.3862 63.6363 63.2523C64.1343 61.9006 64.5997 60.5363 65.0426 59.1645C65.0826 59.0382 64.9525 58.7527 64.8274 58.6895C63.1559 57.8482 61.467 57.0397 59.7905 56.2009C59.4277 56.019 59.2075 56.0974 58.9273 56.3702C56.6278 58.6263 54.3183 60.8724 51.9963 63.1032C50.8128 64.2401 49.5917 65.3366 48.3406 66.4937C44.8276 63.0931 41.3421 59.7152 37.8491 56.35C37.709 56.2136 37.4237 56.0645 37.2861 56.1201C36.05 56.6406 34.829 57.204 33.5779 57.7674C33.8556 58.8512 34.1083 59.8037 34.341 60.7587C34.4261 61.1098 34.6188 61.1932 34.9641 61.2109C35.7072 61.2513 36.4929 61.221 37.176 61.4661C39.2928 62.219 40.5964 63.7702 41.1119 65.9834C41.227 66.4735 41.3371 66.9636 41.4522 67.4538C41.7574 68.7726 42.0627 70.0914 42.3755 71.4405C41.0919 71.7386 39.8783 72.0241 38.6648 72.3045C37.799 72.5041 37.1935 72.1656 37.0409 71.4026C36.8857 70.6371 37.3061 70.0939 38.1869 69.9196C38.5872 69.8412 38.9876 69.7629 39.483 69.6669C39.1527 68.3607 38.94 67.0899 38.5021 65.905C37.8666 64.1871 35.8949 63.27 34.0833 63.6893C32.3718 64.086 30.9881 65.7914 31.1358 67.5649C31.2459 68.866 31.6012 70.1495 31.8439 71.4304C32.0341 71.4304 32.1166 71.443 32.1942 71.4304C32.602 71.3571 33.0099 71.2763 33.4202 71.198C34.1133 71.064 34.6438 71.3571 34.8515 71.9938C35.0717 72.6683 34.8315 73.3025 34.1234 73.5046C32.8322 73.8735 31.5136 74.1413 30.195 74.452C30.1274 74.2827 30.0749 74.1893 30.0523 74.0933C29.652 72.3778 29.1916 70.6725 28.8838 68.9418C28.7287 68.0727 28.7337 67.1329 28.8763 66.2613C29.2041 64.2578 30.3726 62.8 32.1141 61.7667C31.8814 60.8446 31.6512 59.9275 31.406 58.9447C29.069 60.2963 26.9046 61.7036 25.0906 63.5883C24.0822 64.6368 23.5192 65.9177 23.5042 67.3855C23.4767 70.1166 23.4992 72.8502 23.4992 75.5813C23.4992 76.9785 23.9821 77.4585 25.3833 77.461C29.2341 77.461 33.0875 77.461 36.9383 77.461C48.5158 77.461 60.0908 77.461 71.6683 77.461C73.0144 77.461 73.5099 76.9557 73.5199 75.6041C73.5349 73.209 73.5749 70.8114 73.5749 68.4163C73.5749 66.8701 73.4648 65.3416 72.4264 64.0658C71.0803 62.416 69.3563 61.2589 67.5497 60.1776L67.5572 60.1801ZM62.9157 71.3142C64.4621 71.3041 65.6656 70.0863 65.6431 68.5578C65.6206 67.0394 64.387 65.8621 62.8357 65.8747C61.5245 65.8848 60.2284 67.2238 60.2509 68.5452C60.2759 70.0762 61.477 71.3268 62.9157 71.3167V71.3142Z" fill="white"/>
<path d="M48.6455 16C51.4529 16.1187 54.1477 16.6518 56.6774 17.8974C60.218 19.6406 61.9194 22.5814 61.9319 26.4923C61.9344 27.8415 61.6167 29.1906 61.4365 30.5372C61.394 30.8479 61.3064 31.1511 61.2639 31.4619C61.2038 31.9116 61.3114 32.2198 61.7768 32.4699C62.5299 32.8716 62.9703 33.5816 63.0929 34.4355C63.3607 36.3025 62.9778 38.1191 62.5224 39.9078C62.2872 40.8274 61.6592 41.5298 60.8985 42.0856C60.3531 42.4848 60.0203 42.985 59.8351 43.652C58.8793 47.1132 56.8 49.7584 53.7849 51.5926C49.8965 53.9574 46.0857 53.6087 42.4201 50.9686C39.7478 49.0459 38.0913 46.4437 37.1705 43.3033C37.0805 42.9926 36.8478 42.6566 36.5825 42.4772C35.1888 41.5247 34.4857 40.1832 34.2881 38.5384C34.1655 37.5203 34.0278 36.4996 33.9778 35.4764C33.9152 34.145 34.4207 33.1142 35.6968 32.5407C35.8419 32.475 35.982 32.1415 35.952 31.9646C35.5291 29.6555 35.369 27.3336 35.6667 25.0043C35.8419 23.6375 36.0571 22.2277 37.2256 21.2752C37.676 20.9089 38.2265 20.6689 38.6794 20.3051C39.0947 19.9716 39.5126 19.6002 39.8053 19.1631C40.9613 17.4325 42.6303 16.5887 44.602 16.3209C45.9381 16.139 47.2943 16.1011 48.6405 16L48.6455 16ZM48.2176 18.7109C47.1817 18.7917 46.1383 18.8246 45.1099 18.9635C43.6561 19.1581 42.275 19.5598 41.5093 21.0049C41.0239 21.9195 40.2682 22.5738 39.3724 22.9553C38.4942 23.3318 38.1239 23.9482 38.0163 24.8072C37.7561 26.8839 37.8061 28.948 38.2114 31.0071C38.3566 31.7448 38.4692 32.5028 38.4792 33.2531C38.4917 34.15 37.9087 34.7058 37.0279 34.7008C36.55 34.6982 36.3699 34.8953 36.4049 35.3299C36.5075 36.5602 36.53 37.8083 36.7752 39.0109C36.8978 39.6172 37.3057 40.3423 37.8036 40.6531C38.8145 41.2847 39.2073 42.1866 39.4926 43.2477C40.5034 46.9919 42.9055 49.3643 46.5236 50.6149C48.9332 51.4486 51.01 50.529 52.8891 49.3365C54.9634 48.0202 56.4472 46.0218 57.0903 43.5762C57.438 42.2447 58.1587 41.3175 59.1745 40.4788C59.6074 40.12 59.9903 39.5263 60.1029 38.9781C60.318 37.9169 60.313 36.8129 60.4181 35.729C60.4707 35.1732 60.1904 34.9332 59.705 34.8018C58.6741 34.5264 58.3038 33.91 58.4639 32.8363C58.7217 31.136 59.0094 29.4382 59.1971 27.7303C59.5649 24.3777 58.0736 21.5531 55.3012 20.3101C53.0518 19.3021 50.6897 18.7639 48.2151 18.7084L48.2176 18.7109Z" fill="white"/>
</g>
<defs>
<clipPath id="clip0_666_7486">
<rect width="55" height="64" fill="white" transform="translate(21 16)"/>
</clipPath>
</defs>
</svg>
