<svg width="97" height="96" viewBox="0 0 97 96" fill="none" xmlns="http://www.w3.org/2000/svg">
<rect x="0.332031" width="96" height="96" rx="20" fill="#13AB7B"/>
<g clip-path="url(#clip0_680_6178)">
<path d="M43.1054 36.0639C42.5361 35.2635 41.9969 34.4857 41.4313 33.7285C41.3524 33.6233 41.1476 33.5707 40.9992 33.5669C40.2195 33.5538 39.4379 33.5932 38.6977 33.255C36.0993 32.062 35.7573 28.6989 38.0683 27.0155C38.1434 26.961 38.2223 26.9103 38.3444 26.8257C38.2298 26.7374 38.1453 26.6604 38.0495 26.6021C36.8451 25.8769 35.6446 25.1461 34.4309 24.4377C34.243 24.3288 33.9931 24.278 33.7714 24.278C29.0499 24.2687 24.3285 24.2705 19.607 24.2705H19.0133V22.2057H19.5112C24.3736 22.2057 29.2341 22.1982 34.0964 22.2207C34.5079 22.2226 34.9588 22.3673 35.3233 22.5683C36.3999 23.162 37.4426 23.8196 38.5831 24.5016C38.5831 23.705 38.5831 22.9835 38.5831 22.2602C38.5831 21.0427 38.8893 19.906 39.5544 18.8877C40.7437 17.0765 42.4384 16.1052 44.6009 16.0282C46.0213 15.9774 47.4454 16.0056 48.8677 16.0188C50.6657 16.0357 52.1556 17.0916 52.7738 18.7806C52.8602 19.0174 52.971 19.1075 53.2341 19.132C55.5995 19.3424 57.1345 21.0164 57.1552 23.3894C57.1645 24.3739 57.1458 25.3602 57.1683 26.3447C57.1721 26.5082 57.281 26.7355 57.4125 26.822C58.8517 27.7689 59.5131 29.3208 59.1016 30.8539C58.6714 32.4528 57.2998 33.5669 55.5751 33.535C54.7334 33.5181 54.1641 33.6815 53.8278 34.4913C53.7056 34.7825 53.4576 35.0324 53.2341 35.2691C53.0124 35.504 52.7512 35.7013 52.4149 35.9962C53.1683 36.2104 53.762 36.3795 54.3557 36.5505C57.3318 37.4053 59.2012 39.8628 59.2218 42.9572C59.2312 44.2818 59.2218 45.6064 59.2218 46.9779H59.7686C63.6145 46.9779 67.4605 46.9835 71.3064 46.9704C71.8137 46.9704 72.1932 47.1245 72.5502 47.4871C74.1171 49.0803 75.6991 50.6604 77.2923 52.2311C77.653 52.5862 77.8052 52.9695 77.8052 53.4767C77.7939 61.8732 77.7977 70.2677 77.7977 78.6641C77.7977 79.6524 77.4558 80.0019 76.4825 80.0019C64.289 80.0019 52.0955 80.0019 39.902 80.0019C38.925 80.0019 38.6094 79.6562 38.5812 78.666C38.5323 76.9338 39.0678 75.4758 40.4694 74.3898C40.5483 74.3297 40.6385 74.2226 40.6404 74.1362C40.6535 73.4091 40.6479 72.6801 40.6479 71.891C40.4168 71.9944 40.2496 72.0639 40.0861 72.1465C37.7714 73.3095 35.4586 74.48 33.1364 75.6299C32.8658 75.7633 32.5464 75.8647 32.2477 75.8647C27.949 75.8797 23.6502 75.8741 19.3496 75.8741C19.2444 75.8741 19.1373 75.8741 19.0039 75.8741V73.8093H19.5319C23.5957 73.8093 27.6615 73.813 31.7254 73.8018C31.9922 73.8018 32.2834 73.7323 32.5239 73.6139C35.1129 72.3363 37.6963 71.0455 40.274 69.7454C40.4262 69.6684 40.6291 69.4824 40.631 69.3452C40.6516 66.6886 40.646 64.0319 40.646 61.3546C38.4497 60.759 37.0913 59.3593 36.5859 57.1047C35.7836 57.751 35.0377 58.3936 34.243 58.9685C33.948 59.1827 33.5384 59.3462 33.1796 59.348C28.584 59.3725 23.9865 59.3649 19.3909 59.3649H19.0039V57.3001H19.5375C23.8832 57.3001 28.2289 57.3058 32.5746 57.287C32.8545 57.287 33.1833 57.1686 33.4069 56.9976C34.3369 56.2856 35.2294 55.5228 36.15 54.7975C36.4187 54.5852 36.5314 54.3673 36.5295 54.0141C36.5145 50.388 36.5201 46.76 36.5201 43.1338C36.5201 39.8365 38.3595 37.4035 41.5328 36.5054C42.0701 36.3532 42.6094 36.2048 43.1054 36.0676V36.0639ZM55.1279 49.0634V77.8995H75.7066V54.202C75.5281 54.202 75.3759 54.202 75.2237 54.202C74.0513 54.202 72.879 54.2076 71.7066 54.2001C70.9776 54.1944 70.5887 53.7924 70.5755 53.0596C70.5718 52.8717 70.5755 52.6839 70.5755 52.496C70.5755 51.3593 70.5755 50.2226 70.5755 49.0634H55.1298H55.1279ZM55.0997 46.9516H57.1589C57.1589 45.6646 57.1683 44.402 57.1589 43.1395C57.1307 39.6129 54.6638 38.5251 51.9828 38.1043C51.5939 40.6294 49.6512 41.7604 47.9734 41.8055C47.1279 41.8281 46.3313 41.6082 45.6267 41.1291C44.5483 40.3964 43.9339 39.3706 43.7742 38.0084C42.9494 38.2602 42.1622 38.4518 41.4107 38.7393C40.1274 39.2297 39.2388 40.1559 38.8273 41.4655C38.3689 42.9234 38.6657 44.4321 38.5831 45.907H40.6723V43.9136H42.7296V49.4467C44.9579 47.6374 47.1166 45.8826 49.2904 44.1165C49.7432 44.6745 50.1547 45.1818 50.5774 45.7022C50.4628 45.7999 50.3707 45.8807 50.2749 45.9596C47.8513 47.9323 45.4276 49.9051 43.0058 51.8816C42.8931 51.9737 42.7334 52.1071 42.7296 52.2254C42.7071 53.2193 42.7164 54.2132 42.7164 55.1958H53.0481V43.9117H55.0997V46.9516ZM52.9992 73.7867V57.3339H42.7465V68.5016C43.2932 68.2386 43.7911 68 44.3191 67.7463C44.6347 68.3814 44.9278 68.9713 45.2322 69.5838C44.4544 69.969 43.7273 70.326 43.0058 70.6942C42.8949 70.7506 42.7315 70.8652 42.7296 70.9554C42.7089 71.9004 42.7164 72.8473 42.7164 73.7849H46.8498V61.4617H48.9165V73.7886H52.9992V73.7867ZM43.5319 27.3405L43.5112 27.4608C44.1011 27.8196 44.6892 28.1785 45.3017 28.5505C44.9353 29.1648 44.5953 29.7322 44.2458 30.3147C43.7179 30.0084 43.2406 29.7304 42.6657 29.3959C42.7202 30.1719 42.7089 30.8483 42.8254 31.5021C43.2463 33.86 45.4389 35.628 47.8813 35.6242C50.3219 35.6205 52.5877 33.8431 52.8996 31.4814C53.0988 29.9746 52.9973 28.4284 53.0274 26.9009C53.0274 26.8314 52.9992 26.7412 52.9522 26.6923C52.3285 26.0648 51.7009 25.4429 51.0509 24.7966C48.9861 27.0004 46.3933 27.5679 43.5319 27.3405ZM55.0903 25.9295C55.0903 24.9901 55.1091 24.0676 55.0847 23.1489C55.0621 22.2546 54.4553 21.4824 53.5798 21.2851C53.1157 21.1799 52.6216 21.1968 52.1387 21.1818C51.3909 21.1573 51.0208 20.8191 50.9645 20.0751C50.878 18.9403 50.0626 18.1155 48.9241 18.093C47.5037 18.0648 46.0795 18.046 44.6591 18.0986C42.4327 18.1794 40.77 19.8215 40.6667 22.0329C40.6103 23.2334 40.6516 24.4377 40.6535 25.6421C40.6535 25.6928 40.6948 25.7454 40.7474 25.8713C41.127 25.2776 41.6756 25.2982 42.228 25.3058C43.0095 25.3152 43.7911 25.287 44.5708 25.3114C46.8893 25.3828 48.7775 24.588 50.1378 22.6491C50.506 22.123 51.1561 22.0272 51.6126 22.465C52.7831 23.5866 53.9123 24.7515 55.0903 25.9333V25.9295ZM46.8179 75.8741H46.3426C45.0481 75.8741 43.7517 75.8948 42.4572 75.8628C42.0194 75.8516 41.7038 76.0207 41.4257 76.3006C40.9917 76.744 40.7155 77.2682 40.6948 77.9032H46.8179V75.8741ZM52.9955 77.9201V75.8966H48.9335V77.9201H52.9955ZM38.6075 52.7947C39.0189 52.4584 39.3289 52.1353 39.7009 51.9192C40.5126 51.4457 40.7756 50.7788 40.6629 49.8656C40.5877 49.2588 40.6479 48.6369 40.6479 48.0338H38.6056V52.7947H38.6075ZM40.6084 59.1038V53.813C40.1218 54.2113 39.716 54.6134 39.2463 54.9121C38.6676 55.2785 38.4741 55.7557 38.5906 56.4002C38.5962 56.4302 38.5943 56.4622 38.5962 56.4941C38.6883 57.7116 39.5356 58.8144 40.6084 59.1057V59.1038ZM49.9217 37.3828C48.5427 37.7679 47.1937 37.7567 45.8259 37.3884C45.7658 38.2978 46.0683 38.976 46.7991 39.4269C47.5319 39.8779 48.2871 39.8609 49.0048 39.3894C49.7038 38.9291 49.9818 38.2564 49.9236 37.3809L49.9217 37.3828ZM40.6591 28.4321C39.8757 28.3307 39.2406 28.4716 38.8235 29.1404C38.4703 29.7059 38.5135 30.3598 38.9118 30.8952C39.2932 31.41 39.9846 31.6148 40.6591 31.4401V28.4321ZM55.0772 28.4265V31.4758C55.7348 31.5528 56.383 31.4946 56.8395 30.8764C57.2397 30.3353 57.2735 29.7435 56.9334 29.163C56.5351 28.481 55.8888 28.3344 55.0772 28.4265ZM74.042 52.1202C73.5854 51.6656 73.0932 51.1771 72.6667 50.7543V52.1202H74.042Z" fill="white"/>
<path d="M31.3237 20.1353H19.0156V18.1118H31.3237V20.1353Z" fill="white"/>
<path d="M19 55.1997V53.1931H30.2917V55.1997H19Z" fill="white"/>
<path d="M30.294 71.7293H19.0117V69.7058H30.294V71.7293Z" fill="white"/>
<path d="M64.3841 53.1931V51.1321H66.4208V53.1556H68.4818V55.2091H66.4584V57.2702H64.4048V55.2467H62.3438V53.1931H64.3841Z" fill="white"/>
<path d="M73.6487 65.5837V67.5922H64.4219V65.5837H73.6487Z" fill="white"/>
<path d="M64.4023 71.7126V69.7041H73.6292V71.7126H64.4023Z" fill="white"/>
<path d="M73.6367 75.8496H64.4023V73.843H73.6367V75.8496Z" fill="white"/>
<path d="M56.5194 65.2288C56.9665 64.7741 57.425 64.3082 57.9661 63.7577C58.3268 64.1767 58.6894 64.5994 59.0802 65.0522C59.92 63.9362 60.6941 62.9066 61.4907 61.8469C61.9961 62.2189 62.4846 62.5684 62.9543 62.9423C63.0182 62.993 63.0351 63.2091 62.9825 63.2786C61.998 64.6031 61.0116 65.9277 59.999 67.2316C59.6194 67.7182 59.0107 67.7783 58.556 67.3462C57.8458 66.6717 57.192 65.9371 56.5156 65.2269L56.5194 65.2288Z" fill="white"/>
<path d="M56.543 73.4973C56.9789 73.0615 57.4486 72.5917 57.9558 72.0826C58.2959 72.464 58.6566 72.8698 59.0625 73.3264C59.9117 72.201 60.6933 71.162 61.4955 70.0967C62.0498 70.5119 62.5777 70.9102 63.1395 71.3311C62.4143 72.3005 61.721 73.2343 61.0221 74.1662C60.6952 74.6021 60.3758 75.0455 60.0263 75.4626C59.6223 75.9492 59.0343 76.045 58.5852 75.6223C57.8619 74.9384 57.2024 74.1906 56.543 73.4973Z" fill="white"/>
<path d="M70.554 61.4485V63.4551H64.4141V61.4485H70.554Z" fill="white"/>
</g>
<defs>
<clipPath id="clip0_680_6178">
<rect width="58.8032" height="64" fill="white" transform="translate(19 16)"/>
</clipPath>
</defs>
</svg>
