<svg width="97" height="96" viewBox="0 0 97 96" fill="none" xmlns="http://www.w3.org/2000/svg">
<rect x="0.667969" width="96" height="96" rx="20" fill="#13AB7B"/>
<mask id="path-2-outside-1_680_6186" maskUnits="userSpaceOnUse" x="20.668" y="17" width="56" height="56" fill="black">
<rect fill="white" x="20.668" y="17" width="56" height="56"/>
<path d="M47.9036 21.5022C51.1847 19.275 55.9973 17.9188 60.5947 18.0038C64.9147 18.0824 69.086 19.4237 71.7269 22.4867C72.5981 23.4956 73.2942 24.6596 73.85 25.9713C74.3963 27.2595 74.8066 28.6806 75.1135 30.2301C75.7115 33.2538 75.799 36.6226 75.5048 40.0955C75.1799 43.9221 74.3931 47.8835 73.3195 51.6527C72.539 54.3918 70.2229 61.2059 67.2402 66.0988C65.2796 69.3136 62.9793 71.7478 60.4892 71.9071C59.2763 71.9857 58.1636 71.5195 57.1458 70.5318C56.2536 69.6641 55.4341 68.3716 54.6842 66.6712L54.6631 66.6298L53.6917 64.152C53.5557 63.8037 53.388 63.3406 53.2055 62.8372C52.269 60.25 50.8937 56.4511 48.9066 55.9679C47.2434 55.5643 45.9145 58.8577 45.096 60.8841C44.9969 61.1305 44.9041 61.3599 44.7332 61.7571C44.6436 61.9642 44.4453 62.457 44.2227 63.0114C42.8949 66.3122 40.6474 71.9007 37.4474 71.9974C36.3421 72.0314 35.259 71.546 34.1979 70.5658C33.2688 69.7066 32.3343 68.4395 31.3956 66.7859C30.7839 65.7207 30.1374 64.4717 29.4751 63.0804C28.8422 61.7475 28.1968 60.2787 27.5576 58.7069C26.3848 55.8192 24.9768 52.0956 23.8409 48.1087C22.6924 44.0729 21.8054 39.7238 21.6809 35.5988C21.6039 33.0212 21.8686 30.519 22.5215 28.2504C23.1448 26.086 24.1215 24.1339 25.4904 22.526C28.1767 19.3749 31.7131 18.1047 35.4245 18.0261C39.7277 17.9358 44.2565 19.4683 47.9036 21.5022ZM26.8025 34.6854C27.2507 32.0717 28.1672 29.6407 29.6723 27.6217C31.0465 25.779 32.8965 24.2943 35.3075 23.3459L36.0753 25.3245C34.0482 26.1221 32.4999 27.3604 31.3566 28.894C30.0688 30.6209 29.2778 32.7408 28.8834 35.0433L26.8025 34.6854ZM67.4301 39.2352H67.3278C67.3278 38.3856 67.0124 37.6443 66.3828 37.0102C65.7531 36.3762 65.017 36.0597 64.1743 36.0597V35.9556C65.017 35.9556 65.7531 35.6381 66.3828 35.003C67.0124 34.3657 67.3278 33.6244 67.3278 32.779H67.4301C67.4301 33.6276 67.7454 34.3689 68.3751 35.003C69.0047 35.637 69.7409 35.9546 70.5847 35.9546V36.0576C69.7409 36.0576 69.0047 36.3751 68.3751 37.0092C67.7454 37.6443 67.4301 38.3856 67.4301 39.2352ZM60.0199 41.507H59.9365C59.9365 40.8315 59.6855 40.2389 59.1835 39.7344C58.6825 39.2289 58.0961 38.975 57.4232 38.975V38.8922C58.094 38.8922 58.6825 38.6384 59.1835 38.1339C59.6855 37.6262 59.9365 37.0368 59.9365 36.3624H60.0199C60.0199 37.0379 60.2709 37.6305 60.7729 38.135C61.2739 38.6405 61.8603 38.8943 62.5332 38.8943V38.9772C61.8624 38.9772 61.2739 39.231 60.7729 39.7355C60.2698 40.2389 60.0199 40.8294 60.0199 41.507ZM61.8571 33.9876H61.6968C61.6968 32.6664 61.2053 31.5088 60.2234 30.52C59.2404 29.5302 58.094 29.0364 56.7788 29.0364V28.8749C58.0919 28.8749 59.2404 28.38 60.2234 27.3891C61.2053 26.3972 61.6968 25.2417 61.6968 23.9226H61.8571C61.8571 25.2448 62.3486 26.4025 63.3305 27.3912C64.3124 28.38 65.4599 28.8749 66.7741 28.8749V29.0364C65.461 29.0364 64.3124 29.5313 63.3305 30.52C62.3486 31.5088 61.8571 32.6664 61.8571 33.9876ZM49.7314 22.8425C51.8281 24.3559 52.5295 25.0823 53.7613 26.6967C52.1118 26.1561 50.0794 25.2629 48.4394 24.2922C48.0998 24.0904 47.7707 23.8769 47.4301 23.6772C43.9675 21.6424 39.5737 20.0588 35.4657 20.1459C32.3206 20.2128 29.3358 21.2738 27.0925 23.9056C25.9239 25.2778 25.0854 26.9622 24.5444 28.8409C23.9538 30.8918 23.7154 33.1741 23.7861 35.5404C23.9031 39.4455 24.7606 43.6226 25.8722 47.5267C26.9976 51.4796 28.3687 55.1097 29.5056 57.9093C30.1195 59.4195 30.7491 60.8501 31.3745 62.166C32 63.4819 32.6222 64.6799 33.2192 65.7217L33.2234 65.7302C34.0524 67.1916 34.854 68.2898 35.626 69.0035C36.2694 69.5972 36.8589 69.8945 37.3894 69.8786C39.2045 69.8234 41.1294 65.0388 42.2663 62.2127C42.4361 61.789 42.588 61.413 42.801 60.917C42.8443 60.8182 42.9845 60.4699 43.1396 60.0854C44.2175 57.4144 45.9704 53.0738 49.4023 53.9064C52.4873 54.6562 54.0936 59.0924 55.1873 62.1139C55.3497 62.5621 55.4984 62.9742 55.6566 63.3788L56.628 65.8566L56.6259 65.8577C57.2555 67.2766 57.9158 68.3301 58.6076 69.0024C59.1814 69.56 59.7646 69.8255 60.3574 69.7883C62.0333 69.68 63.8115 67.6653 65.4399 64.9932C68.2992 60.3042 70.533 53.7206 71.2881 51.0707C72.327 47.4247 73.0874 43.6024 73.3996 39.9213C73.6781 36.6343 73.599 33.4651 73.041 30.6454C72.7594 29.2222 72.3913 27.9371 71.9104 26.8018C71.4379 25.6898 70.8557 24.7117 70.1333 23.8748C67.9258 21.3152 64.3293 20.1916 60.562 20.1226C56.6691 20.0514 52.6349 21.0954 49.7314 22.8425Z"/>
</mask>
<path d="M47.9036 21.5022C51.1847 19.275 55.9973 17.9188 60.5947 18.0038C64.9147 18.0824 69.086 19.4237 71.7269 22.4867C72.5981 23.4956 73.2942 24.6596 73.85 25.9713C74.3963 27.2595 74.8066 28.6806 75.1135 30.2301C75.7115 33.2538 75.799 36.6226 75.5048 40.0955C75.1799 43.9221 74.3931 47.8835 73.3195 51.6527C72.539 54.3918 70.2229 61.2059 67.2402 66.0988C65.2796 69.3136 62.9793 71.7478 60.4892 71.9071C59.2763 71.9857 58.1636 71.5195 57.1458 70.5318C56.2536 69.6641 55.4341 68.3716 54.6842 66.6712L54.6631 66.6298L53.6917 64.152C53.5557 63.8037 53.388 63.3406 53.2055 62.8372C52.269 60.25 50.8937 56.4511 48.9066 55.9679C47.2434 55.5643 45.9145 58.8577 45.096 60.8841C44.9969 61.1305 44.9041 61.3599 44.7332 61.7571C44.6436 61.9642 44.4453 62.457 44.2227 63.0114C42.8949 66.3122 40.6474 71.9007 37.4474 71.9974C36.3421 72.0314 35.259 71.546 34.1979 70.5658C33.2688 69.7066 32.3343 68.4395 31.3956 66.7859C30.7839 65.7207 30.1374 64.4717 29.4751 63.0804C28.8422 61.7475 28.1968 60.2787 27.5576 58.7069C26.3848 55.8192 24.9768 52.0956 23.8409 48.1087C22.6924 44.0729 21.8054 39.7238 21.6809 35.5988C21.6039 33.0212 21.8686 30.519 22.5215 28.2504C23.1448 26.086 24.1215 24.1339 25.4904 22.526C28.1767 19.3749 31.7131 18.1047 35.4245 18.0261C39.7277 17.9358 44.2565 19.4683 47.9036 21.5022ZM26.8025 34.6854C27.2507 32.0717 28.1672 29.6407 29.6723 27.6217C31.0465 25.779 32.8965 24.2943 35.3075 23.3459L36.0753 25.3245C34.0482 26.1221 32.4999 27.3604 31.3566 28.894C30.0688 30.6209 29.2778 32.7408 28.8834 35.0433L26.8025 34.6854ZM67.4301 39.2352H67.3278C67.3278 38.3856 67.0124 37.6443 66.3828 37.0102C65.7531 36.3762 65.017 36.0597 64.1743 36.0597V35.9556C65.017 35.9556 65.7531 35.6381 66.3828 35.003C67.0124 34.3657 67.3278 33.6244 67.3278 32.779H67.4301C67.4301 33.6276 67.7454 34.3689 68.3751 35.003C69.0047 35.637 69.7409 35.9546 70.5847 35.9546V36.0576C69.7409 36.0576 69.0047 36.3751 68.3751 37.0092C67.7454 37.6443 67.4301 38.3856 67.4301 39.2352ZM60.0199 41.507H59.9365C59.9365 40.8315 59.6855 40.2389 59.1835 39.7344C58.6825 39.2289 58.0961 38.975 57.4232 38.975V38.8922C58.094 38.8922 58.6825 38.6384 59.1835 38.1339C59.6855 37.6262 59.9365 37.0368 59.9365 36.3624H60.0199C60.0199 37.0379 60.2709 37.6305 60.7729 38.135C61.2739 38.6405 61.8603 38.8943 62.5332 38.8943V38.9772C61.8624 38.9772 61.2739 39.231 60.7729 39.7355C60.2698 40.2389 60.0199 40.8294 60.0199 41.507ZM61.8571 33.9876H61.6968C61.6968 32.6664 61.2053 31.5088 60.2234 30.52C59.2404 29.5302 58.094 29.0364 56.7788 29.0364V28.8749C58.0919 28.8749 59.2404 28.38 60.2234 27.3891C61.2053 26.3972 61.6968 25.2417 61.6968 23.9226H61.8571C61.8571 25.2448 62.3486 26.4025 63.3305 27.3912C64.3124 28.38 65.4599 28.8749 66.7741 28.8749V29.0364C65.461 29.0364 64.3124 29.5313 63.3305 30.52C62.3486 31.5088 61.8571 32.6664 61.8571 33.9876ZM49.7314 22.8425C51.8281 24.3559 52.5295 25.0823 53.7613 26.6967C52.1118 26.1561 50.0794 25.2629 48.4394 24.2922C48.0998 24.0904 47.7707 23.8769 47.4301 23.6772C43.9675 21.6424 39.5737 20.0588 35.4657 20.1459C32.3206 20.2128 29.3358 21.2738 27.0925 23.9056C25.9239 25.2778 25.0854 26.9622 24.5444 28.8409C23.9538 30.8918 23.7154 33.1741 23.7861 35.5404C23.9031 39.4455 24.7606 43.6226 25.8722 47.5267C26.9976 51.4796 28.3687 55.1097 29.5056 57.9093C30.1195 59.4195 30.7491 60.8501 31.3745 62.166C32 63.4819 32.6222 64.6799 33.2192 65.7217L33.2234 65.7302C34.0524 67.1916 34.854 68.2898 35.626 69.0035C36.2694 69.5972 36.8589 69.8945 37.3894 69.8786C39.2045 69.8234 41.1294 65.0388 42.2663 62.2127C42.4361 61.789 42.588 61.413 42.801 60.917C42.8443 60.8182 42.9845 60.4699 43.1396 60.0854C44.2175 57.4144 45.9704 53.0738 49.4023 53.9064C52.4873 54.6562 54.0936 59.0924 55.1873 62.1139C55.3497 62.5621 55.4984 62.9742 55.6566 63.3788L56.628 65.8566L56.6259 65.8577C57.2555 67.2766 57.9158 68.3301 58.6076 69.0024C59.1814 69.56 59.7646 69.8255 60.3574 69.7883C62.0333 69.68 63.8115 67.6653 65.4399 64.9932C68.2992 60.3042 70.533 53.7206 71.2881 51.0707C72.327 47.4247 73.0874 43.6024 73.3996 39.9213C73.6781 36.6343 73.599 33.4651 73.041 30.6454C72.7594 29.2222 72.3913 27.9371 71.9104 26.8018C71.4379 25.6898 70.8557 24.7117 70.1333 23.8748C67.9258 21.3152 64.3293 20.1916 60.562 20.1226C56.6691 20.0514 52.6349 21.0954 49.7314 22.8425Z" fill="white"/>
<path d="M47.9036 21.5022C51.1847 19.275 55.9973 17.9188 60.5947 18.0038C64.9147 18.0824 69.086 19.4237 71.7269 22.4867C72.5981 23.4956 73.2942 24.6596 73.85 25.9713C74.3963 27.2595 74.8066 28.6806 75.1135 30.2301C75.7115 33.2538 75.799 36.6226 75.5048 40.0955C75.1799 43.9221 74.3931 47.8835 73.3195 51.6527C72.539 54.3918 70.2229 61.2059 67.2402 66.0988C65.2796 69.3136 62.9793 71.7478 60.4892 71.9071C59.2763 71.9857 58.1636 71.5195 57.1458 70.5318C56.2536 69.6641 55.4341 68.3716 54.6842 66.6712L54.6631 66.6298L53.6917 64.152C53.5557 63.8037 53.388 63.3406 53.2055 62.8372C52.269 60.25 50.8937 56.4511 48.9066 55.9679C47.2434 55.5643 45.9145 58.8577 45.096 60.8841C44.9969 61.1305 44.9041 61.3599 44.7332 61.7571C44.6436 61.9642 44.4453 62.457 44.2227 63.0114C42.8949 66.3122 40.6474 71.9007 37.4474 71.9974C36.3421 72.0314 35.259 71.546 34.1979 70.5658C33.2688 69.7066 32.3343 68.4395 31.3956 66.7859C30.7839 65.7207 30.1374 64.4717 29.4751 63.0804C28.8422 61.7475 28.1968 60.2787 27.5576 58.7069C26.3848 55.8192 24.9768 52.0956 23.8409 48.1087C22.6924 44.0729 21.8054 39.7238 21.6809 35.5988C21.6039 33.0212 21.8686 30.519 22.5215 28.2504C23.1448 26.086 24.1215 24.1339 25.4904 22.526C28.1767 19.3749 31.7131 18.1047 35.4245 18.0261C39.7277 17.9358 44.2565 19.4683 47.9036 21.5022ZM26.8025 34.6854C27.2507 32.0717 28.1672 29.6407 29.6723 27.6217C31.0465 25.779 32.8965 24.2943 35.3075 23.3459L36.0753 25.3245C34.0482 26.1221 32.4999 27.3604 31.3566 28.894C30.0688 30.6209 29.2778 32.7408 28.8834 35.0433L26.8025 34.6854ZM67.4301 39.2352H67.3278C67.3278 38.3856 67.0124 37.6443 66.3828 37.0102C65.7531 36.3762 65.017 36.0597 64.1743 36.0597V35.9556C65.017 35.9556 65.7531 35.6381 66.3828 35.003C67.0124 34.3657 67.3278 33.6244 67.3278 32.779H67.4301C67.4301 33.6276 67.7454 34.3689 68.3751 35.003C69.0047 35.637 69.7409 35.9546 70.5847 35.9546V36.0576C69.7409 36.0576 69.0047 36.3751 68.3751 37.0092C67.7454 37.6443 67.4301 38.3856 67.4301 39.2352ZM60.0199 41.507H59.9365C59.9365 40.8315 59.6855 40.2389 59.1835 39.7344C58.6825 39.2289 58.0961 38.975 57.4232 38.975V38.8922C58.094 38.8922 58.6825 38.6384 59.1835 38.1339C59.6855 37.6262 59.9365 37.0368 59.9365 36.3624H60.0199C60.0199 37.0379 60.2709 37.6305 60.7729 38.135C61.2739 38.6405 61.8603 38.8943 62.5332 38.8943V38.9772C61.8624 38.9772 61.2739 39.231 60.7729 39.7355C60.2698 40.2389 60.0199 40.8294 60.0199 41.507ZM61.8571 33.9876H61.6968C61.6968 32.6664 61.2053 31.5088 60.2234 30.52C59.2404 29.5302 58.094 29.0364 56.7788 29.0364V28.8749C58.0919 28.8749 59.2404 28.38 60.2234 27.3891C61.2053 26.3972 61.6968 25.2417 61.6968 23.9226H61.8571C61.8571 25.2448 62.3486 26.4025 63.3305 27.3912C64.3124 28.38 65.4599 28.8749 66.7741 28.8749V29.0364C65.461 29.0364 64.3124 29.5313 63.3305 30.52C62.3486 31.5088 61.8571 32.6664 61.8571 33.9876ZM49.7314 22.8425C51.8281 24.3559 52.5295 25.0823 53.7613 26.6967C52.1118 26.1561 50.0794 25.2629 48.4394 24.2922C48.0998 24.0904 47.7707 23.8769 47.4301 23.6772C43.9675 21.6424 39.5737 20.0588 35.4657 20.1459C32.3206 20.2128 29.3358 21.2738 27.0925 23.9056C25.9239 25.2778 25.0854 26.9622 24.5444 28.8409C23.9538 30.8918 23.7154 33.1741 23.7861 35.5404C23.9031 39.4455 24.7606 43.6226 25.8722 47.5267C26.9976 51.4796 28.3687 55.1097 29.5056 57.9093C30.1195 59.4195 30.7491 60.8501 31.3745 62.166C32 63.4819 32.6222 64.6799 33.2192 65.7217L33.2234 65.7302C34.0524 67.1916 34.854 68.2898 35.626 69.0035C36.2694 69.5972 36.8589 69.8945 37.3894 69.8786C39.2045 69.8234 41.1294 65.0388 42.2663 62.2127C42.4361 61.789 42.588 61.413 42.801 60.917C42.8443 60.8182 42.9845 60.4699 43.1396 60.0854C44.2175 57.4144 45.9704 53.0738 49.4023 53.9064C52.4873 54.6562 54.0936 59.0924 55.1873 62.1139C55.3497 62.5621 55.4984 62.9742 55.6566 63.3788L56.628 65.8566L56.6259 65.8577C57.2555 67.2766 57.9158 68.3301 58.6076 69.0024C59.1814 69.56 59.7646 69.8255 60.3574 69.7883C62.0333 69.68 63.8115 67.6653 65.4399 64.9932C68.2992 60.3042 70.533 53.7206 71.2881 51.0707C72.327 47.4247 73.0874 43.6024 73.3996 39.9213C73.6781 36.6343 73.599 33.4651 73.041 30.6454C72.7594 29.2222 72.3913 27.9371 71.9104 26.8018C71.4379 25.6898 70.8557 24.7117 70.1333 23.8748C67.9258 21.3152 64.3293 20.1916 60.562 20.1226C56.6691 20.0514 52.6349 21.0954 49.7314 22.8425Z" stroke="white" stroke-width="0.6" stroke-linejoin="round" mask="url(#path-2-outside-1_680_6186)"/>
</svg>
