<svg width="105" height="104" viewBox="0 0 105 104" fill="none" xmlns="http://www.w3.org/2000/svg">
<g filter="url(#filter0_d_666_7457)">
<rect x="4.66797" width="96" height="96" rx="20" fill="#13AB7B"/>
<g clip-path="url(#clip0_666_7457)">
<g filter="url(#filter1_d_666_7457)">
<path d="M36.5326 68.8594C36.1836 68.3438 36.3242 67.6406 36.8451 67.2917C37.3607 66.9427 38.0638 67.0781 38.4128 67.6042L39.0326 68.5156L41.4753 65.5417C41.8711 65.0573 42.5846 64.9896 43.0638 65.3854C43.5482 65.7813 43.6159 66.4948 43.2201 66.974L39.8346 71.0885C39.7617 71.1823 39.668 71.2708 39.5638 71.3438C39.0482 71.6927 38.3451 71.5521 37.9961 71.0313L36.5326 68.8594ZM48.6576 68.9323C47.9648 68.9323 47.3815 68.3698 47.3815 67.6563C47.3815 66.9635 47.944 66.3802 48.6576 66.3802H67.3086C68.0013 66.3802 68.5846 66.9427 68.5846 67.6563C68.5846 68.349 68.0221 68.9323 67.3086 68.9323H48.6576ZM36.5326 57.3542C36.1836 56.8385 36.3242 56.1354 36.8451 55.7865C37.3607 55.4375 38.0638 55.5729 38.4128 56.099L39.0326 57.0104L41.4753 54.0365C41.8711 53.5521 42.5846 53.4844 43.0638 53.8802C43.5482 54.276 43.6159 54.9896 43.2201 55.4688L39.8346 59.5833C39.7617 59.6771 39.668 59.7656 39.5638 59.8385C39.0482 60.1875 38.3451 60.0469 37.9961 59.526L36.5326 57.3542ZM48.6576 57.4271C47.9648 57.4271 47.3815 56.8646 47.3815 56.151C47.3815 55.4583 47.944 54.875 48.6576 54.875H67.3086C68.0013 54.875 68.5846 55.4375 68.5846 56.151C68.5846 56.8438 68.0221 57.4271 67.3086 57.4271H48.6576ZM36.7096 41.6458H43.7148L46.0013 37.0156L50.3242 43.25L54.7201 34.6771L59.2878 43.625L61.0534 42.0052L61.9701 41.6458H68.4753V44.3542H62.4909L58.4909 48.026L54.7044 40.6094L50.668 48.4844L46.3919 42.3177L45.3867 44.3542H36.7096V41.6458ZM30.1784 77.4896H74.9388V25.9635C74.9388 25.8958 74.918 25.8073 74.8503 25.7604C74.8034 25.7135 74.7409 25.6719 74.6471 25.6719H67.3034V28.224C67.3034 28.7396 67.1003 29.2083 66.7409 29.5677C66.4023 29.9063 65.9336 30.1302 65.3971 30.1302H39.7148C39.1992 30.1302 38.7044 29.9063 38.3711 29.5677C38.3242 29.5208 38.3034 29.4792 38.2617 29.4323C37.9909 29.0938 37.8138 28.6667 37.8138 28.224V25.6719H30.4701C30.4023 25.6719 30.3138 25.6927 30.2669 25.7604C30.2253 25.8073 30.1784 25.8958 30.1784 25.9635V77.4896ZM76.2669 79.9427V80H27.668V79.9427V77.4896V25.9635C27.668 25.1823 27.9805 24.4896 28.4961 23.9688C29.0117 23.4479 29.7044 23.1406 30.4909 23.1406H37.8346V21.75C37.8346 21.2344 38.0378 20.7656 38.3971 20.4063C38.7357 20.0677 39.2044 19.8438 39.7409 19.8438H44.0898V18.1042C44.0898 17.5208 44.3346 17.0052 44.7148 16.6302C45.0898 16.2448 45.6055 16 46.1888 16H59.4232C60.0065 16 60.5221 16.2448 60.8971 16.625C61.2773 17.0052 61.5273 17.5208 61.5273 18.099V19.8438H65.4492C65.9648 19.8438 66.4336 20.0677 66.793 20.4063C67.1315 20.7448 67.3555 21.2344 67.3555 21.75V23.1406H74.6992C75.4805 23.1406 76.1732 23.4531 76.694 23.9688C77.2096 24.4844 77.5221 25.1771 77.5221 25.9635V79.9375H76.2669V79.9427Z" fill="white"/>
</g>
</g>
</g>
<defs>
<filter id="filter0_d_666_7457" x="0.667969" y="0" width="104" height="104" filterUnits="userSpaceOnUse" color-interpolation-filters="sRGB">
<feFlood flood-opacity="0" result="BackgroundImageFix"/>
<feColorMatrix in="SourceAlpha" type="matrix" values="0 0 0 0 0 0 0 0 0 0 0 0 0 0 0 0 0 0 127 0" result="hardAlpha"/>
<feOffset dy="4"/>
<feGaussianBlur stdDeviation="2"/>
<feComposite in2="hardAlpha" operator="out"/>
<feColorMatrix type="matrix" values="0 0 0 0 0 0 0 0 0 0 0 0 0 0 0 0 0 0 0.25 0"/>
<feBlend mode="normal" in2="BackgroundImageFix" result="effect1_dropShadow_666_7457"/>
<feBlend mode="normal" in="SourceGraphic" in2="effect1_dropShadow_666_7457" result="shape"/>
</filter>
<filter id="filter1_d_666_7457" x="7.66797" y="6" width="89.8555" height="104" filterUnits="userSpaceOnUse" color-interpolation-filters="sRGB">
<feFlood flood-opacity="0" result="BackgroundImageFix"/>
<feColorMatrix in="SourceAlpha" type="matrix" values="0 0 0 0 0 0 0 0 0 0 0 0 0 0 0 0 0 0 127 0" result="hardAlpha"/>
<feOffset dy="10"/>
<feGaussianBlur stdDeviation="10"/>
<feComposite in2="hardAlpha" operator="out"/>
<feColorMatrix type="matrix" values="0 0 0 0 0.108671 0 0 0 0 0.383236 0 0 0 0 0.296531 0 0 0 0.25 0"/>
<feBlend mode="normal" in2="BackgroundImageFix" result="effect1_dropShadow_666_7457"/>
<feBlend mode="normal" in="SourceGraphic" in2="effect1_dropShadow_666_7457" result="shape"/>
</filter>
<clipPath id="clip0_666_7457">
<rect width="49.849" height="64" fill="white" transform="translate(27.668 16)"/>
</clipPath>
</defs>
</svg>
