<svg width="97" height="96" viewBox="0 0 97 96" fill="none" xmlns="http://www.w3.org/2000/svg">
<rect x="0.332031" width="96" height="96" rx="20" fill="#13AB7B"/>
<path fill-rule="evenodd" clip-rule="evenodd" d="M42.6061 17.7389C46.6162 15.036 51.1367 15.6349 54.8865 18.494C55.8864 19.2596 56.7353 20.2127 57.3811 21.2959C57.9487 22.2542 58.9435 24.2072 57.0842 24.5092C56.3499 24.6238 55.0687 23.6291 54.0792 23.3062C52.8189 22.9052 51.5221 22.6344 50.2097 22.4937C47.9182 22.249 45.6007 22.426 43.3717 23.0145C42.2676 23.3114 41.1947 23.702 40.1531 24.1707C39.674 24.3947 38.6845 25.0456 38.4189 24.2072C37.7939 22.249 41.1739 18.7076 42.6061 17.7389ZM61.9901 67.3915L61.9432 67.4853C63.5056 68.3186 64.141 70.2403 63.3754 71.8391L63.4744 71.886C64.3077 70.3236 66.2294 69.6882 67.8282 70.4538L67.8751 70.3601C66.3075 69.5216 65.6773 67.5999 66.4377 65.9958L66.344 65.9489C65.5107 67.5165 63.5942 68.1519 61.9901 67.3863V67.3915ZM53.3553 76.0055V76.0576C54.2146 76.5107 54.5584 77.5627 54.1417 78.4376L54.1938 78.4637C54.6469 77.6043 55.6989 77.2606 56.5738 77.6773V77.6252C55.7145 77.1721 55.3708 76.1201 55.7874 75.2451H55.7354C55.2823 76.1045 54.2303 76.4482 53.3553 76.0315V76.0055ZM36.6586 74.6879L36.7159 74.8025C34.8254 75.7503 34.013 78.0158 34.8723 79.9479L34.7577 80C34.3254 79.073 33.5286 78.3647 32.5547 78.047C31.6017 77.6772 30.5393 77.7189 29.6175 78.1616L29.5602 78.047C30.4872 77.6148 31.1955 76.8179 31.5131 75.8441C31.8829 74.891 31.8413 73.8234 31.4038 72.9016L31.5184 72.8495C31.9506 73.7765 32.7474 74.4848 33.7213 74.7973C34.6744 75.1722 35.7368 75.1306 36.6586 74.6879ZM33.5026 65.9177L33.5443 66.0114C31.9506 66.7978 31.2632 68.7039 31.9819 70.3288L31.8881 70.3757C31.5236 69.5945 30.8517 69.006 30.0341 68.7352C29.2373 68.4279 28.3467 68.4592 27.5707 68.8289L27.5239 68.7352C28.305 68.3758 28.9092 67.704 29.18 66.8864C29.4873 66.0948 29.456 65.2042 29.0862 64.4386L29.1852 64.3918C29.555 65.1573 30.2268 65.7406 31.034 66.001C31.836 66.3083 32.7266 66.277 33.5026 65.9073V65.9177ZM41.9291 74.74L41.9551 74.792C41.5333 74.9952 41.2104 75.3597 41.0593 75.8024C40.8927 76.2399 40.9083 76.7294 41.1114 77.1512H41.0593C40.8562 76.7294 40.4917 76.4065 40.049 76.2555C39.6115 76.0888 39.122 76.1045 38.7001 76.3076L38.6741 76.2555C39.5386 75.8232 39.9136 74.7816 39.5178 73.8963H39.5699C40.0021 74.7608 41.0437 75.1358 41.9291 74.74ZM45.6267 63.9699C45.7465 63.9335 45.8715 63.9335 45.9913 63.9699C46.184 64.022 46.3402 64.1678 46.4079 64.3553C46.7464 65.0167 49.366 65.0688 49.8556 64.3241C50.0066 64.022 50.3764 63.9022 50.6732 64.0532C50.944 64.1886 51.0742 64.5063 50.9753 64.798C50.0951 66.527 45.9861 66.4854 45.2465 64.7615C45.1372 64.4438 45.2986 64.1001 45.6163 63.9855L45.6267 63.9699ZM54.4959 54.0227L53.7928 54.8924C53.5897 55.1528 53.2095 55.1997 52.9439 54.9966C52.9439 54.9966 52.9439 54.9966 52.9387 54.9966C52.6783 54.7779 52.6418 54.3925 52.8606 54.1321L53.3293 53.5123C53.0637 53.3196 52.996 52.9499 53.1782 52.6791C53.3605 52.403 53.7303 52.3249 54.0063 52.5072C54.0063 52.5072 54.0167 52.5124 54.0219 52.5176C54.6625 52.8613 55.3812 53.0176 56.1051 52.9759C56.8551 52.9863 57.5998 52.7936 58.2508 52.4239C58.532 52.2416 58.907 52.3197 59.0841 52.6009C59.2663 52.8822 59.183 53.2624 58.9018 53.4446L58.8445 53.4811L59.3913 54.0852C59.6153 54.3352 59.5997 54.7206 59.3445 54.9445C59.0945 55.1685 58.7091 55.1528 58.4852 54.9029L57.6467 53.9758C57.3602 54.054 57.0686 54.106 56.7717 54.1425V54.9966C56.803 55.3351 56.553 55.632 56.2145 55.6632C55.876 55.6945 55.5791 55.4445 55.5479 55.106C55.5479 55.0695 55.5479 55.0331 55.5479 54.9914V54.1581C55.1989 54.1373 54.85 54.08 54.5063 53.9967L54.4907 54.0227H54.4959ZM38.471 54.0227L37.7627 54.8768C37.5544 55.1424 37.169 55.1841 36.9086 54.9706C36.6482 54.7622 36.6013 54.3821 36.8096 54.1217C36.8096 54.1217 36.8096 54.1217 36.8096 54.1165L37.2784 53.5332C36.9919 53.3457 36.9086 52.9603 37.0961 52.6739C37.2836 52.3874 37.669 52.3041 37.9554 52.4916C38.5803 52.8405 39.2886 53.0124 40.0021 52.9811C40.0542 52.9759 40.1115 52.9759 40.1636 52.9811H40.2938C41.002 52.9759 41.6999 52.7988 42.3249 52.4603C42.6426 52.3458 42.9967 52.5176 43.1061 52.8353C43.1894 53.0697 43.1217 53.3353 42.9342 53.5019H42.8977L43.3925 54.0227C43.5956 54.2935 43.5435 54.6789 43.2727 54.882C43.0384 55.0591 42.705 55.0435 42.4863 54.8456L41.6791 54.0227C41.377 54.0956 41.0697 54.1529 40.7625 54.1894V55.0122C40.7312 55.3507 40.4344 55.6007 40.0959 55.5695C39.799 55.5434 39.5699 55.3091 39.5386 55.0122V54.1842C39.1793 54.179 38.8199 54.1217 38.471 54.0279V54.0227ZM53.9074 49.9865C53.6313 50.1845 53.2512 50.122 53.0533 49.8511C52.8606 49.5803 52.9231 49.2001 53.1991 49.0075C54.2146 48.2367 55.4437 47.8044 56.7197 47.768C58.0164 47.794 59.2768 48.2211 60.3184 48.997C60.5683 49.2262 60.584 49.6116 60.3548 49.8563C60.1725 50.0543 59.8809 50.1115 59.6361 49.9918C58.7976 49.3616 57.7821 49.0075 56.7353 48.9814C55.7093 49.0022 54.7146 49.3564 53.9074 49.9865ZM36.7576 49.9865C36.4815 50.1845 36.1014 50.122 35.9035 49.8511C35.7108 49.5803 35.7733 49.2001 36.0493 49.0075C37.0648 48.2367 38.2939 47.8044 39.5699 47.768C40.8666 47.794 42.127 48.2211 43.1686 48.997C43.455 49.1741 43.5383 49.5543 43.3612 49.8355C43.1842 50.122 42.804 50.2053 42.5228 50.0282C42.5071 50.0178 42.4967 50.0126 42.4811 50.0022C41.6426 49.372 40.6271 49.0179 39.5803 48.9918C38.5543 49.0179 37.5648 49.3668 36.7524 49.997V49.9865H36.7576ZM29.055 46.9659C29.2216 46.8618 29.4143 46.8097 29.6122 46.8253C29.3362 45.0494 29.2633 43.2527 29.3987 41.4611C29.5862 36.3521 30.8778 32.2691 34.9087 28.7277C40.976 23.3843 53.0064 22.9156 59.6986 27.5194C60.709 28.2173 61.6308 29.0401 62.4432 29.962C65.1565 33.0867 67.5782 39.9144 67.5262 44.1328C67.5053 45.1484 67.3283 46.1535 67.0054 47.1118C67.0054 47.2107 66.9689 47.3201 66.9377 47.4399C67.6303 47.8669 68.2188 48.4346 68.6719 49.1116C69.3073 50.0595 69.6094 51.1896 69.5364 52.3301C69.4427 53.5488 69.0573 54.7206 68.4063 55.757C67.4585 57.2516 66.2086 58.5276 64.7295 59.4963C63.2973 62.9179 61.3235 66.0843 58.881 68.8706C57.0061 71.0631 54.6313 72.7714 51.9596 73.8546C49.2619 74.8858 46.2725 74.8181 43.6269 73.6671C41.9395 72.9328 40.3927 71.9173 39.0439 70.6673C37.544 69.2924 36.242 67.7196 35.1639 65.9958C34.0338 64.173 33.0599 62.2565 32.2527 60.2671C31.8777 60.1525 31.5079 60.0119 31.1538 59.8452C30.6695 59.6265 30.2164 59.3505 29.7945 59.0276C28.6384 58.1005 27.7843 56.8454 27.352 55.4237C26.852 53.8665 26.7114 52.2156 26.9354 50.5959C27.0239 49.8511 27.253 49.1324 27.6072 48.4762C27.9613 47.8617 28.4561 47.3461 29.055 46.9659ZM30.0601 48.5283C29.7164 48.7418 29.4352 49.0439 29.2425 49.398C28.9977 49.8459 28.8467 50.3355 28.7894 50.8407C28.5915 52.1843 28.7061 53.554 29.1123 54.8456C29.4404 55.908 30.081 56.8454 30.9507 57.5329C31.2788 57.7724 31.6277 57.9756 31.9923 58.1474C32.3829 58.3297 32.7891 58.4703 33.2057 58.5745C33.4974 58.6422 33.7317 58.8505 33.8463 59.1265C34.6275 61.168 35.5962 63.1314 36.7263 65.0011C37.7002 66.5843 38.8876 68.0269 40.2469 69.2924C41.4395 70.4017 42.8144 71.3079 44.3091 71.9641C46.5277 72.9276 49.0327 72.9849 51.293 72.1204C53.6886 71.1413 55.8083 69.5997 57.48 67.6259C59.8496 64.9282 61.7505 61.8607 63.1098 58.538C63.1879 58.3609 63.3129 58.2099 63.4744 58.1058C64.8128 57.2673 65.9534 56.1423 66.8075 54.8091C67.297 54.0331 67.5991 53.153 67.6772 52.2364C67.7293 51.5021 67.547 50.7729 67.1564 50.1532C66.9273 49.8095 66.646 49.5126 66.3179 49.2626C61.7089 59.7358 62.9484 51.0802 62.9484 45.539C58.5997 43.5131 55.7718 39.0967 54.3292 32.467C52.6054 45.0911 37.1013 44.5442 33.2057 46.8462C33.2057 50.8823 34.5233 56.9808 31.2111 51.0438C30.7528 50.2365 30.3674 49.3876 30.0601 48.5127V48.5283Z" fill="white"/>
</svg>
