<svg width="23" height="32" viewBox="0 0 23 32" fill="none" xmlns="http://www.w3.org/2000/svg">
<g clip-path="url(#clip0_312_24128)">
<path d="M12.1401 0C12.7139 0.108333 13.3042 0.183333 13.8696 0.325C18.1018 1.325 21.4776 4.95 22.2343 9.23333C22.6583 11.6333 22.2675 13.9333 21.4527 16.1833C20.5547 18.6667 19.2742 20.9667 17.8108 23.15C16.1562 25.6167 14.435 28.0417 12.7471 30.4833C12.5559 30.7667 12.3813 31.0667 12.1651 31.325C11.9572 31.575 11.6995 31.775 11.4666 32C11.3003 32 11.134 32 10.9678 32C10.7349 31.775 10.4522 31.5833 10.2693 31.325C8.47332 28.7667 6.66902 26.2083 4.92291 23.6167C3.41794 21.3833 2.07095 19.0583 1.10644 16.525C0.407994 14.75 -0.0493181 12.925 0.00888527 11C0.108663 7.725 1.38082 4.99167 3.80874 2.81667C5.59641 1.20833 7.70836 0.3 10.0947 0.0583333C10.1529 0.05 10.2111 0.025 10.2693 0C10.8929 0 11.5165 0 12.1401 0ZM11.2006 29.3667C11.2588 29.3 11.3003 29.2583 11.3253 29.2167C12.8885 26.9667 14.4849 24.7333 16.0148 22.45C17.4865 20.2583 18.8086 17.975 19.7066 15.475C20.405 13.5417 20.7542 11.575 20.3801 9.50833C19.4571 4.40833 14.3436 0.966667 9.28817 2.075C4.19122 3.19167 1.01497 8.15833 2.08758 13.2833C2.48669 15.1917 3.23502 16.9667 4.14133 18.675C5.49663 21.2583 7.15959 23.65 8.83917 26.025C9.61245 27.1333 10.394 28.2333 11.2006 29.3667Z" fill="#13AB7B"/>
<path d="M11.2179 5.625C14.3193 5.625 16.8138 8.14167 16.8138 11.275C16.8138 14.375 14.3027 16.875 11.2013 16.875C8.0999 16.875 5.60547 14.3583 5.60547 11.225C5.60547 8.125 8.11653 5.625 11.2179 5.625ZM7.46798 11.2333C7.45966 13.275 9.13093 14.9833 11.1681 15C13.2135 15.025 14.9263 13.325 14.9346 11.2667C14.943 9.21667 13.2467 7.5 11.2013 7.5C9.18082 7.5 7.48461 9.19167 7.46798 11.2333Z" fill="#13AB7B"/>
</g>
<defs>
<clipPath id="clip0_312_24128">
<rect width="22.4" height="32" fill="white"/>
</clipPath>
</defs>
</svg>
