<svg width="27" height="32" viewBox="0 0 27 32" fill="none" xmlns="http://www.w3.org/2000/svg">
<path fill-rule="evenodd" clip-rule="evenodd" d="M26.5871 13.248C26.5871 5.936 20.6467 0 13.2935 0C5.9564 0 0 5.936 0 13.248C0 16.912 1.49311 20.224 3.90136 22.608C4.09402 22.8 4.36696 22.928 4.65595 22.928C5.24998 22.928 5.73163 22.448 5.73163 21.856C5.73163 21.552 5.61925 21.28 5.41053 21.072C3.40366 19.072 2.16742 16.288 2.16742 13.248C2.16742 7.136 7.14447 2.144 13.2775 2.144C19.4105 2.144 24.4196 7.12 24.4196 13.248C24.4196 16.32 23.1834 19.088 21.1605 21.104L11.7683 30.464L13.2935 32L22.7178 22.608C25.11 20.224 26.5871 16.912 26.5871 13.248Z" fill="#13AB7B"/>
<path fill-rule="evenodd" clip-rule="evenodd" d="M19.4589 15.81L16.1355 7.45801L13.342 12.338L10.5323 7.45801L7.22502 15.81H6.26172V17.058H11.2548V15.81H10.5163L11.2388 13.73L13.342 17.154L15.4452 13.73L16.1676 15.81H15.4131V17.058H20.4383V15.81H19.4589Z" fill="#13AB7B"/>
</svg>
