<svg width="25" height="24" viewBox="0 0 25 24" fill="none" xmlns="http://www.w3.org/2000/svg">
<path d="M12.4023 24C18.9826 24 24.414 18.5687 24.414 12C24.414 5.43133 18.971 0 12.3907 0C5.82207 0 0.402344 5.43133 0.402344 12C0.402344 18.5687 5.83368 24 12.4023 24ZM12.4023 21.6093C7.07546 21.6093 2.81627 17.3269 2.81627 12C2.81627 6.67311 7.07546 2.40232 12.3907 2.40232C17.7176 2.40232 22 6.67311 22.0116 12C22.0232 17.3269 17.7292 21.6093 12.4023 21.6093ZM12.4023 12.5455C12.6112 12.5455 12.8201 12.4642 13.0406 12.2437L17.9265 7.35783C17.764 7.23017 17.4275 7.12573 16.9517 7.12573H7.84142C7.36559 7.12573 7.02904 7.23017 6.87817 7.35783L11.764 12.2437C11.9962 12.4758 12.2051 12.5455 12.4023 12.5455ZM10.1741 12L6.28629 8.11219C6.20505 8.25145 6.15863 8.54159 6.15863 8.94777V15.0638C6.15863 15.47 6.19345 15.7485 6.27468 15.8994L10.1741 12ZM14.5958 12L18.4952 15.8994C18.5764 15.7485 18.6228 15.47 18.6228 15.0638V8.94777C18.6228 8.54159 18.5764 8.25145 18.4952 8.11219L14.5958 12ZM12.3907 13.4971C11.9846 13.4971 11.648 13.3462 11.2302 12.9516L10.882 12.6383L6.86656 16.6538C7.02904 16.793 7.35399 16.8859 7.84142 16.8859H16.9517C17.4391 16.8859 17.764 16.793 17.9265 16.6538L13.8994 12.6383L13.5629 12.9516C13.1335 13.3462 12.8085 13.4971 12.3907 13.4971Z" fill="#13AB7B"/>
</svg>
