<svg width="30" height="30" viewBox="0 0 30 30" fill="none" xmlns="http://www.w3.org/2000/svg">
<g clip-path="url(#clip0_312_24131)">
<path d="M0 14.9941C0 6.72353 6.73644 -0.00234699 15.0153 6.14368e-07C23.2847 0.00234822 30.0082 6.73996 30.0047 15.02C30.0012 23.2835 23.2553 30.007 14.9742 30C6.72353 29.9941 0 23.2553 0 14.9941ZM1.87573 14.9977C1.87339 22.2154 7.75413 28.1067 14.9777 28.1243C22.2048 28.1419 28.1149 22.2506 28.1278 15.0164C28.1407 7.78934 22.2459 1.88278 15.0117 1.87573C7.7823 1.86869 1.87808 7.76704 1.87573 14.9977Z" fill="#13AA7A"/>
<path d="M14.0731 5.63867H15.9383V5.99551C15.9383 8.77859 15.9395 11.5605 15.9348 14.3436C15.9348 14.5337 15.9876 14.6675 16.1238 14.8025C17.7647 16.4341 19.3998 18.0727 21.0373 19.7078C21.1136 19.783 21.2004 19.8475 21.2533 19.8921C20.799 20.3464 20.367 20.7772 19.9163 21.2279C19.9116 21.2232 19.8529 21.1774 19.8013 21.1246C17.9431 19.2677 16.085 17.4119 14.2328 15.5491C14.1471 15.4634 14.0696 15.3214 14.0696 15.2051C14.0614 12.0711 14.0626 8.93705 14.0626 5.803C14.0626 5.75605 14.0684 5.70793 14.0731 5.63985V5.63867Z" fill="#13AA7A"/>
</g>
<defs>
<clipPath id="clip0_312_24131">
<rect width="30.0047" height="30" fill="white"/>
</clipPath>
</defs>
</svg>
