<svg width="25" height="24" viewBox="0 0 25 24" fill="none" xmlns="http://www.w3.org/2000/svg">
<path d="M12.4023 24C18.9658 24 24.4023 18.575 24.4023 12C24.4023 5.43659 18.9658 0 12.3907 0C5.82732 0 0.402344 5.43659 0.402344 12C0.402344 18.575 5.83894 24 12.4023 24ZM12.4023 21.6418C7.05868 21.6418 2.77214 17.3437 2.77214 12C2.77214 6.65634 7.04707 2.3698 12.3907 2.3698C17.7344 2.3698 22.0325 6.65634 22.0442 12C22.0442 17.3437 17.746 21.6418 12.4023 21.6418ZM9.88153 19.272H14.9232C16.0616 19.272 16.8399 18.5286 16.8399 17.4134V6.57502C16.8399 5.47144 16.0616 4.72798 14.9232 4.72798H9.88153C8.7431 4.72798 7.96478 5.47144 7.96478 6.57502V17.4134C7.96478 18.5286 8.7431 19.272 9.88153 19.272ZM10.0442 17.9826C9.49818 17.9826 9.20777 17.6922 9.20777 17.181V6.80736C9.20777 6.29622 9.49818 6.00581 10.0442 6.00581H10.4856C10.5901 6.00581 10.625 6.06389 10.625 6.15683V6.31946C10.625 6.62149 10.8225 6.81897 11.1129 6.81897H13.6918C13.9822 6.81897 14.1797 6.62149 14.1797 6.31946V6.15683C14.1797 6.06389 14.2262 6.00581 14.3191 6.00581H14.7605C15.3065 6.00581 15.6085 6.30784 15.6085 6.81897V17.181C15.6085 17.6922 15.3065 17.9826 14.7605 17.9826H10.0442ZM10.9735 17.4714H13.8428C14.0403 17.4714 14.1797 17.3437 14.1797 17.1346C14.1797 16.9255 14.0403 16.7861 13.8428 16.7861H10.9735C10.776 16.7861 10.625 16.9255 10.625 17.1346C10.625 17.3437 10.776 17.4714 10.9735 17.4714Z" fill="#13AB7B"/>
</svg>
