<svg width="96" height="96" viewBox="0 0 96 96" fill="none" xmlns="http://www.w3.org/2000/svg">
<circle cx="48" cy="48" r="48" fill="#13AB7B"/>
<path d="M38.0449 54.2646C37.7729 55.1826 37.7996 56.3124 38.3633 57.7007L36.0471 58.6413C35.4926 57.2759 35.2873 55.9703 35.4123 54.7498C35.4541 54.3414 35.5329 53.9426 35.6479 53.5543L38.0449 54.2646Z" fill="white"/>
<path d="M59.1679 57.87L61.5944 58.4721C61.9077 57.2099 61.973 56.0236 61.8119 54.9244L59.0137 54.098C59.4282 55.105 59.5468 56.3434 59.1679 57.87Z" fill="white"/>
<path fill-rule="evenodd" clip-rule="evenodd" d="M47.6881 44.8555C53.2199 44.8555 57.6993 40.3761 57.6993 34.8445C57.6993 29.3127 53.2199 24.8333 47.6881 24.8333C42.1564 24.8333 37.6771 29.3127 37.6771 34.8445C37.6771 40.3761 42.1564 44.8555 47.6881 44.8555ZM60.5326 34.8445C60.5326 41.941 54.7846 47.6888 47.6881 47.6888C40.5916 47.6888 34.8438 41.941 34.8438 34.8445C34.8438 27.7478 40.5916 22 47.6881 22C54.7846 22 60.5326 27.7478 60.5326 34.8445Z" fill="white"/>
<path fill-rule="evenodd" clip-rule="evenodd" d="M39.1776 52.6399C38.8542 51.9772 38.1236 51.6191 37.4113 51.7942C29.7555 53.6755 22 57.5117 22 63.2827V70.1667V73H24.8333H70.1667H73V70.1667V63.2827C73 57.5117 65.2444 53.6755 57.5886 51.7942C56.8763 51.6191 56.1458 51.9772 55.8223 52.6399H50.0649C48.8059 52.6402 48.1648 52.6402 47.5351 52.6402C46.8819 52.6401 46.2409 52.6401 44.9348 52.6404L39.1776 52.6399ZM50.0654 55.4733C50.0652 55.4733 50.0656 55.4733 50.0654 55.4733C48.7985 55.4736 48.1602 55.4736 47.534 55.4736C46.8849 55.4734 46.2479 55.4734 44.9355 55.4737L39.1774 55.4733L37.4074 55.4731L37.0813 54.8049C33.7913 55.6924 30.6881 56.9279 28.3979 58.4429C25.8145 60.1518 24.8333 61.8076 24.8333 63.2827V70.1667H70.1667V63.2827C70.1667 61.8076 69.1855 60.1518 66.602 58.4429C64.3119 56.9279 61.2087 55.6924 57.9187 54.8049L57.5926 55.4733H55.8223H50.0654Z" fill="white"/>
<path fill-rule="evenodd" clip-rule="evenodd" d="M36.166 62.9471C36.9287 62.9471 37.5827 62.3185 37.5827 61.499C37.5827 60.6794 36.9287 60.0509 36.166 60.0509C35.4033 60.0509 34.7493 60.6794 34.7493 61.499C34.7493 62.3185 35.4033 62.9471 36.166 62.9471ZM36.166 65.7804C38.5133 65.7804 40.416 63.8635 40.416 61.499C40.416 59.1344 38.5133 57.2175 36.166 57.2175C33.8187 57.2175 31.916 59.1344 31.916 61.499C31.916 63.8635 33.8187 65.7804 36.166 65.7804Z" fill="white"/>
<path fill-rule="evenodd" clip-rule="evenodd" d="M58.0239 57.7355C58.2768 57.5294 58.593 57.4167 58.9192 57.4167H63.0026C63.3289 57.4167 63.6451 57.5294 63.898 57.7355L66.8146 60.1141C67.1445 60.3832 67.3359 60.7863 67.3359 61.212V67.3963C67.3359 68.1787 66.7017 68.813 65.9193 68.813H63.0026V65.9796H64.5026V61.8848L62.4982 60.2501H59.4237L57.4193 61.8848V65.9796H58.9192V68.813H56.0026C55.2202 68.813 54.5859 68.1787 54.5859 67.3963V61.212C54.5859 60.7863 54.7773 60.3832 55.1073 60.1141L58.0239 57.7355Z" fill="white"/>
</svg>
