<svg width="96" height="96" viewBox="0 0 96 96" fill="none" xmlns="http://www.w3.org/2000/svg">
<circle cx="48" cy="48" r="48" fill="#13AB7B"/>
<path d="M30.1412 56.9288C30.6148 56.9288 31.069 56.7407 31.4039 56.4058C31.7388 56.0709 31.9269 55.6167 31.9269 55.1431V49.7859H46.2127V55.1431C46.2127 55.6167 46.4009 56.0709 46.7358 56.4058C47.0707 56.7407 47.5249 56.9288 47.9985 56.9288C48.4721 56.9288 48.9263 56.7407 49.2612 56.4058C49.596 56.0709 49.7842 55.6167 49.7842 55.1431V49.7859H64.07V55.1431C64.07 55.6167 64.2581 56.0709 64.593 56.4058C64.9279 56.7407 65.3821 56.9288 65.8557 56.9288C66.3293 56.9288 66.7835 56.7407 67.1184 56.4058C67.4533 56.0709 67.6414 55.6167 67.6414 55.1431V49.7859C67.6414 48.8387 67.2652 47.9303 66.5954 47.2605C65.9256 46.5908 65.0172 46.2145 64.07 46.2145H49.7842V42.643C49.7842 42.1694 49.596 41.7152 49.2612 41.3803C48.9263 41.0454 48.4721 40.8573 47.9985 40.8573C47.5249 40.8573 47.0707 41.0454 46.7358 41.3803C46.4009 41.7152 46.2127 42.1694 46.2127 42.643V46.2145H31.9269C30.9797 46.2145 30.0713 46.5908 29.4015 47.2605C28.7317 47.9303 28.3555 48.8387 28.3555 49.7859V55.1431C28.3555 55.6167 28.5436 56.0709 28.8785 56.4058C29.2134 56.7407 29.6676 56.9288 30.1412 56.9288Z" fill="white"/>
<path d="M40.8574 40.8573C41.331 40.8573 41.7852 40.6691 42.1201 40.3342C42.455 39.9993 42.6432 39.5451 42.6432 39.0715C42.6432 38.5715 44.2146 37.4822 44.9289 37.2858H45.1253C45.8628 37.1275 46.5424 36.7691 47.0896 36.2501C47.677 36.3872 48.288 36.3872 48.8753 36.2501C49.4226 36.7691 50.1022 37.1275 50.8396 37.2858H50.9646C51.7325 37.5715 53.2504 38.6608 53.3218 39.1608C53.3218 39.6344 53.5099 40.0886 53.8448 40.4235C54.1797 40.7584 54.6339 40.9465 55.1075 40.9465C55.5811 40.9465 56.0353 40.7584 56.3702 40.4235C56.7051 40.0886 56.8933 39.6344 56.8933 39.1608C56.8933 36.0001 52.6611 34.0536 52.0361 33.8036C53.0497 32.177 53.513 30.2674 53.3575 28.3572C53.2883 26.9587 52.7017 25.6359 51.7116 24.6459C50.7216 23.6558 49.3988 23.0692 48.0003 23C46.6019 23.0692 45.2791 23.6558 44.289 24.6459C43.299 25.6359 42.7123 26.9587 42.6432 28.3572C42.507 30.2376 42.9696 32.1129 43.9646 33.7144C43.3396 33.8929 39.1074 35.8394 39.1074 39.0715C39.1073 39.539 39.2906 39.9879 39.6178 40.3218C39.945 40.6557 40.39 40.8479 40.8574 40.8573ZM48.0003 26.5715C48.4521 26.6335 48.8711 26.8416 49.1935 27.164C49.516 27.4864 49.724 27.9054 49.7861 28.3572C49.9053 29.0904 49.8529 29.8413 49.6329 30.5509C49.4129 31.2605 49.0313 31.9093 48.5182 32.4465C48.4502 32.5145 48.3695 32.5685 48.2806 32.6053C48.1918 32.6421 48.0965 32.6611 48.0003 32.6611C47.9042 32.6611 47.8089 32.6421 47.7201 32.6053C47.6312 32.5685 47.5505 32.5145 47.4825 32.4465C46.9682 31.9101 46.5858 31.2613 46.3658 30.5515C46.1457 29.8417 46.0939 29.0904 46.2146 28.3572C46.2766 27.9054 46.4847 27.4864 46.8071 27.164C47.1296 26.8416 47.5486 26.6335 48.0003 26.5715Z" fill="white"/>
<path d="M33.8215 67.036C34.4255 65.8443 34.6969 64.5118 34.6072 63.1788C34.563 62.0089 34.0785 60.8989 33.2507 60.071C32.4228 59.2432 31.3128 58.7587 30.1429 58.7145C28.973 58.7587 27.863 59.2432 27.0352 60.071C26.2073 60.8989 25.7228 62.0089 25.6786 63.1788C25.5903 64.5097 25.8552 65.8403 26.4465 67.036C25.3214 67.6431 23 69.0003 23 71.2146C23 71.6882 23.1881 72.1424 23.523 72.4773C23.8579 72.8121 24.3121 73.0003 24.7857 73.0003C25.2593 73.0003 25.7135 72.8121 26.0484 72.4773C26.3833 72.1424 26.5715 71.6882 26.5715 71.2146C26.9764 70.7077 27.5054 70.3141 28.1072 70.0717C28.6438 69.9734 29.1509 69.7535 29.5893 69.4288C29.7734 69.4464 29.9588 69.4464 30.1429 69.4288C30.333 69.4465 30.5243 69.4465 30.7143 69.4288C31.1546 69.7905 31.6751 70.0415 32.2322 70.161C32.806 70.4091 33.3136 70.7883 33.7144 71.2681C33.7179 71.5026 33.7675 71.7342 33.8605 71.9495C33.9535 72.1648 34.088 72.3597 34.2563 72.523C34.4246 72.6863 34.6235 72.8149 34.8415 72.9014C35.0595 72.9879 35.2924 73.0306 35.5269 73.0271C35.7614 73.0236 35.9929 72.9739 36.2082 72.8809C36.4235 72.7879 36.6184 72.6534 36.7817 72.4851C36.9451 72.3168 37.0736 72.118 37.1601 71.9C37.2466 71.682 37.2893 71.4491 37.2858 71.2146C37.2858 69.0003 34.9644 67.6431 33.8215 67.036ZM30.1429 62.2859C30.363 62.3306 30.565 62.4391 30.7238 62.5979C30.8826 62.7567 30.9911 62.9587 31.0358 63.1788C31.0358 64.5181 31.0358 65.1431 30.2143 65.9288H30.1429C29.3572 65.1431 29.3215 64.5181 29.3215 63.1788C29.3608 62.9679 29.4587 62.7723 29.6039 62.6144C29.7492 62.4565 29.936 62.3426 30.1429 62.2859Z" fill="white"/>
<path d="M51.677 67.036C52.281 65.8443 52.5524 64.5118 52.4627 63.1788C52.4185 62.0089 51.934 60.8989 51.1061 60.071C50.2783 59.2432 49.1683 58.7587 47.9984 58.7145C46.8285 58.7587 45.7185 59.2432 44.8906 60.071C44.0628 60.8989 43.5783 62.0089 43.5341 63.1788C43.4458 64.5097 43.7107 65.8403 44.3019 67.036C43.1769 67.6431 40.8555 69.0003 40.8555 71.2146C40.8555 71.6882 41.0436 72.1424 41.3785 72.4773C41.7134 72.8122 42.1676 73.0003 42.6412 73.0003C43.1148 73.0003 43.569 72.8122 43.9039 72.4773C44.2388 72.1424 44.4269 71.6882 44.4269 71.2146C44.8319 70.7078 45.3609 70.3141 45.9626 70.0717C46.5135 69.9496 47.0275 69.6987 47.4627 69.3396C47.6468 69.3571 47.8321 69.3571 48.0162 69.3396C48.2063 69.3572 48.3976 69.3572 48.5877 69.3396C49.028 69.7012 49.5484 69.9522 50.1055 70.0717C50.6793 70.3199 51.1869 70.699 51.5877 71.1788C51.6273 71.62 51.8293 72.0306 52.1547 72.3311C52.4801 72.6316 52.9055 72.8004 53.3483 72.8049C53.7912 72.8093 54.2199 72.6491 54.5512 72.3552C54.8825 72.0613 55.0928 71.6548 55.1413 71.2146C55.1413 69.0003 52.8198 67.6431 51.677 67.036ZM47.9984 62.2859C48.2185 62.3306 48.4205 62.4391 48.5793 62.5979C48.7381 62.7567 48.8466 62.9587 48.8912 63.1788C48.8912 64.5181 48.8912 65.1431 48.0698 65.9288H47.9984C47.2127 65.1431 47.1769 64.5181 47.1769 63.1788C47.2162 62.9679 47.3141 62.7723 47.4594 62.6144C47.6047 62.4565 47.7914 62.3426 47.9984 62.2859Z" fill="white"/>
<path d="M69.5363 67.036C70.1403 65.8443 70.4118 64.5118 70.3221 63.1788C70.3221 61.9948 69.8517 60.8593 69.0145 60.022C68.1773 59.1848 67.0418 58.7145 65.8577 58.7145C64.6737 58.7145 63.5382 59.1848 62.701 60.022C61.8638 60.8593 61.3934 61.9948 61.3934 63.1788C61.3052 64.5097 61.5701 65.8403 62.1613 67.036C61.0363 67.6431 58.7148 69.0003 58.7148 71.2146C58.7148 71.6882 58.903 72.1424 59.2379 72.4773C59.5728 72.8122 60.027 73.0003 60.5006 73.0003C60.9742 73.0003 61.4284 72.8122 61.7633 72.4773C62.0982 72.1424 62.2863 71.6882 62.2863 71.2146C62.6913 70.7078 63.2203 70.3141 63.822 70.0717C64.3728 69.9496 64.8869 69.6987 65.322 69.3396C65.5061 69.3571 65.6915 69.3571 65.8756 69.3396C66.0657 69.3572 66.257 69.3572 66.447 69.3396C66.8873 69.7012 67.4078 69.9522 67.9649 70.0717C68.5387 70.3199 69.0463 70.699 69.4471 71.1788C69.4866 71.62 69.6887 72.0306 70.0141 72.3311C70.3394 72.6316 70.7648 72.8004 71.2077 72.8049C71.6506 72.8093 72.0793 72.6491 72.4106 72.3552C72.7419 72.0613 72.9522 71.6548 73.0007 71.2146C73.0007 69.0003 70.6792 67.6431 69.5363 67.036ZM65.8577 62.2859C66.0778 62.3306 66.2799 62.4391 66.4387 62.5979C66.5975 62.7567 66.706 62.9587 66.7506 63.1788C66.7506 64.5181 66.7506 65.1431 65.9292 65.9288H65.8577C65.072 65.1431 65.0363 64.5181 65.0363 63.1788C65.0756 62.9679 65.1735 62.7723 65.3188 62.6144C65.464 62.4565 65.6508 62.3426 65.8577 62.2859Z" fill="white"/>
</svg>
