<svg width="96" height="96" viewBox="0 0 96 96" fill="none" xmlns="http://www.w3.org/2000/svg">
<circle cx="48" cy="48" r="48" fill="#13AB7B"/>
<path d="M68.8165 32.968L48.0473 26.0882C47.692 25.9706 47.308 25.9706 46.9527 26.0882L26.2167 32.957L26.2146 32.9577L26.1835 32.968C26.1774 32.97 26.172 32.9733 26.1659 32.9754C26.091 33.001 26.0179 33.0318 25.9473 33.0676C25.9391 33.0716 25.9307 33.0751 25.9227 33.0793C25.8527 33.1165 25.7854 33.1584 25.7212 33.2047C25.707 33.2148 25.6933 33.2252 25.6795 33.2357C25.617 33.2826 25.5579 33.3337 25.5023 33.3886C25.4972 33.3938 25.4927 33.3994 25.4877 33.4046C25.4364 33.4577 25.3886 33.5139 25.3446 33.573C25.3356 33.5849 25.3263 33.5966 25.3176 33.6088C25.2722 33.6726 25.2312 33.7394 25.1949 33.8087C25.1894 33.8195 25.1845 33.8304 25.1792 33.8412C25.1453 33.9092 25.116 33.9793 25.0915 34.0511C25.0892 34.0579 25.0864 34.0643 25.0842 34.0711C25.0597 34.1475 25.0407 34.2254 25.0273 34.3044C25.0244 34.3209 25.0221 34.3374 25.0197 34.3539C25.0072 34.4353 25.0007 34.5174 25 34.5998V51.7993C25 52.2554 25.1823 52.6929 25.5069 53.0155C25.8315 53.338 26.2717 53.5192 26.7308 53.5192C27.1898 53.5192 27.63 53.338 27.9546 53.0155C28.2792 52.6929 28.4615 52.2554 28.4615 51.7993V36.9862L35.7276 39.393C33.8013 42.4839 33.1849 46.2069 34.0132 49.7481C34.8414 53.2893 37.0469 56.3606 40.1474 58.2904C36.0189 59.8418 32.4959 62.6614 30.0908 66.3393C29.9664 66.5285 29.8807 66.7402 29.8387 66.9623C29.7967 67.1844 29.7991 67.4126 29.8459 67.6338C29.8926 67.8549 29.9828 68.0648 30.1112 68.2513C30.2397 68.4378 30.4038 68.5974 30.5943 68.7208C30.7848 68.8443 30.998 68.9292 31.2215 68.9707C31.4451 69.0122 31.6747 69.0096 31.8972 68.9629C32.1197 68.9162 32.3308 68.8263 32.5184 68.6985C32.7059 68.5707 32.8663 68.4074 32.9903 68.218C34.5627 65.8174 36.7134 63.8449 39.2471 62.4796C41.7809 61.1142 44.6176 60.399 47.4999 60.399C50.3823 60.399 53.219 61.1142 55.7528 62.4796C58.2865 63.8449 60.4372 65.8174 62.0096 68.218C62.1337 68.4072 62.2941 68.5702 62.4816 68.6978C62.6692 68.8254 62.8802 68.915 63.1026 68.9616C63.325 69.0081 63.5544 69.0107 63.7778 68.9691C64.0012 68.9276 64.2142 68.8427 64.4046 68.7193C64.595 68.596 64.759 68.4366 64.8874 68.2502C65.0158 68.0638 65.106 67.8541 65.1529 67.6331C65.1997 67.4121 65.2023 67.1841 65.1605 66.9621C65.1187 66.7401 65.0332 66.5285 64.9091 66.3393C62.504 62.6614 58.9811 59.8418 54.8526 58.2905C57.9531 56.3607 60.1586 53.2894 60.9868 49.7482C61.8151 46.2069 61.1987 42.4839 59.2724 39.393L68.8165 36.2315C69.1612 36.1174 69.4609 35.8983 69.6733 35.6055C69.8857 35.3126 70 34.9608 70 34.5998C70 34.2388 69.8857 33.8869 69.6733 33.594C69.4609 33.3012 69.1612 33.0822 68.8165 32.968ZM57.8846 46.6394C57.885 48.2709 57.4961 49.8792 56.75 51.3324C56.0038 52.7855 54.9215 54.0422 53.5919 54.9993C52.2624 55.9563 50.7234 56.5865 49.1014 56.8381C47.4793 57.0897 45.8203 56.9555 44.2605 56.4466C42.7007 55.9376 41.2846 55.0684 40.1283 53.9103C38.972 52.7522 38.1084 51.3382 37.6085 49.7842C37.1086 48.2302 36.9866 46.5806 37.2525 44.9707C37.5183 43.3607 38.1645 41.8364 39.138 40.5227L46.9527 43.1113C47.308 43.2289 47.692 43.2289 48.0473 43.1113L55.862 40.5227C57.1774 42.2941 57.8863 44.438 57.8846 46.6394ZM55.873 36.893C55.8688 36.8945 55.8644 36.8958 55.8601 36.8973L47.5 39.6666L39.1399 36.8973C39.1355 36.8957 39.1311 36.8945 39.1267 36.8929L32.204 34.5998L47.5 29.5329L62.796 34.5998L55.873 36.893Z" fill="white"/>
</svg>
