<svg width="96" height="96" viewBox="0 0 96 96" fill="none" xmlns="http://www.w3.org/2000/svg">
<circle cx="48" cy="48" r="48" fill="#13AB7B"/>
<path d="M39.9577 36.1081C41.6567 34.5916 42.7307 32.3877 42.7307 29.9355V23.6129C42.7307 21.5376 41.0431 19.85 38.9678 19.85H29.9355C27.8602 19.85 26.1726 21.5376 26.1726 23.6129V29.9355C26.1726 32.3877 27.2464 34.5916 28.9456 36.1081H28.1291C23.5644 36.1081 19.85 39.8224 19.85 44.3871V53.4193C19.85 56.4407 22.2668 58.9069 25.2693 58.9866V76V76.15H25.4193H43.4838H43.6338V76V58.9868C46.6363 58.9071 49.0531 56.4409 49.0531 53.4195V44.3873C49.0533 39.8224 45.3388 36.1081 40.7741 36.1081H39.9577ZM28.2795 23.6129V23.6128C28.279 22.6995 29.0221 21.9564 29.9355 21.9564H38.9678C39.8812 21.9564 40.6241 22.6993 40.6241 23.6127V26.1724H39.1178V24.516V24.366H38.9678H37.1614H37.0114V24.516V26.1724H35.505V24.516V24.366H35.355H33.5486H33.3986V24.516V26.1724H31.8923V24.516V24.366H31.7423H29.9359H29.7859V24.516V26.1724H28.2795V23.6129ZM46.9467 44.3871V53.2693H43.6338V42.5805V42.4305H43.4838H41.6774H41.5274V42.5805V58.6886H27.3759V42.5805V42.4305H27.2259H25.4195H25.2695V42.5805V53.2693H21.9564V44.3871C21.9564 40.9835 24.7254 38.2145 28.129 38.2145H29.9892C30.5611 39.7906 32.3516 40.9241 34.4515 40.9241C36.5515 40.9241 38.3419 39.7904 38.9139 38.2145H40.7741C44.1777 38.2145 46.9467 40.9835 46.9467 44.3871ZM28.279 28.279H40.6241V29.7853H28.279V28.279ZM28.6004 31.8919H40.3029C39.4825 34.3394 37.1701 36.1081 34.4515 36.1081C31.733 36.1081 29.4208 34.3394 28.6004 31.8919ZM36.3905 38.2145C35.9221 38.576 35.2279 38.8178 34.4517 38.8178C33.6757 38.8178 32.982 38.576 32.5133 38.2145H36.3905ZM25.2695 56.879C24.1527 56.8306 23.1795 56.2442 22.5814 55.3759H25.2695V56.879ZM33.3985 74.0436H27.3759V72.5373H33.3985V74.0436ZM33.3985 70.4307H27.3759V60.7952H33.3985V70.4307ZM41.5274 74.0436H35.5048V72.5373H41.5274V74.0436ZM41.5274 70.4307H35.5048V60.7952H41.5274V70.4307ZM46.3218 55.3759C45.7238 56.2442 44.7506 56.8306 43.6338 56.879V55.3759H46.3218Z" fill="white" stroke="white" stroke-width="0.3"/>
<path d="M32.7951 53.4193V53.2693H32.6451H28.1289H27.9789V53.4193V55.2257V55.3757H28.1289H32.6451H32.7951V55.2257V53.4193Z" fill="white" stroke="white" stroke-width="0.3"/>
<path d="M40.924 53.4193V53.2693H40.774H36.2578H36.1078V53.4193V55.2257V55.3757H36.2578H40.774H40.924V55.2257V53.4193Z" fill="white" stroke="white" stroke-width="0.3"/>
<path d="M75.9993 52.6662H76.1493V52.5162V27.2258V27.0758H75.9993H50.709H50.559V27.2258V52.5162V52.6662H50.709H62.3009V74.0436H52.5154H52.3654V74.1936V76V76.15H52.5154H74.1928H74.3428V76V74.1936V74.0436H74.1928H64.4072V52.6662H75.9993ZM52.6655 50.5596V29.1822H74.043V50.5596H52.6655Z" fill="white" stroke="white" stroke-width="0.3"/>
<path d="M64.2587 30.6886C63.8753 30.6886 63.5396 30.8937 63.3554 31.2001C63.1711 30.8937 62.8354 30.6886 62.4521 30.6886C61.8707 30.6886 61.3988 31.1605 61.3988 31.7419C61.3988 32.2724 61.7916 32.7117 62.3021 32.7846V46.9573C61.7916 47.0302 61.3988 47.4695 61.3988 48C61.3988 48.5814 61.8707 49.0533 62.4521 49.0533C62.8354 49.0533 63.1711 48.8482 63.3554 48.5418C63.5396 48.8482 63.8753 49.0533 64.2587 49.0533C64.8401 49.0533 65.3119 48.5814 65.3119 48V48C65.3118 47.4695 64.9191 47.0302 64.4087 46.9573V32.7846C64.9191 32.7117 65.3119 32.2724 65.3119 31.7419C65.3119 31.1605 64.8401 30.6886 64.2587 30.6886Z" fill="white" stroke="white" stroke-width="0.3"/>
<path d="M65.1602 33.3985H65.0102V33.5485V35.3548V35.5048H65.1602H68.5599C69.719 35.5048 70.8793 35.7785 71.9151 36.2974L72.0493 36.3646L72.1164 36.2304L72.9249 34.6146L72.992 34.4804L72.8578 34.4133C71.5292 33.749 70.0439 33.3985 68.5599 33.3985H65.1602Z" fill="white" stroke="white" stroke-width="0.3"/>
<path d="M65.1602 37.0113H65.0102V37.1613V38.9676V39.1176H65.1602H68.5599C69.719 39.1176 70.8793 39.3913 71.9151 39.9102L72.0493 39.9774L72.1164 39.8432L72.9249 38.2274L72.992 38.0932L72.8578 38.0261C71.5292 37.3618 70.0439 37.0113 68.5599 37.0113H65.1602Z" fill="white" stroke="white" stroke-width="0.3"/>
<path d="M65.1602 40.6242H65.0102V40.7742V42.5805V42.7305H65.1602H68.5599C69.719 42.7305 70.8793 43.0042 71.9151 43.5231L72.0493 43.5903L72.1164 43.4561L72.9249 41.8403L72.992 41.7061L72.8578 41.639C71.5292 40.9747 70.0439 40.6242 68.5599 40.6242H65.1602Z" fill="white" stroke="white" stroke-width="0.3"/>
<path d="M65.1602 44.2371H65.0102V44.3871V46.1935V46.3435H65.1602H68.5599C69.719 46.3435 70.8793 46.6171 71.9151 47.136L72.0493 47.2032L72.1164 47.069L72.9249 45.4532L72.992 45.3191L72.8578 45.252C71.5292 44.5877 70.0439 44.2371 68.5599 44.2371H65.1602Z" fill="white" stroke="white" stroke-width="0.3"/>
<path d="M61.5485 35.5048H61.6985V35.3548V33.5485V33.3985H61.5485H58.1488C56.6641 33.3985 55.1788 33.7488 53.8509 34.4124L53.7167 34.4795L53.7838 34.6137L54.5923 36.2295L54.6594 36.3635L54.7935 36.2965C55.8303 35.7785 56.9906 35.5048 58.1488 35.5048H61.5485Z" fill="white" stroke="white" stroke-width="0.3"/>
<path d="M61.5485 39.1178H61.6985V38.9678V37.1614V37.0114H61.5485H58.1488C56.6641 37.0114 55.1788 37.3618 53.8509 38.0253L53.7167 38.0924L53.7838 38.2266L54.5923 39.8424L54.6594 39.9765L54.7935 39.9095C55.8303 39.3914 56.9906 39.1178 58.1488 39.1178H61.5485Z" fill="white" stroke="white" stroke-width="0.3"/>
<path d="M61.5485 42.7307H61.6985V42.5807V40.7743V40.6243H61.5485H58.1488C56.6641 40.6243 55.1788 40.9747 53.8509 41.6382L53.7167 41.7053L53.7838 41.8395L54.5923 43.4553L54.6594 43.5894L54.7935 43.5224C55.8303 43.0043 56.9906 42.7307 58.1488 42.7307H61.5485Z" fill="white" stroke="white" stroke-width="0.3"/>
<path d="M61.6985 44.3871V44.2371H61.5485H58.1488C56.6641 44.2371 55.1788 44.5875 53.8509 45.251L53.7167 45.3181L53.7838 45.4523L54.5923 47.0681L54.6594 47.2022L54.7935 47.1351C55.8294 46.6171 56.9898 46.3425 58.1488 46.3425H61.5485H61.6985V46.1925V44.3871Z" fill="white" stroke="white" stroke-width="0.3"/>
</svg>
