<svg width="37" height="32" viewBox="0 0 37 32" fill="none" xmlns="http://www.w3.org/2000/svg">
<g clip-path="url(#clip0_623_35245)">
<path d="M28.7166 13.4022C28.5332 13.5019 28.4291 13.5667 28.3151 13.6215C25.1525 15.2121 21.9948 16.7976 18.8371 18.3931C18.6041 18.5128 18.4157 18.5277 18.1728 18.4031C12.254 15.4215 6.33521 12.4448 0.421356 9.46822C0.297428 9.40839 0.183414 9.33859 0 9.23887C0.46597 8.99954 0.877412 8.79013 1.29381 8.58072C6.91024 5.75367 12.5366 2.92662 18.153 0.094584C18.3909 -0.0250794 18.5744 -0.0350514 18.8173 0.0846121C24.746 3.0762 30.6846 6.05781 36.6183 9.04441C36.7174 9.09427 36.8166 9.14912 36.995 9.24884C34.6999 10.4056 32.4593 11.5324 30.1592 12.6892C30.3426 12.7839 30.4814 12.8587 30.6251 12.9285C31.8049 13.472 32.9798 14.0254 34.1695 14.5489C34.4272 14.6636 34.4917 14.8082 34.4867 15.0675C34.4719 15.9101 34.4818 16.7577 34.4818 17.5854H33.2574C33.2574 17.0319 33.2375 16.4486 33.2673 15.8702C33.2822 15.576 33.1681 15.4464 32.9153 15.3317C31.6612 14.7683 30.412 14.1899 29.1628 13.6116C29.0389 13.5567 28.9248 13.4919 28.7464 13.3972C29.2124 13.1578 29.6238 12.9434 30.1096 12.6892C26.2827 10.9241 22.5252 9.19399 18.7429 7.4489C18.5694 7.82783 18.4108 8.17187 18.2323 8.56077C21.7073 10.1663 25.1723 11.7618 28.7067 13.3922L28.7166 13.4022Z" fill="#13AB7B"/>
<path d="M6.24519 13.7663C7.49439 14.3945 8.68906 14.9928 9.87877 15.5911C12.6548 16.9872 15.4357 18.3833 18.2117 19.7893C18.4397 19.904 18.6083 19.8741 18.8115 19.7694C22.0188 18.1539 25.231 16.5435 28.4383 14.918C28.6663 14.8034 28.8447 14.7884 29.0728 14.9081C29.5239 15.1424 29.9898 15.3468 30.4608 15.5463C30.664 15.631 30.7433 15.7407 30.7433 15.9751C30.7334 18.478 30.7433 20.976 30.7284 23.479C30.7284 23.6036 30.6541 23.7881 30.5549 23.8529C27.7591 25.6479 24.765 26.9542 21.4685 27.4777C18.2712 27.9863 15.1482 27.6572 12.0847 26.6251C10.0969 25.957 8.233 25.0146 6.46826 23.8778C6.36416 23.808 6.25015 23.6485 6.25015 23.5338C6.24023 20.3029 6.24023 17.072 6.24023 13.7613L6.24519 13.7663Z" fill="#13AB7B"/>
<path d="M32.4343 22.6912C33.4109 23.2396 34.3478 23.2197 35.3045 22.7011C35.6713 25.8224 36.0282 28.8937 36.3951 32.005H31.3438C31.7056 28.9137 32.0675 25.8373 32.4343 22.6961V22.6912Z" fill="#13AB7B"/>
<path d="M32.3399 20.3079C32.3498 19.4553 33.0388 18.7822 33.8915 18.7871C34.7342 18.7971 35.4133 19.4951 35.4034 20.3477C35.3935 21.1954 34.6995 21.8784 33.8518 21.8685C33.0091 21.8585 32.3349 21.1605 32.3399 20.3079Z" fill="#13AB7B"/>
</g>
<defs>
<clipPath id="clip0_623_35245">
<rect width="37" height="32" fill="white"/>
</clipPath>
</defs>
</svg>
