<svg width="316" height="316" viewBox="0 0 316 316" fill="none" xmlns="http://www.w3.org/2000/svg">
<circle cx="158" cy="158" r="158" fill="white"/>
<g clip-path="url(#clip0_697_8635)">
<path d="M255.975 161.842L278.001 162.793C275.944 209.728 247.005 251.284 203.686 269.493L195.868 250.894C193.916 246.268 195.82 240.909 200.248 238.549C204.352 236.369 208.209 233.752 211.78 230.763C225.236 238.311 242.262 233.523 249.814 220.074C256.994 207.301 253.061 191.148 240.824 183.086C243.11 178.641 244.891 173.958 246.129 169.123C247.271 164.678 251.376 161.632 255.975 161.832V161.842Z" fill="#C559A7"/>
<path d="M277.686 147.307L257.564 149.001C252.556 149.42 248.051 145.965 247.175 141.016C246.366 136.447 245.08 131.964 243.338 127.662C254.679 117.211 255.384 99.5353 244.909 88.1991C234.977 77.434 218.398 76.1776 206.942 85.3151C203.418 81.7743 199.524 78.6333 195.296 75.9587C191.41 73.4935 189.782 68.6582 191.391 64.356L199.114 43.711C243.138 60.168 273.734 100.506 277.676 147.326L277.686 147.307Z" fill="#FF8800"/>
<path d="M225.446 183.029C238.368 183.029 248.843 193.499 248.843 206.425C248.843 219.351 238.368 229.811 225.446 229.811C212.524 229.811 202.039 219.351 202.039 206.425C202.039 193.499 212.514 183.029 225.446 183.029Z" fill="#C559A7"/>
<path d="M224.387 83.7446C237.31 83.7446 247.794 94.2147 247.794 107.131C247.794 120.047 237.319 130.517 224.387 130.517C211.456 130.517 200.99 120.047 200.99 107.131C200.99 94.2147 211.456 83.7446 224.387 83.7446Z" fill="#FF8800"/>
<path d="M183.154 253.34L189.049 274.585C143.759 287.139 95.2788 272.472 64.5586 236.912L79.8425 223.72C83.6421 220.436 89.3176 220.598 92.9362 224.081C96.2882 227.308 99.964 230.173 103.906 232.629C100.888 247.763 110.706 262.478 125.837 265.495C140.207 268.36 154.358 259.641 158.252 245.516C163.176 246.316 168.185 246.563 173.174 246.24C177.774 245.954 181.935 248.914 183.164 253.34H183.154Z" fill="#707C89"/>
<path d="M184.297 39.2089L179.688 58.8545C178.545 63.7469 173.86 66.9545 168.88 66.2597C164.28 65.6124 159.624 65.4602 154.986 65.7838C148.539 51.7634 131.941 45.6337 117.924 52.0871C104.602 58.2168 98.2881 73.5792 103.449 87.2854C98.9833 89.5317 94.7933 92.273 90.9366 95.4616C87.4037 98.3932 82.29 98.4503 78.6809 95.5853L61.4258 81.86C90.6795 45.1007 138.521 28.4914 184.297 39.2089Z" fill="#FF7272"/>
<path d="M131.294 214.715C144.216 214.715 154.691 225.185 154.691 238.102C154.691 251.018 144.216 261.488 131.294 261.488C118.371 261.488 107.896 251.018 107.896 238.102C107.896 225.185 118.362 214.715 131.294 214.715Z" fill="#707C89"/>
<path d="M129.598 100.839C142.52 100.839 152.996 90.369 152.996 77.4531C152.996 64.5372 142.52 54.0668 129.598 54.0668C116.676 54.0668 106.201 64.5372 106.201 77.4531C106.201 90.369 116.676 100.839 129.598 100.839Z" fill="#FF7272"/>
<path d="M72.0633 135.01C84.9856 135.01 95.4605 145.48 95.4605 158.396C95.4605 171.312 84.9856 181.782 72.0633 181.782C59.141 181.782 48.666 171.312 48.666 158.396C48.666 145.48 59.141 135.01 72.0633 135.01Z" fill="#A68167"/>
<path d="M77.253 200.714C78.9481 204.988 77.4149 209.87 73.5773 212.402L55.189 224.567C29.2492 185.39 28.2302 134.781 52.5702 94.5859L69.8349 105.037C74.1391 107.635 75.7389 113.08 73.5392 117.601C71.5109 121.779 69.9206 126.158 68.7969 130.66C53.4654 132.459 42.5047 146.346 44.3045 161.661C46.0186 176.214 58.6933 186.96 73.3297 186.294C74.0915 191.234 75.4056 196.069 77.2435 200.704L77.253 200.714Z" fill="#A68167"/>
<circle cx="156.499" cy="157.5" r="44.7632" fill="#13AB7B"/>
<path fill-rule="evenodd" clip-rule="evenodd" d="M158.144 185.681C139.391 185.681 122.938 173.324 123.292 160.139C122.879 150.561 128.245 140.392 140.335 135.011C144.816 133.001 152.542 131.287 160.031 131.228C161.683 131.168 162.744 130.991 164.218 130.695C165.162 130.518 166.223 130.282 167.757 130.104C170.234 129.749 173.595 129.395 176.544 130.577C179.964 132.292 183.325 134.893 183.325 136.135C183.325 137.376 181.084 139.623 179.61 139.801C177.074 140.096 173.89 139.623 169.88 138.973C166.813 138.5 163.275 137.909 159.265 137.613C142.34 137.376 129.955 148.788 130.309 159.903C130.663 173.975 148.296 180.124 159.206 180.124C189.518 180.301 188.574 153.222 181.438 151.921C179.138 151.507 177.251 155.528 175.246 159.962C172.887 165.106 170.293 170.841 166.341 170.782C162.685 170.723 159.795 164.633 157.378 159.489C155.667 155.942 154.252 152.867 152.955 152.69C150.596 152.453 148.827 157.952 147.234 162.8C146.173 166.052 145.229 169.008 144.286 169.659C142.104 171.846 136.383 167.116 137.15 165.283C137.917 163.51 138.683 164.16 139.509 164.929C140.158 165.52 140.924 166.229 141.75 165.461C142.045 165.165 142.517 163.864 143.106 162.031C144.875 156.888 147.942 147.664 153.25 147.25C157.024 146.955 160.031 153.813 162.449 159.253C163.982 162.8 165.28 165.756 166.4 165.756C167.639 165.756 168.877 163.037 170.352 159.666C172.887 154.109 176.131 146.896 181.438 147.782C195.061 150.147 196.181 185.74 158.144 185.681ZM175.659 133.415C175.659 134.006 174.715 134.065 172.769 134.006C171.295 133.947 170.352 133.533 170.587 132.765C170.823 131.996 172.121 131.937 173.536 132.233C174.185 132.351 175.659 132.765 175.659 133.415Z" fill="white"/>
</g>
<defs>
<clipPath id="clip0_697_8635">
<rect width="243" height="243" fill="white" transform="translate(35 36)"/>
</clipPath>
</defs>
</svg>
