<svg width="23" height="14" viewBox="0 0 23 14" fill="none" xmlns="http://www.w3.org/2000/svg">
<path d="M22.2942 12.3713C22.2942 12.2841 22.2071 12.2841 22.2071 12.1969C21.8584 11.4995 21.0738 10.6278 20.0277 9.66889C19.5047 9.23302 19.2431 8.88431 19.0688 8.70997C18.8073 8.36127 18.8073 8.09975 18.8945 7.75106C18.9816 7.48954 19.3303 7.05366 19.9405 6.26909C20.2892 5.83322 20.4636 5.5717 20.7251 5.31018C22.0327 3.5667 22.6429 2.43343 22.4686 1.91038L22.3814 1.82322C22.2942 1.73604 22.2071 1.64887 22.0327 1.64887C21.8584 1.5617 21.5968 1.5617 21.3353 1.64887H18.0227C17.9355 1.64887 17.9355 1.64887 17.7612 1.64887C17.674 1.64887 17.5868 1.64887 17.5868 1.64887H17.4997H17.4125L17.3253 1.73604C17.2381 1.82321 17.2381 1.82321 17.2381 1.91038C16.8894 2.8693 16.4536 3.65387 16.0177 4.52561C15.7562 4.96148 15.4947 5.39736 15.2331 5.74605C14.9716 6.09475 14.7973 6.35627 14.6229 6.53061C14.4486 6.70496 14.2742 6.79214 14.187 6.96648C14.0999 7.05366 13.9255 7.14084 13.9255 7.05366C13.8384 7.05366 13.7512 7.05366 13.7512 6.96648C13.664 6.87931 13.5768 6.79213 13.4897 6.70496C13.4025 6.61778 13.4025 6.44344 13.3153 6.26909C13.3153 6.09474 13.3153 5.92039 13.3153 5.83322C13.3153 5.74604 13.3153 5.48453 13.3153 5.31018C13.3153 5.04866 13.3153 4.87431 13.3153 4.78713C13.3153 4.52561 13.3153 4.17692 13.3153 3.82822C13.3153 3.47953 13.3153 3.218 13.3153 3.04365C13.3153 2.8693 13.3153 2.60778 13.3153 2.43343C13.3153 2.17191 13.3153 1.99756 13.3153 1.91038C13.3153 1.82321 13.2281 1.64887 13.2281 1.56169C13.141 1.47452 13.0538 1.38734 12.9666 1.30017C12.8794 1.21299 12.7051 1.213 12.6179 1.12582C12.182 1.03865 11.659 0.951477 11.0488 0.951477C9.65401 0.951477 8.69509 1.03865 8.34639 1.213C8.17204 1.30018 7.99769 1.38734 7.91052 1.56169C7.73617 1.73604 7.73617 1.82322 7.82334 1.82322C8.25921 1.91039 8.60791 2.08473 8.78226 2.34625L8.86944 2.52061C8.95662 2.60779 8.9566 2.78213 9.04377 3.04365C9.13095 3.30517 9.13095 3.56669 9.13095 3.91539C9.13095 4.43844 9.13095 4.96148 9.13095 5.31018C9.13095 5.74605 9.04377 6.00757 9.04377 6.26909C9.04377 6.53061 8.95662 6.70496 8.86944 6.79214C8.78227 6.96649 8.78226 7.05366 8.69508 7.05366C8.69508 7.05366 8.69508 7.14083 8.6079 7.14083C8.52073 7.14083 8.43356 7.22801 8.25921 7.22801C8.17204 7.22801 7.99769 7.14084 7.91052 7.05366C7.73617 6.96649 7.56182 6.79214 7.47465 6.61779C7.3003 6.44344 7.12595 6.18191 6.9516 5.83322C6.77725 5.48452 6.51572 5.13583 6.34137 4.61279L6.16704 4.2641C6.07987 4.08975 5.90552 3.74105 5.73117 3.30517C5.55682 2.8693 5.38247 2.52061 5.20812 2.08474C5.12095 1.91039 5.03378 1.82321 4.94661 1.73604H4.85943C4.85943 1.73604 4.77224 1.64887 4.68507 1.64887C4.5979 1.64887 4.51073 1.56169 4.42356 1.56169H1.28529C0.93659 1.56169 0.762244 1.64886 0.67507 1.73604L0.587891 1.82322C0.587891 1.82322 0.587891 1.91039 0.587891 1.99756C0.587891 2.08474 0.587896 2.17191 0.67507 2.34625C1.11094 3.39234 1.63398 4.43844 2.15703 5.48453C2.68007 6.44344 3.20312 7.31519 3.55182 7.9254C3.98769 8.53562 4.33638 9.14584 4.77225 9.66889C5.20812 10.1919 5.46964 10.5406 5.55681 10.715C5.73116 10.8893 5.81833 10.9765 5.9055 11.0637L6.16704 11.3252C6.34139 11.4995 6.6029 11.7611 6.9516 12.0226C7.3003 12.2841 7.73616 12.5456 8.17203 12.8071C8.6079 13.0687 9.13096 13.243 9.654 13.4174C10.2642 13.5917 10.7873 13.6789 11.3103 13.5917H12.6179C12.8794 13.5917 13.0538 13.5045 13.2281 13.3302L13.3153 13.243C13.3153 13.1558 13.4025 13.1558 13.4025 13.0687C13.4025 12.9815 13.4025 12.8943 13.4025 12.72C13.4025 12.3713 13.4025 12.1098 13.4897 11.8482C13.5768 11.5867 13.5768 11.4124 13.664 11.238C13.7512 11.0637 13.8384 10.9765 13.9255 10.8893C14.0127 10.8021 14.0999 10.715 14.0999 10.715H14.187C14.3614 10.6278 14.6229 10.715 14.7973 10.8893C15.0588 11.0637 15.3203 11.3252 15.4946 11.5867C15.669 11.8482 15.9305 12.1098 16.2792 12.4585C16.6279 12.8071 16.8895 13.0687 17.0638 13.1558L17.3253 13.3302C17.4997 13.4174 17.674 13.5045 17.9355 13.5917C18.1971 13.6789 18.3714 13.6789 18.5457 13.6789L21.5097 13.5917C21.7712 13.5917 22.0327 13.5045 22.2071 13.4174C22.3814 13.3302 22.4686 13.243 22.4686 13.0687C22.4686 12.9815 22.4686 12.8072 22.4686 12.72C22.2942 12.5456 22.2942 12.4584 22.2942 12.3713Z" fill="white"/>
</svg>
