<svg width="16" height="24" viewBox="0 0 16 24" fill="none" xmlns="http://www.w3.org/2000/svg">
<path d="M14.548 14.9326C15.0989 14.3816 15.1776 13.5945 14.7054 12.8074C14.3118 12.1778 13.6035 11.8629 12.8164 12.0203C12.5015 12.0991 12.1867 12.2565 11.8719 12.4926C9.43187 14.1455 6.1261 14.0668 3.68611 12.4139C3.5287 12.3352 3.37127 12.2565 3.21386 12.1778C2.34806 11.7842 1.48227 11.9416 1.01001 12.7287C0.459048 13.5158 0.537747 14.3816 1.24613 15.09C1.40355 15.2474 1.56096 15.3261 1.63967 15.4835L1.71839 15.5622C2.82031 16.428 4.15837 16.979 5.88997 17.2151L4.86675 18.2384C4.00095 19.1042 3.05645 20.0487 2.19065 20.9145C1.95452 21.1506 1.63967 21.5441 1.63967 22.0951C1.63967 22.8035 2.03323 23.5119 2.74161 23.8267C2.97774 23.9841 3.21386 23.9841 3.44998 23.9841C3.84353 23.9841 4.31578 23.8267 4.63062 23.4332C5.81126 22.2525 6.75577 21.308 7.70028 20.3635C7.77899 20.2848 7.77898 20.2848 7.77898 20.2848C7.77898 20.2848 7.8577 20.2848 7.8577 20.3635C8.48737 21.0719 9.19575 21.7016 9.82542 22.4099C10.1403 22.7248 10.4551 23.0396 10.7699 23.3545C11.1635 23.748 11.4783 23.9054 11.9506 23.9054C12.6589 23.9841 13.446 23.5119 13.7609 22.8035C14.0757 22.1738 13.9183 21.3867 13.3673 20.9145C12.5802 20.1274 11.7931 19.2616 10.9273 18.4745L9.58929 17.1364C10.2977 17.0577 11.0848 16.9003 11.7932 16.5855C12.9738 16.1919 13.8396 15.641 14.548 14.9326Z" fill="white"/>
<path d="M7.77898 12.7287C11.1635 12.7287 13.9183 10.0526 13.9183 6.66811C13.9183 5.01522 13.2886 3.44105 12.108 2.26041C10.9273 1.07978 9.43188 0.450104 7.8577 0.450104C4.47321 0.450104 1.7971 3.20492 1.71839 6.5107C1.71839 8.16359 2.34806 9.65906 3.5287 10.8397C4.63062 12.099 6.12609 12.7287 7.77898 12.7287ZM6.04739 4.85782C6.51964 4.38556 7.14931 4.14943 7.77898 4.14943C9.19575 4.14943 10.219 5.25136 10.219 6.58941C10.219 8.00618 9.11704 9.02939 7.77898 9.02939C6.36222 9.02939 5.33901 7.92747 5.33901 6.58941C5.33901 5.95974 5.57513 5.33007 6.04739 4.85782Z" fill="white"/>
<path d="M14.548 14.9326C15.0989 14.3816 15.1776 13.5945 14.7054 12.8074C14.3118 12.1778 13.6035 11.8629 12.8164 12.0203C12.5015 12.0991 12.1867 12.2565 11.8719 12.4926C9.43187 14.1455 6.1261 14.0668 3.68611 12.4139C3.5287 12.3352 3.37127 12.2565 3.21386 12.1778C2.34806 11.7842 1.48227 11.9416 1.01001 12.7287C0.459048 13.5158 0.537747 14.3816 1.24613 15.09C1.40355 15.2474 1.56096 15.3261 1.63967 15.4835L1.71839 15.5622C2.82031 16.428 4.15837 16.979 5.88997 17.2151L4.86675 18.2384C4.00095 19.1042 3.05645 20.0487 2.19065 20.9145C1.95452 21.1506 1.63967 21.5441 1.63967 22.0951C1.63967 22.8035 2.03323 23.5119 2.74161 23.8267C2.97774 23.9841 3.21386 23.9841 3.44998 23.9841C3.84353 23.9841 4.31578 23.8267 4.63062 23.4332C5.81126 22.2525 6.75577 21.308 7.70028 20.3635C7.77899 20.2848 7.77898 20.2848 7.77898 20.2848C7.77898 20.2848 7.8577 20.2848 7.8577 20.3635C8.48737 21.0719 9.19575 21.7016 9.82542 22.4099C10.1403 22.7248 10.4551 23.0396 10.7699 23.3545C11.1635 23.748 11.4783 23.9054 11.9506 23.9054C12.6589 23.9841 13.446 23.5119 13.7609 22.8035C14.0757 22.1738 13.9183 21.3867 13.3673 20.9145C12.5802 20.1274 11.7931 19.2616 10.9273 18.4745L9.58929 17.1364C10.2977 17.0577 11.0848 16.9003 11.7932 16.5855C12.9738 16.1919 13.8396 15.641 14.548 14.9326Z" fill="white"/>
</svg>
