<svg width="40" height="48" viewBox="0 0 40 48" fill="none" xmlns="http://www.w3.org/2000/svg">
<g clip-path="url(#clip0_621_25936)">
<path d="M39.1145 18.8288C38.9076 22.0918 38.1336 24.9256 36.8124 27.6036C35.48 30.3017 33.665 32.6928 31.8967 35.1061C28.8072 39.3189 25.3885 43.2559 21.6851 46.9415C20.2661 48.3539 18.8092 48.3517 17.3901 46.9415C12.2298 41.8123 7.67672 36.1871 3.68416 30.1081C1.62894 26.9786 0.35666 23.5465 0.0430389 19.8231C-0.161593 17.3853 0.347763 14.9897 1.24637 12.7187C3.71975 6.47738 8.20387 2.39582 14.6876 0.649758C25.2796 -2.204 36.3475 4.65569 38.6185 15.4257C38.872 16.6312 38.9788 17.8701 39.1145 18.831V18.8288Z" fill="#13AB7B"/>
<path fill-rule="evenodd" clip-rule="evenodd" d="M20.2348 29.3605C13.181 29.3605 6.9924 24.6417 7.12549 19.6069C6.97022 15.9494 8.98874 12.066 13.5359 10.0115C15.2217 9.24384 18.1275 8.58909 20.9446 8.56651C21.5656 8.54393 21.9649 8.4762 22.5195 8.36331C22.8744 8.29558 23.2736 8.20527 23.8503 8.13754C24.782 8.00207 26.0463 7.86661 27.1554 8.31816C28.4419 8.97291 29.7063 9.96632 29.7063 10.4404C29.7063 10.9146 28.8634 11.7725 28.3088 11.8403C27.355 11.9531 26.1572 11.7725 24.6489 11.5242C23.4954 11.3436 22.1645 11.1178 20.6562 11.0049C14.2901 10.9146 9.632 15.2721 9.76509 19.5166C9.89818 24.8901 16.5304 27.2382 20.634 27.2382C32.0353 27.3059 31.6804 16.9654 28.9965 16.4687C28.1314 16.3106 27.4216 17.8459 26.6674 19.5392C25.7801 21.5035 24.8041 23.6935 23.318 23.6709C21.9427 23.6483 20.8558 21.3228 19.9464 19.3586C19.3031 18.0039 18.7708 16.8299 18.2828 16.7622C17.3955 16.6719 16.7301 18.7716 16.1312 20.6229C15.7319 21.8647 15.377 22.9936 15.0221 23.2419C14.2014 24.0773 12.0498 22.2711 12.3381 21.5712C12.6265 20.8939 12.9149 21.1422 13.2254 21.4357C13.4694 21.6615 13.7578 21.9324 14.0683 21.6389C14.1792 21.526 14.3567 21.0293 14.5785 20.3294C15.2439 18.3652 16.3974 14.8431 18.3937 14.685C19.8133 14.5721 20.9446 17.1911 21.854 19.2683C22.4307 20.6229 22.9187 21.7518 23.3402 21.7518C23.806 21.7518 24.2718 20.7132 24.8263 19.4263C25.7801 17.304 27.0001 14.5496 28.9965 14.8882C34.1204 15.7913 34.5418 29.383 20.2348 29.3605ZM26.8227 9.40188C26.8227 9.62766 26.4678 9.65023 25.7358 9.62766C25.1812 9.60508 24.8263 9.44704 24.9151 9.15353C25.0038 8.86002 25.4918 8.83744 26.0241 8.95033C26.2681 8.99548 26.8227 9.15353 26.8227 9.40188Z" fill="white"/>
</g>
<defs>
<clipPath id="clip0_621_25936">
<rect width="39.1159" height="48" fill="white"/>
</clipPath>
</defs>
</svg>
