<svg width="58" height="53" viewBox="0 0 58 53" fill="none" xmlns="http://www.w3.org/2000/svg">
<path d="M55.8345 12.4458C54.8175 9.74152 53.2453 7.41789 51.1617 5.54024C47.8864 2.58884 44.0005 0.914288 39.6117 0.562051C36.4188 0.304975 33.2799 0.847534 30.2831 2.1741C30.2348 2.19541 30.1169 2.19541 30.0658 2.1741C27.9126 1.24522 25.7267 0.701242 23.5664 0.55779C20.7968 0.37315 18.1139 0.748112 15.5928 1.67131C11.5435 3.15412 8.29525 5.73909 5.93753 9.35236C4.00307 12.318 2.9634 15.6472 2.84693 19.2463C2.79438 20.8725 2.95488 22.5414 3.32274 24.206C3.3412 24.2912 3.34546 24.3097 3.2503 24.4034C3.11253 24.5398 2.97334 24.6761 2.83415 24.8124C2.33562 25.3025 1.81863 25.8081 1.34424 26.3435C0.230718 27.5977 -0.203897 29.1586 0.0886867 30.8545C0.543186 33.4934 2.79154 35.408 5.45462 35.4364C5.49723 36.3397 5.66483 37.0541 5.98014 37.6833C7.01697 39.7513 8.71424 40.8208 11.0251 40.8648C11.0336 40.8648 11.0407 40.8648 11.0478 40.8648C11.0478 40.8748 11.0492 40.8847 11.0507 40.8961C11.0904 41.3861 11.1501 41.9045 11.3134 42.3874C12.079 44.6499 13.9637 46.0674 16.3655 46.1952L16.3754 46.2961C16.4322 46.8443 16.4904 47.411 16.6467 47.9607C17.2262 50.0102 19.3027 51.6379 21.4757 51.7472C23.0083 51.8254 24.3448 51.3794 25.4498 50.4235C25.7054 50.6522 25.9724 50.8567 26.2451 51.0612C27.5192 52.0199 28.8557 52.5 30.2391 52.5C31.0685 52.5 31.9136 52.3267 32.7743 51.9816C35.0298 51.0754 36.3634 49.3057 36.6319 46.8656C36.6347 46.8457 36.6361 46.8287 36.639 46.8159C36.6532 46.8145 36.6716 46.8131 36.6944 46.8117C37.8079 46.7605 38.8632 46.4097 39.8304 45.7691C41.6811 44.5448 42.7094 42.8206 42.8884 40.6461C42.8912 40.6077 42.8955 40.5807 42.8997 40.5623C42.9125 40.5609 42.9295 40.558 42.9508 40.558C43.3045 40.541 43.6468 40.4742 43.9621 40.4046C46.7928 39.784 48.9147 37.3339 49.1235 34.445C49.1278 34.3853 49.1349 34.3498 49.1406 34.3314C49.159 34.3257 49.1917 34.3186 49.2471 34.3115C51.3023 34.0899 52.9072 33.0517 53.8872 31.3075C54.3858 30.4198 54.7721 29.4668 55.1471 28.5436C55.2294 28.3419 55.3104 28.1402 55.3928 27.94C56.5489 25.1363 57.0829 22.3099 57.0744 19.0446C57.0858 16.9553 56.6455 14.6118 55.8302 12.4472L55.8345 12.4458ZM45.8227 31.8785C45.6949 32.2322 45.6736 32.6938 45.7659 33.1454C45.9974 34.2817 45.6438 35.4477 44.8171 36.2644C43.9919 37.0797 42.8216 37.4191 41.6882 37.1734C40.9581 37.0158 40.3005 37.1706 39.883 37.5995C39.4711 38.0228 39.3404 38.6449 39.5137 39.3493C39.7608 40.3492 39.4881 41.4457 38.7865 42.2809C38.0721 43.1302 37.0338 43.5748 35.9388 43.4995C35.8124 43.491 35.6789 43.464 35.5354 43.4356C35.4147 43.4114 35.2911 43.3859 35.1604 43.3702C34.5554 43.2935 34.0171 43.4583 33.6478 43.8361C33.2828 44.2082 33.1294 44.7408 33.216 45.3331C33.226 45.4027 33.2373 45.4737 33.2473 45.5433C33.3211 46.0191 33.3907 46.4694 33.27 46.9111C32.9575 48.0558 32.2389 48.7532 31.0699 49.0415C29.928 49.3242 28.9224 49.0231 27.8544 48.0686C27.9978 47.9181 28.1413 47.7689 28.2875 47.6227C28.6568 47.2519 29.029 46.8827 29.4011 46.5148C30.1425 45.7791 30.9109 45.0192 31.6466 44.2494C32.8326 43.0095 33.3666 41.3193 33.1138 39.6121C32.8652 37.9375 31.8937 36.5087 30.4478 35.692C29.5673 35.1949 28.6583 34.9506 27.7493 34.9648C27.7294 32.4395 26.0818 30.3176 23.6474 29.6799C23.2327 29.5719 22.7796 29.508 22.3009 29.4938C22.2214 27.146 21.0852 25.4573 18.922 24.4744C18.28 24.1833 17.5869 24.0441 16.8569 24.0611C16.7362 21.4051 15.2377 19.492 12.738 18.806C10.8291 18.2833 9.03523 18.7364 7.54674 20.1183C7.1874 20.4521 6.83943 20.8057 6.50423 21.1466C6.41901 21.2333 6.33522 21.3185 6.25 21.4051C6.11649 20.1851 6.13495 18.9878 6.30397 17.7691C6.79682 14.2226 8.28957 11.1562 10.7424 8.65499C15.4266 3.87848 21.855 3.10299 26.4454 4.44518C25.214 5.37833 24.1559 6.49611 23.1304 7.58123C22.9415 7.78149 22.7526 7.98034 22.5637 8.17918L21.8209 8.95751C21.3422 9.45888 20.865 9.95883 20.3849 10.4588C18.949 11.9544 18.3141 13.7283 18.4959 15.7338C18.7317 18.3259 20.4687 20.5359 22.9202 21.3654C24.9413 22.0485 26.8885 21.8071 28.7094 20.6495L30.8725 19.2732C33.5029 17.6001 36.2228 15.8702 38.893 14.1587C38.9697 14.1104 39.0109 14.0919 39.0308 14.0848C39.0464 14.0948 39.0791 14.1189 39.133 14.1715C40.9312 15.981 42.7634 17.816 44.5359 19.5914C46.5556 21.6125 48.642 23.7032 50.6887 25.7655C51.3648 26.4472 51.6659 27.4059 51.5125 28.3959C51.3563 29.4072 50.764 30.2494 49.8862 30.7096C49.267 31.0334 48.6577 31.1144 48.0242 30.9553C46.9377 30.6826 46.1366 31.0206 45.8241 31.8813L45.8227 31.8785ZM20.3097 44.7295C20.7542 44.238 20.9161 43.5989 20.7414 43.0208C20.5738 42.4641 20.1122 42.0394 19.5072 41.886C19.3822 41.8533 19.2572 41.8377 19.1336 41.8377C18.7473 41.8377 18.3709 41.9954 17.9917 42.3149C17.4307 42.7865 16.7134 42.9612 16.0246 42.7936C15.357 42.6317 14.8187 42.1672 14.5503 41.5196C14.2066 40.6944 14.3344 39.9388 14.9395 39.2087C15.3272 38.74 15.4735 38.1691 15.3414 37.6435C15.215 37.1436 14.8443 36.7374 14.3245 36.5286C13.6782 36.2687 13.0604 36.4065 12.4852 36.9376C11.6287 37.7288 10.3817 37.7415 9.52098 36.9661C9.08494 36.5726 8.82928 36.0343 8.80514 35.4492C8.77957 34.8597 8.98978 34.2959 9.39599 33.8613C9.8022 33.4266 9.98542 32.8713 9.89878 32.3373C9.8164 31.8387 9.50109 31.4084 9.03239 31.157C8.38047 30.8062 7.6277 30.9383 7.01697 31.5121C6.14631 32.3287 4.80838 32.3032 3.9704 31.4524C3.14378 30.613 3.13383 29.2594 3.94767 28.4371C6.06678 26.2953 7.96857 24.3935 9.75959 22.6223C10.3064 22.0812 11.0293 21.8468 11.7452 21.9775C12.4369 22.1039 13.0064 22.557 13.3089 23.2203C13.7024 24.0838 13.576 24.8721 12.9226 25.6306C12.6059 25.997 12.2153 26.5722 12.4724 27.3349C12.6641 27.9045 13.086 28.3149 13.6314 28.4612C14.1711 28.6061 14.7378 28.4655 15.1852 28.0721C15.5829 27.7227 15.9621 27.521 16.3782 27.4372C17.2688 27.2596 18.1124 27.619 18.6351 28.4002C19.0967 29.089 19.0868 30.0633 18.611 30.7678C18.5428 30.8701 18.4576 30.9695 18.3695 31.076L18.2843 31.1783C17.692 31.8984 17.7247 32.8685 18.361 33.4849C19.0172 34.1198 19.9645 34.1226 20.6662 33.492C21.1278 33.0772 21.5766 32.8727 22.0779 32.8472C23.0139 32.7989 23.8036 33.2463 24.19 34.0445C24.599 34.891 24.4769 35.7758 23.8533 36.4746C23.5252 36.8411 23.119 37.4206 23.3633 38.2046C23.5394 38.7699 23.9698 39.1974 24.5138 39.3493C25.0521 39.4999 25.6358 39.3593 26.0733 38.973C26.5874 38.5185 27.0774 38.2997 27.6115 38.2827C28.2023 38.2656 28.7577 38.4744 29.1738 38.8778C29.5957 39.2854 29.8286 39.8422 29.83 40.4444C29.8328 41.0452 29.6368 41.548 29.2477 41.9414L28.5674 42.6274C26.8687 44.3403 25.1117 46.1114 23.3591 47.8258C22.531 48.6368 21.1746 48.6183 20.3381 47.786C19.4987 46.9523 19.4873 45.6385 20.3097 44.7309V44.7295ZM38.1644 10.6619L35.4033 12.4259C32.5641 14.2397 29.7263 16.0534 26.8857 17.8643C25.9582 18.4551 24.8561 18.5673 23.8604 18.1739C22.8847 17.7862 22.1745 16.9695 21.9118 15.9312C21.6277 14.8064 21.8635 13.7994 22.5949 13.0182C24.2809 11.2158 25.8063 9.59807 27.4027 8.03431C28.8358 6.63246 30.6552 5.53456 32.8112 4.77185C35.2229 3.91967 37.6204 3.64555 39.9384 3.95802C45.3725 4.6909 49.3934 7.34546 51.8931 11.8507C53.3404 14.4584 53.9384 17.4538 53.6728 20.7518C53.6117 21.5045 53.4853 22.2729 53.3617 23.0158C53.3276 23.2217 53.2936 23.4291 53.2609 23.635C53.062 23.4191 52.8689 23.2118 52.6658 23.0087C49.8962 20.2348 47.1237 17.4623 44.3513 14.6899L40.5917 10.9289C40.1599 10.4957 39.7324 10.2812 39.2779 10.2812C38.9271 10.2812 38.5607 10.4091 38.163 10.6633L38.1644 10.6619Z" fill="white"/>
</svg>
