<svg width="57" height="66" viewBox="0 0 57 66" fill="none" xmlns="http://www.w3.org/2000/svg">
<path d="M29.7716 0.501275C31.1457 0.733254 32.5452 0.867089 33.8886 1.21633C38.7398 2.47947 43.5757 3.80507 48.4103 5.1294C49.5931 5.45315 50.7543 5.85593 51.9193 6.24086C54.6049 7.12799 56.1141 8.9953 56.4659 11.7918C57.0433 16.3715 57.1886 20.9614 56.7233 25.5589C55.6412 36.2657 51.7587 45.8163 44.8133 54.0707C41.5287 57.9749 37.7622 61.3348 33.3214 63.8942C32.8447 64.1682 32.34 64.3938 31.8607 64.6628C29.5447 65.9641 27.281 65.7883 24.96 64.5914C21.2432 62.6769 17.9993 60.1404 15.0728 57.1986C7.28489 49.3712 2.54715 39.971 0.743575 29.0845C-0.17797 23.5233 -0.216209 17.9482 0.481005 12.3616C0.565129 11.6911 0.633958 11.0041 0.839171 10.3668C1.51089 8.28406 2.93718 6.90111 5.01863 6.26508C9.16749 4.99811 13.3189 3.73879 17.492 2.55595C20.6084 1.67264 23.7618 0.923172 26.9968 0.591772C27.0758 0.584124 27.151 0.531865 27.2275 0.5C28.0751 0.5 28.924 0.5 29.7716 0.5V0.501275ZM52.7695 18.69C52.6675 17.409 52.4712 14.8547 52.2558 12.3004C52.1691 11.2769 51.5943 10.6446 50.6052 10.363C45.2543 8.83852 39.9188 7.26055 34.5514 5.79602C31.1482 4.86683 27.7169 4.59023 24.1901 5.38304C18.151 6.74178 12.2355 8.50202 6.34678 10.3821C5.3513 10.6995 4.83763 11.338 4.73184 12.3488C4.66556 12.981 4.59673 13.6132 4.533 14.2454C4.0308 19.1871 4.15444 24.1097 5.02118 29.0029C6.43982 37.0049 9.67097 44.195 14.7936 50.512C17.8884 54.3269 21.4267 57.6715 25.7413 60.0754C28.6589 61.7006 28.3402 61.7248 31.2973 60.0538C36.0363 57.3771 39.8666 53.6399 43.1321 49.3215C49.6951 40.644 52.6981 30.7874 52.7682 18.69H52.7695Z" fill="white"/>
<path d="M30.5338 31.0321C30.5338 32.9797 30.5351 34.861 30.5313 36.7411C30.5313 37.0151 30.5389 37.2968 30.4816 37.5632C30.2674 38.5638 29.3395 39.2457 28.3377 39.1679C27.3142 39.0876 26.4857 38.24 26.4716 37.1834C26.4474 35.3823 26.464 33.5813 26.464 31.7803C26.464 31.5521 26.464 31.3253 26.464 31.0321C25.3959 31.0321 24.3851 31.0321 23.3743 31.0321C22.4426 31.0321 21.5096 31.0359 20.5778 31.0321C19.2407 31.0257 18.3141 30.1794 18.3243 28.9774C18.3345 27.7971 19.2458 26.9674 20.5498 26.9635C22.2871 26.9584 24.0244 26.9623 25.7617 26.9623C25.9694 26.9623 26.1772 26.9623 26.4627 26.9623C26.4627 26.6079 26.4627 26.2982 26.4627 25.9884C26.4627 24.3149 26.4551 22.6413 26.4653 20.9665C26.4729 19.7237 27.3371 18.8226 28.497 18.8226C29.6518 18.8226 30.5249 19.7275 30.5313 20.9665C30.5415 22.9345 30.5338 24.9025 30.5338 26.9317C30.7671 26.9431 30.9697 26.961 31.1724 26.961C32.846 26.9635 34.5195 26.961 36.1944 26.9623C37.7252 26.9623 38.6646 27.7283 38.6735 28.9812C38.6824 30.261 37.7392 31.0321 36.1625 31.0334C34.3194 31.0334 32.4776 31.0334 30.5338 31.0334V31.0321Z" fill="white"/>
</svg>
