<svg width="62" height="57" viewBox="0 0 62 57" fill="none" xmlns="http://www.w3.org/2000/svg">
<path d="M61.5053 19.4104C60.3556 20.8855 59.2273 22.378 58.0506 23.83C49.4825 34.405 40.9048 44.9723 32.331 55.5435C32.2942 55.5899 32.2574 55.6381 32.2187 55.6845C31.3052 56.7696 30.1846 56.7754 29.2885 55.6806C27.5699 53.5799 25.8648 51.4676 24.1558 49.3611C16.3116 39.6877 8.46547 30.0163 0.625136 20.341C0.390952 20.0514 0.207088 19.7212 0 19.4104C0 19.1304 0 18.8523 0 18.5724C0.133543 18.331 0.26128 18.0858 0.4045 17.8503C3.71211 12.417 7.02746 6.98945 10.3273 1.55036C10.7647 0.830168 11.3454 0.5 12.195 0.5C24.5661 0.509654 36.9372 0.509654 49.3083 0.5C50.1561 0.5 50.7483 0.822445 51.1799 1.54843C52.136 3.16066 53.1269 4.75164 54.0985 6.35422C56.5681 10.4263 59.0376 14.4984 61.5072 18.5724V19.4104H61.5053ZM39.9468 20.7214H21.5585C24.6164 30.2267 27.6492 39.6588 30.6839 49.0888C30.7323 49.083 30.7807 49.0772 30.8291 49.0714C33.8599 39.6452 36.8927 30.219 39.9468 20.7214ZM21.7462 17.2459H39.7126C39.6991 17.1552 39.6991 17.1146 39.6855 17.0799C37.9669 12.7915 36.2405 8.50707 34.5354 4.21295C34.396 3.85961 34.1715 3.85961 33.8832 3.86154C31.8007 3.8654 29.7201 3.87699 27.6376 3.85189C27.2176 3.84609 27.0512 3.99863 26.908 4.36548C25.7506 7.29066 24.5739 10.21 23.401 13.1294C22.8533 14.4926 22.3056 15.8557 21.7462 17.2459ZM5.25076 20.7021C12.2743 29.3598 19.2379 37.9423 26.1996 46.5247C26.2615 46.3702 26.2325 46.2776 26.2035 46.1849C23.5171 37.8264 20.825 29.4679 18.1522 21.1037C18.0244 20.7059 17.8154 20.6499 17.4574 20.6499C13.5943 20.6596 9.72929 20.6557 5.86622 20.6577C5.69397 20.6577 5.52171 20.6808 5.25269 20.7001L5.25076 20.7021ZM35.2128 46.4629L35.3037 46.5382C42.2693 37.95 49.2348 29.3617 56.2681 20.6905C55.9449 20.675 55.7513 20.6596 55.5558 20.6596C51.7547 20.6596 47.9536 20.6712 44.1524 20.6441C43.6279 20.6403 43.4421 20.8295 43.2931 21.2929C41.6887 26.3362 40.0629 31.3736 38.443 36.4111C37.3669 39.7611 36.2889 43.111 35.2128 46.4629ZM23.4862 3.86154C23.1958 3.86154 23.0178 3.86154 22.8378 3.86154C19.6966 3.86154 16.5535 3.87119 13.4124 3.84996C12.9904 3.84802 12.7814 3.99863 12.5724 4.34231C10.0738 8.46845 7.55776 12.5849 5.04948 16.7053C4.95077 16.8655 4.86368 17.0335 4.74175 17.2459C4.92948 17.2691 5.02431 17.2923 5.12109 17.2923C9.3035 17.2942 13.4859 17.2884 17.6683 17.3038C18.0631 17.3038 18.1696 17.1088 18.2877 16.8096C19.2805 14.3111 20.285 11.8184 21.2856 9.32573C22.0036 7.5378 22.7236 5.74987 23.4862 3.85961V3.86154ZM38.0404 3.86733C38.1294 4.11061 38.1933 4.29211 38.2649 4.47168C39.9023 8.55341 41.5493 12.6332 43.1712 16.7207C43.3434 17.1552 43.5486 17.3135 44.0344 17.3116C48.0561 17.2884 52.0779 17.298 56.0997 17.298C56.2932 17.298 56.4848 17.2807 56.7403 17.2691C56.6687 17.105 56.6339 16.9968 56.5777 16.9022C53.9959 12.6641 51.4179 8.42404 48.8148 4.19943C48.7045 4.01987 48.3735 3.88664 48.1432 3.88471C46.1227 3.85961 44.1021 3.87119 42.0815 3.87119C40.7635 3.87119 39.4455 3.87119 38.0423 3.87119L38.0404 3.86733Z" fill="white"/>
</svg>
