<svg width="64" height="59" viewBox="0 0 64 59" fill="none" xmlns="http://www.w3.org/2000/svg">
<path fill-rule="evenodd" clip-rule="evenodd" d="M18.8752 12.7571L30.593 1.03928C31.3121 0.320224 32.4779 0.320224 33.1969 1.03928L44.9147 12.7571C45.6338 13.4761 45.6338 14.6419 44.9147 15.361C44.1957 16.0801 43.0298 16.0801 42.3108 15.361L33.7362 6.78648L33.7362 47.4524C33.7362 48.4693 32.9119 49.2936 31.895 49.2936C30.8781 49.2936 30.0537 48.4693 30.0537 47.4524L30.0537 6.78648L21.4792 15.361C20.7601 16.0801 19.5943 16.0801 18.8752 15.361C18.1562 14.6419 18.1562 13.4761 18.8752 12.7571Z" fill="white"/>
<path fill-rule="evenodd" clip-rule="evenodd" d="M0.539294 31.1698L12.2571 19.452C12.9761 18.7329 14.142 18.7329 14.861 19.452L26.5788 31.1698C27.2978 31.8888 27.2978 33.0547 26.5788 33.7737C25.8597 34.4928 24.6939 34.4928 23.9748 33.7737L15.4003 25.1992L15.4003 56.6587C15.4003 57.6756 14.5759 58.5 13.559 58.5C12.5421 58.5 11.7178 57.6756 11.7178 56.6587L11.7178 25.1992L3.14324 33.7737C2.42418 34.4928 1.25836 34.4928 0.539294 33.7737C-0.179766 33.0547 -0.179766 31.8888 0.539294 31.1698Z" fill="white"/>
<path fill-rule="evenodd" clip-rule="evenodd" d="M37.2815 30.2491L48.9992 18.5313C49.7183 17.8123 50.8841 17.8123 51.6032 18.5313L63.321 30.2491C64.04 30.9682 64.04 32.134 63.321 32.8531C62.6019 33.5721 61.4361 33.5721 60.717 32.8531L52.1425 24.2785L52.1425 55.7381C52.1425 56.755 51.3181 57.5793 50.3012 57.5793C49.2843 57.5793 48.46 56.755 48.46 55.7381L48.46 24.2785L39.8854 32.8531C39.1664 33.5721 38.0005 33.5721 37.2815 32.8531C36.5624 32.134 36.5624 30.9682 37.2815 30.2491Z" fill="white"/>
</svg>
