<svg width="38" height="39" viewBox="0 0 38 39" fill="none" xmlns="http://www.w3.org/2000/svg">
<path d="M2.77093 38.3572H6.72941C8.25738 38.3572 9.50034 37.1143 9.50034 35.5863V35.0068C11.8944 36.226 17.3318 38.3572 26.175 38.3572H28.7085C32.3788 38.3572 35.4949 35.732 36.1171 32.1157L37.8905 21.824C38.2674 19.6279 37.6609 17.3954 36.2296 15.6949C34.7998 13.9976 32.7034 13.0238 30.4819 13.0238H23.2996C23.7477 11.8205 24.1958 10.0662 24.1958 7.87801C24.1958 1.92943 20.8295 0.357178 19.0498 0.357178C15.7627 0.357178 15.4871 3.42251 15.4871 6.29468C15.4871 9.80018 11.5556 12.7135 9.47976 14.0087C9.37367 12.5773 8.18771 11.4405 6.72941 11.4405H2.77093C1.24296 11.4405 0 12.6834 0 14.2113V35.5863C0 37.1143 1.24296 38.3572 2.77093 38.3572ZM17.8622 6.29468C17.8622 2.73218 18.4655 2.73218 19.0498 2.73218C20.1645 2.73218 21.8207 4.10334 21.8207 7.87801C21.8207 11.3867 20.4463 13.5368 20.4368 13.5527C20.1946 13.9168 20.1708 14.3855 20.3782 14.7718C20.5841 15.1582 20.9878 15.3988 21.4249 15.3988H30.4819C32.0019 15.3988 33.4349 16.0638 34.4134 17.2244C35.3935 18.3866 35.8084 19.9161 35.5503 21.4187L33.7769 31.7103C33.351 34.1835 31.2197 35.9806 28.7085 35.9806H26.175C15.4032 35.9822 10.007 32.6128 9.50034 32.2788V16.7463C10.8193 16.0464 17.8622 12.0406 17.8622 6.29468ZM2.37509 14.2113C2.37509 13.9928 2.55243 13.8155 2.77093 13.8155H6.72941C6.94792 13.8155 7.12526 13.9928 7.12526 14.2113V35.5863C7.12526 35.8017 6.94475 35.9822 6.72941 35.9822H2.77093C2.55243 35.9822 2.37509 35.8048 2.37509 35.5863V14.2113Z" fill="white"/>
</svg>
